g LoginScene_Broken_09_Vo
v 8.1019535 8.629966 8.372656
v 8.1019535 5.1299777 -4.820053
v 8.1019535 5.1299753 8.932656
v 8.1019535 8.629971 -7.81
v -12.522723 4.541748 12.434375
v -11.24967 1.2806811 9.877573
v -12.589085 4.5142627 6.441328
v -12.14718 3.4474268 12.693593
v -11.24967 1.2806786 12.8854685
v -13.135781 2.2515259 10.401953
v -11.986826 2.8656542 12.759062
v -9.380577 1.3569614 11.607442
v -10.5668335 0.28354174 9.752424
v -9.705319 4.0851464 2.90375
v -9.705319 4.0851464 12.170547
v -6.1998506 0.15533264 11.6343775
v -8.232491 4.531926 12.757687
v -2.9807482 0.7911426 11.752989
v -3.1503487 -1.4438598 10.222036
v -0.0028897405 0.17187056 10.250974
v -5.3083167 5.421509 12.345886
v -2.3841417 6.311091 10.551875
v -5.9476843 -0.90778303 9.951486
v -3.916478 -2.5204735 8.282812
v -7.474558 -1.4213238 8.2543745
v 0.4274783 -4.1831837 7.873203
v 2.175276 -1.8224413 10.072973
v 4.713432 -2.3755999 3.518472
v -1.3631207 -3.8820183 4.314922
v -1.8060069 -2.3327966 1.1333888
v -5.6612372 -2.2406812 3.318906
v 6.0593505 -0.59877074 7.60523
v 7.9491215 -0.6461401 -1.2589062
v 9.676468 2.8227642 3.9983523
v 7.8888946 2.7741551 7.453359
v 9.937482 4.042408 6.322057
v -0.23529449 -0.14408645 -2.5694973
v 6.637121 3.3178267 -6.272933
v 3.2531197 3.1893303 -8.7772
v 5.6020536 7.1299853 -10.333593
v 7.3981047 6.9530883 -9.197422
v 2.1338139 6.788391 -11.380781
v 9.992651 4.7035084 -0.12257812
v 8.500124 6.844187 -0.43034363
v 10.139011 5.0208626 3.2303534
v 10.633262 6.634025 6.844513
v 8.316854 5.317711 7.8489285
v 3.8441381 1.4223218 9.356459
v 4.9766073 4.4632707 9.594554
v 10.163354 6.680376 4.4185395
v 0.6767289 6.6448803 -12.731925
v -0.15420303 3.383886 -7.7663617
v -2.2306721 6.353375 -7.6202636
v -3.5177083 2.800956 -3.128152
v -4.122959 -0.68539685 -0.20840056
v -3.753799 5.891406 -3.1860528
v -5.58525 5.3349614 -1.8443942
v -8.136609 1.127072 4.3451953
v -11.986826 2.8656542 12.759062
v -13.135781 2.2515259 10.401953
v -9.705319 4.0851464 2.90375
v -9.705319 4.0851464 12.170547
v -6.630285 3.1940966 0.5606201
v -7.9696403 6.427671 -2.8757813
v -12.589085 4.5142627 6.441328
v -11.24967 1.2806811 9.877573
v 3.1020148 8.629966 9.234843
v 8.1019535 8.629971 -7.81
v 8.1019535 8.629966 8.372656
v 3.1020148 8.629975 -12.313984
v 7.4598308 8.629971 -9.693749
v 5.6020536 7.1299853 -10.333593
v 6.0685043 7.0826073 8.81011
v 2.1338139 6.788391 -11.380781
v 1.6499689 6.7447433 8.911727
v -2.2306721 6.353375 -7.6202636
v -2.3841417 6.311091 10.551875
v 0.6767289 6.6448803 -12.731925
v -3.753799 5.891406 -3.1860528
v -5.58525 5.3349614 -1.8443942
v -5.3083167 5.421509 12.345886
v -8.232491 4.531926 12.757687
v -9.705319 4.0851464 2.90375
v -9.705319 4.0851464 12.170547
v 3.1020148 8.629966 9.234843
v 3.1020148 5.129973 -10.181919
v 3.1020148 8.629975 -12.313984
v 3.1020148 5.129973 9.794844
v 3.1020148 8.629975 -12.313984
v 3.1020148 5.129973 -10.181919
v 7.4598308 8.629971 -9.693749
v 8.1019535 5.1299777 -4.820053
v 8.1019535 8.629971 -7.81
v 6.0685043 7.0826073 8.81011
v 5.6020536 7.1299853 -10.333593
v 8.500124 6.844187 -0.43034363
v 7.3981047 6.9530883 -9.197422
v 10.163354 6.680376 4.4185395
v 10.633262 6.634025 6.844513
v 3.1020148 5.129973 9.794844
v 8.1019535 5.1299777 -4.820053
v 3.1020148 5.129973 -10.181919
v 8.1019535 5.1299753 8.932656
v -6.630285 3.1940966 0.5606201
v -6.630285 3.1940942 11.782812
v -7.9696403 6.4276733 11.496327
v -7.9696403 6.427671 -2.8757813
v 8.1019535 5.1299753 8.932656
v 3.1020148 8.629966 9.234843
v 8.1019535 8.629966 8.372656
v 3.1020148 5.129973 9.794844
v -6.630285 3.1940942 11.782812
v -11.24967 1.2806786 12.8854685
v -12.14718 3.4474268 12.693593
v -12.522723 4.541748 12.434375
v -7.9696403 6.4276733 11.496327
v -11.24967 1.2806811 9.877573
v 6.0685043 7.0826073 8.81011
v 2.7673397 4.294338 9.645362
v 1.6499689 6.7447433 8.911727
v -0.17630355 3.4117293 10.232826
v -7.9696403 6.4276733 11.496327
v -12.522723 4.541748 12.434375
v -12.589085 4.5142627 6.441328
v -7.9696403 6.427671 -2.8757813
v 4.5133295 -0.9160278 6.1691637
v -3.0267675 2.1917408 6.490471
v -0.8446615 -0.9316284 8.503705
v 0.049305115 3.879375 12.202746
v -3.3805182 4.16001 6.821427
v 0.3856633 5.8221264 11.19752
v 1.2663686 -0.8302148 10.935257
v 1.2578644 -2.3517601 8.978463
v 4.325702 -0.46579587 10.8285
v 6.8067656 2.4098656 9.295593
v 6.2471027 1.4815698 5.057704
v 3.3160007 6.2661033 5.697024
v -2.8002408 4.0913696 5.2940016
v 2.5964496 5.0502076 4.441231
v 4.113785 6.320664 10.245005
v 5.0446143 2.9803882 11.553872
v 0.049305115 3.879375 12.202746
v 1.2663686 -0.8302148 10.935257
v 0.3856633 5.8221264 11.19752
v 4.113785 6.320664 10.245005
v -2.5990846 5.3731275 6.274803
v 3.3160007 6.2661033 5.697024
v 0.3856633 5.8221264 11.19752
v 4.113785 6.320664 10.245005
v 2.5964496 5.0502076 4.441231
v -2.5990846 5.3731275 6.274803
v 3.3722167 6.543756 -10.749815
v 1.844436 6.6454844 -4.196909
v 0.09256347 6.125886 -7.24405
v 1.3439916 1.412301 -5.9040036
v 2.6163182 5.671437 -3.079508
v 3.0073047 1.2037283 -5.1832347
v -0.12985596 3.9846845 -8.800208
v -0.046259765 5.948397 -9.360328
v 1.3630005 3.2449522 -10.7198105
v 4.6529613 2.5395055 -11.006532
v 5.9011326 5.915056 -10.770695
v 7.0119443 4.105059 -6.6269884
v 3.528994 6.607972 -3.408208
v 6.64483 5.619622 -6.6071115
v 5.2405176 0.83545655 -7.4440856
v 3.190781 1.152644 -9.688298
v 1.3439916 1.412301 -5.9040036
v -0.12985596 3.9846845 -8.800208
v 3.0073047 1.2037283 -5.1832347
v 5.2405176 0.83545655 -7.4440856
v 3.8495433 5.3633213 -3.0255628
v 7.0119443 4.105059 -6.6269884
v 3.0073047 1.2037283 -5.1832347
v 5.2405176 0.83545655 -7.4440856
v 6.64483 5.619622 -6.6071115
v 3.8495433 5.3633213 -3.0255628
vt 0.33439156 0.26664707
vt 0.6519915 0.21630083
vt 0.32104352 0.21229447
vt 0.7201038 0.26664704
vt 0.44466707 0.18895555
vt 0.4961452 0.26440552
vt 0.5692507 0.18895555
vt 0.43632987 0.21385965
vt 0.4322501 0.26444012
vt 0.078122936 0.85552454
vt 0.08947344 0.90251416
vt 0.12207599 0.89716953
vt 0.10578856 0.8540691
vt 0.10450028 0.76289016
vt 0.11515578 0.93619215
vt 0.1603538 0.9153197
vt 0.14447555 0.9524645
vt 0.19820213 0.9224163
vt 0.19177528 0.89549637
vt 0.22673711 0.9058853
vt 0.18161806 0.9590498
vt 0.22434539 0.96768457
vt 0.15549915 0.87850046
vt 0.16833095 0.8507085
vt 0.13295804 0.83265406
vt 0.21729472 0.84846175
vt 0.24066159 0.88229966
vt 0.25970274 0.8148918
vt 0.19822767 0.807296
vt 0.19832969 0.7778138
vt 0.15941001 0.7874128
vt 0.27982086 0.8619435
vt 0.2904877 0.7750446
vt 0.32279378 0.829043
vt 0.3101632 0.87451106
vt 0.34048936 0.8493248
vt 0.21818289 0.74499667
vt 0.29762483 0.7241381
vt 0.26392078 0.6949918
vt 0.30972052 0.6719466
vt 0.3267088 0.69741035
vt 0.27834487 0.65483785
vt 0.33561075 0.78308237
vt 0.34724396 0.77478176
vt 0.343678 0.8158542
vt 0.3630012 0.84792733
vt 0.331366 0.88102967
vt 0.26828402 0.90341765
vt 0.29697934 0.90986747
vt 0.3611112 0.81566304
vt 0.25457105 0.6457741
vt 0.22009851 0.693127
vt 0.1916712 0.67285
vt 0.177966 0.72078717
vt 0.178076 0.7585938
vt 0.16774964 0.69642824
vt 0.15673247 0.7078303
vt 0.12534216 0.78646183
vt 0.22927122 0.24646059
vt 0.26128426 0.26413137
vt 0.36312154 0.21115482
vt 0.2372642 0.21129283
vt 0.31353283 0.23665881
vt 0.34625068 0.21833353
vt 0.27135402 0.18730995
vt 0.2418011 0.20935754
vt 0.3138401 0.26582932
vt 0.7201036 0.18818328
vt 0.3343913 0.18818326
vt 0.8274562 0.26582932
vt 0.7650034 0.19815506
vt 0.16747722 0.18290934
vt 0.055096537 0.18303517
vt 0.17365134 0.2035063
vt 0.054001547 0.20643583
vt 0.15148711 0.22943889
vt 0.044334617 0.23029847
vt 0.18159625 0.21216834
vt 0.12533212 0.23883733
vt 0.11742402 0.25014973
vt 0.033754155 0.248401
vt 0.0313275 0.26649576
vt 0.08942895 0.27558336
vt 0.034791123 0.27558336
vt 0.3138403 0.18825528
vt 0.78215796 0.24406806
vt 0.82745636 0.18825528
vt 0.30049577 0.24260774
vt 0.3797819 0.5547366
vt 0.33653134 0.606417
vt 0.42573476 0.62406594
vt 0.39346406 0.71685135
vt 0.4367816 0.654689
vt 0.60567206 0.25428745
vt 0.7942648 0.25917336
vt 0.69670314 0.23036544
vt 0.7830716 0.24136016
vt 0.64893734 0.21387237
vt 0.6250498 0.20921052
vt 0.30049577 0.24260774
vt 0.6519915 0.21630083
vt 0.78215796 0.24406806
vt 0.32104352 0.21229447
vt 0.5230857 0.21399793
vt 0.25311098 0.21229452
vt 0.2599401 0.26664707
vt 0.60249853 0.26664707
vt 0.4230188 0.5946291
vt 0.34158206 0.6525874
vt 0.4245754 0.6525874
vt 0.34002542 0.5946291
vt 0.28488353 0.22253011
vt 0.24799068 0.23594072
vt 0.25445047 0.25278476
vt 0.25869107 0.26069292
vt 0.29452434 0.24766794
vt 0.2418011 0.20935754
vt 0.32397205 0.91247225
vt 0.27456808 0.92621875
vt 0.28018564 0.946932
vt 0.2393015 0.9324729
vt 0.25993988 0.18818326
vt 0.2365234 0.26509354
vt 0.38042504 0.26582932
vt 0.6024984 0.18818328
vt 0.8944672 0.9193854
vt 0.83598924 0.9292929
vt 0.86160034 0.95091236
vt 0.8227236 0.9843761
vt 0.8218647 0.9278991
vt 0.80521625 0.97633004
vt 0.86700505 0.9761095
vt 0.8810085 0.9560013
vt 0.9116832 0.9474151
vt 0.9330207 0.91911197
vt 0.9022302 0.89471054
vt 0.93755645 0.8636402
vt 0.82569176 0.91248053
vt 0.86092174 0.88181496
vt 0.9634361 0.89337903
vt 0.93700475 0.9459559
vt 0.9384919 0.98981726
vt 0.90028954 0.9688903
vt 0.95732224 0.986644
vt 0.9650041 0.9512515
vt 0.81936294 0.90045094
vt 0.85617703 0.8661779
vt 0.8074018 0.8523884
vt 0.8337042 0.83425105
vt 0.9235299 0.8568591
vt 0.81115246 0.92345524
vt 0.8944672 0.9193854
vt 0.83598924 0.9292929
vt 0.86160034 0.95091236
vt 0.8227236 0.9843761
vt 0.8218647 0.9278991
vt 0.80521625 0.97633004
vt 0.86700505 0.9761095
vt 0.8810085 0.9560013
vt 0.9116832 0.9474151
vt 0.9330207 0.91911197
vt 0.9022302 0.89471054
vt 0.93755645 0.8636402
vt 0.82569176 0.91248053
vt 0.86092174 0.88181496
vt 0.9634361 0.89337903
vt 0.93700475 0.9459559
vt 0.9384919 0.98981726
vt 0.90028954 0.9688903
vt 0.95732224 0.986644
vt 0.9650041 0.9512515
vt 0.81936294 0.90045094
vt 0.85617703 0.8661779
vt 0.8074018 0.8523884
vt 0.8337042 0.83425105
vt 0.9235299 0.8568591
vt 0.81115246 0.92345524
vn 1 0 0
vn 1 0 0
vn 1 0 0
vn 1 0 0
vn -0.93521893 -0.35377595 -0.014430588
vn -0.9285982 -0.37107745 0.0026207634
vn -0.92824954 -0.37176487 0.011983507
vn -0.9365138 -0.34937385 -0.029661052
vn -0.9238775 -0.38268834 -3.1061506E-07
vn -0.53083795 -0.84186727 0.09731632
vn -0.08482374 -0.6930103 0.7159202
vn -0.15958418 -0.56526625 0.809325
vn -0.53117234 -0.8364534 0.13491374
vn -0.66320175 -0.5557366 -0.50131845
vn 0.016222207 -0.2520541 0.9675772
vn -0.14297788 -0.595538 0.79050106
vn -0.0896327 -0.24850745 0.96447396
vn 0.26191443 -0.25082487 0.93192685
vn -0.047205817 -0.6868811 0.7252351
vn 0.21790688 -0.064775854 0.9738176
vn 0.30633572 0.032167476 0.95137995
vn 0.40446427 0.15518919 0.90129066
vn -0.2414195 -0.8302665 0.50236857
vn -0.29479468 -0.90093136 0.31846315
vn -0.46337685 -0.88021153 0.102515474
vn 0.12138235 -0.9422058 0.3122733
vn 0.3461423 -0.45098242 0.8226788
vn 0.3786441 -0.92248327 -0.075189315
vn -0.100731574 -0.9746002 -0.2000192
vn -0.0820264 -0.8726862 -0.48134232
vn -0.57094246 -0.76396066 -0.30064735
vn 0.62838346 -0.58121705 0.5170309
vn 0.58118504 -0.7417703 -0.33466506
vn 0.8916922 -0.43933976 0.10892919
vn 0.63894135 -0.35534397 0.6822642
vn 0.80902636 -0.42308322 0.40801582
vn -0.14899443 -0.8192501 -0.55374175
vn 0.5674003 -0.64336497 -0.513944
vn 0.1876714 -0.7689665 -0.61112195
vn 0.38291812 -0.56280214 -0.73254865
vn 0.59948814 -0.5260073 -0.60326624
vn 0.5408548 -0.3760603 -0.75236607
vn 0.97464174 0.05501749 -0.2169023
vn 0.8200678 0.5481237 -0.16446647
vn 0.9934856 -0.10609661 -0.041592486
vn 0.8491322 -0.19522105 0.49077833
vn 0.47962165 -0.12057813 0.86915135
vn 0.36095995 -0.09517501 0.927712
vn 0.2463125 0.011813669 0.9691185
vn 0.96892047 0.17175403 -0.17802748
vn -0.06320937 -0.6652299 -0.7439582
vn -0.4726125 -0.688855 -0.54965097
vn -0.7728926 -0.41308975 -0.4816575
vn -0.6748754 -0.4153347 -0.609951
vn -0.5278935 -0.6008599 -0.6002466
vn -0.8135404 -0.07295805 -0.57691354
vn -0.66648775 -0.17689887 -0.7242244
vn -0.72035563 -0.5546142 -0.41652235
vn -0.47139686 0.8819211 0
vn -0.47139657 0.8819214 1.650196E-07
vn -0.32119727 0.94701236 0
vn -0.3792476 0.92529523 0
vn -0.57722425 -0.6948825 -0.42889446
vn -0.57722354 -0.69488364 -0.4288935
vn -0.5772261 -0.69487923 -0.42889717
vn -0.0340497 -0.9755274 -0.21722573
vn 1.5725759E-07 1 3.3259857E-07
vn 6.681431E-07 1 2.688946E-07
vn -0 1 3.017312E-07
vn 7.2511546E-07 1 2.791483E-07
vn 1.4093259E-06 1 -4.804036E-07
vn -0.031921614 0.99948514 0.0032435837
vn -0.0025898905 0.99999654 0.0004963654
vn -0.09770642 0.99521387 0.0017078801
vn -0.09273028 0.995691 0.00082214025
vn -0.12176014 0.99255955 6.274161E-06
vn -0.2258256 0.97416764 0.00040416967
vn -0.098620236 0.995125 0.00065643183
vn -0.29085994 0.9567656 -0.00023014985
vn -0.29078943 0.9567871 -0.00017504198
vn -0.29109222 0.956695 -0.00015405483
vn -0.2906551 0.95682794 -7.309138E-05
vn -0.32119727 0.94701236 0
vn -0.3792476 0.92529523 0
vn -1 0 0
vn -1 0 0
vn -1 0 0
vn -1 0 0
vn 0.45679462 -0.46278837 -0.7597142
vn 0.514389 -0.5485195 -0.65918916
vn 0.6408909 -0.51987547 -0.56479055
vn 0.6672595 -0.5605452 -0.4904628
vn 0.91249347 -0.26571792 -0.311046
vn -0.0025898905 0.99999654 0.0004963654
vn -0.031921614 0.99948514 0.0032435837
vn 0.097873054 0.9951989 7.424376E-05
vn 0.09799 0.9951874 4.4532135E-05
vn 0.09782738 0.9952034 6.520994E-05
vn 0.09782754 0.9952034 6.534237E-05
vn 5.798474E-07 -1 -1.3572527E-07
vn 9.0504074E-07 -1 0
vn 9.765745E-07 -1 0
vn 4.576754E-07 -1 -1.7752183E-07
vn 0.9238831 0.3826748 0
vn 0.92388326 0.38267446 0
vn 0.9238832 0.3826745 0
vn 0.9238831 0.38267487 0
vn 0.16785786 0.15574919 0.97343
vn 0.16785784 0.15574917 0.97343
vn 0.16785789 0.15574923 0.97343
vn 0.16785781 0.15574913 0.97343
vn 0.28297493 -0.16827945 0.9442495
vn 0.39383012 -0.5101587 0.7646149
vn 0.16881557 0.2344592 0.9573558
vn 0.15920544 0.23217979 0.9595552
vn 0.14152463 0.14537387 0.97920233
vn -0.0340497 -0.9755274 -0.21722573
vn 0.2829422 0.14682734 0.947832
vn 0.08499086 0.14689207 0.9854944
vn 0.13406868 0.26633748 0.95451033
vn 0.29301003 0.123660475 0.9480787
vn -0.38267916 0.92388123 0
vn -0.3826793 0.92388123 3.02677E-07
vn -0.38267902 0.92388135 0
vn -0.3826789 0.92388135 -1.5694077E-07
vn 0.3381579 -0.7840641 -0.5204735
vn -0.8236671 -0.5024403 -0.26291883
vn -0.7151595 -0.6984015 -0.0279704
vn -0.4085635 0.10193713 0.9070197
vn -0.97458357 0.17900251 0.13470326
vn -0.2829161 0.7616138 0.5830118
vn -0.26103458 -0.5490329 0.7939923
vn -0.17412211 -0.98455554 0.018221734
vn 0.47851408 -0.61564237 0.62610596
vn 0.9813672 0.014632918 0.19158348
vn 0.7124918 -0.17319101 -0.67997074
vn 0.32419392 0.85550964 -0.40373453
vn -0.58318824 0.07960818 -0.80842686
vn 0.065983206 0.32625237 -0.94297695
vn 0.42027506 0.8236932 0.38065526
vn 0.51470065 0.085149415 0.85313123
vn -0.4085635 0.10193713 0.9070197
vn -0.26103458 -0.5490329 0.7939923
vn -0.2829161 0.7616138 0.5830118
vn 0.42027506 0.8236932 0.38065526
vn -0.5634506 0.79228073 -0.23412529
vn 0.32419392 0.85550964 -0.40373453
vn -0.2829161 0.7616138 0.5830118
vn 0.42027506 0.8236932 0.38065526
vn 0.065983206 0.32625237 -0.94297695
vn -0.5634506 0.79228073 -0.23412529
vn -0.055285882 0.73776424 -0.6727907
vn -0.58884794 0.68662715 0.42638174
vn -0.79775375 0.56542355 0.20948781
vn -0.64854354 -0.688952 0.32363003
vn -0.43921527 0.052953858 0.89681983
vn 0.032285616 -0.79204226 0.60961187
vn -0.94107807 -0.30328187 -0.14964001
vn -0.7457108 0.53195214 -0.40117627
vn -0.524897 -0.3248712 -0.7867286
vn 0.38532758 -0.4208963 -0.82119966
vn 0.6228132 0.45966926 -0.63309383
vn 0.95318234 -0.18931068 0.23580669
vn 0.22300367 0.7747067 0.59169155
vn 0.7823259 0.58985585 0.20009068
vn 0.53495455 -0.8414068 0.07653893
vn -0.17346215 -0.87738144 -0.4473396
vn -0.64854354 -0.688952 0.32363003
vn -0.94107807 -0.30328187 -0.14964001
vn 0.032285616 -0.79204226 0.60961187
vn 0.53495455 -0.8414068 0.07653893
vn 0.37729597 -0.06432527 0.923856
vn 0.95318234 -0.18931068 0.23580669
vn 0.032285616 -0.79204226 0.60961187
vn 0.53495455 -0.8414068 0.07653893
vn 0.7823259 0.58985585 0.20009068
vn 0.37729597 -0.06432527 0.923856
g LoginScene_Broken_09_Vo_0
f 3/3/3 2/2/2 1/1/1
f 4/4/4 1/1/1 2/2/2
f 7/7/7 6/6/6 5/5/5
f 8/8/8 5/5/5 6/6/6
f 9/9/9 8/8/8 6/6/6
f 12/12/12 11/11/11 10/10/10
f 13/13/13 12/12/12 10/10/10
f 14/14/14 13/13/13 10/10/10
f 11/11/11 12/12/12 15/15/15
f 12/12/12 16/16/16 15/15/15
f 15/15/15 16/16/16 17/17/17
f 18/18/18 17/17/17 16/16/16
f 16/16/16 19/19/19 18/18/18
f 19/19/19 20/20/20 18/18/18
f 21/21/21 17/17/17 18/18/18
f 22/22/22 21/21/21 18/18/18
f 16/16/16 23/23/23 19/19/19
f 16/16/16 12/12/12 23/23/23
f 23/23/23 12/12/12 13/13/13
f 19/19/19 23/23/23 24/24/24
f 23/23/23 25/25/25 24/24/24
f 25/25/25 23/23/23 13/13/13
f 24/24/24 26/26/26 19/19/19
f 26/26/26 27/27/27 19/19/19
f 27/27/27 20/20/20 19/19/19
f 27/27/27 26/26/26 28/28/28
f 28/28/28 26/26/26 29/29/29
f 29/29/29 26/26/26 24/24/24
f 30/30/30 28/28/28 29/29/29
f 24/24/24 25/25/25 31/31/31
f 24/24/24 31/31/31 29/29/29
f 31/31/31 30/30/30 29/29/29
f 32/32/32 27/27/27 28/28/28
f 32/32/32 28/28/28 33/33/33
f 33/33/33 34/34/34 32/32/32
f 34/34/34 35/35/35 32/32/32
f 36/36/36 35/35/35 34/34/34
f 28/28/28 37/37/37 33/33/33
f 37/37/37 28/28/28 30/30/30
f 33/33/33 37/37/37 38/38/38
f 37/37/37 39/39/39 38/38/38
f 39/39/39 40/40/40 38/38/38
f 38/38/38 40/40/40 41/41/41
f 42/42/42 40/40/40 39/39/39
f 43/43/43 33/33/33 38/38/38
f 41/41/41 43/43/43 38/38/38
f 34/34/34 33/33/33 43/43/43
f 44/44/44 43/43/43 41/41/41
f 45/45/45 34/34/34 43/43/43
f 36/36/36 34/34/34 45/45/45
f 36/36/36 45/45/45 46/46/46
f 46/46/46 47/47/47 36/36/36
f 47/47/47 35/35/35 36/36/36
f 32/32/32 35/35/35 48/48/48
f 27/27/27 32/32/32 48/48/48
f 35/35/35 49/49/49 48/48/48
f 47/47/47 49/49/49 35/35/35
f 50/50/50 43/43/43 44/44/44
f 45/45/45 43/43/43 50/50/50
f 46/46/46 45/45/45 50/50/50
f 51/51/51 42/42/42 39/39/39
f 39/39/39 52/52/52 51/51/51
f 51/51/51 52/52/52 53/53/53
f 52/52/52 54/54/54 53/53/53
f 52/52/52 37/37/37 54/54/54
f 39/39/39 37/37/37 52/52/52
f 37/37/37 55/55/55 54/54/54
f 53/53/53 54/54/54 56/56/56
f 56/56/56 54/54/54 57/57/57
f 57/57/57 54/54/54 14/14/14
f 54/54/54 58/58/58 14/14/14
f 55/55/55 58/58/58 54/54/54
f 58/58/58 13/13/13 14/14/14
f 30/30/30 55/55/55 37/37/37
f 25/25/25 13/13/13 58/58/58
f 31/31/31 25/25/25 58/58/58
f 31/31/31 58/58/58 55/55/55
f 55/55/55 30/30/30 31/31/31
f 61/61/61 60/60/60 59/59/59
f 62/62/62 61/61/61 59/59/59
f 65/65/65 64/64/64 63/63/63
f 66/66/66 65/65/65 63/63/63
f 69/69/69 68/68/68 67/67/67
f 70/70/70 67/67/67 68/68/68
f 71/71/71 70/70/70 68/68/68
f 74/74/74 73/73/73 72/72/72
f 75/75/75 73/73/73 74/74/74
f 76/76/76 75/75/75 74/74/74
f 77/77/77 75/75/75 76/76/76
f 78/78/78 76/76/76 74/74/74
f 76/76/76 79/79/79 77/77/77
f 79/79/79 80/80/80 77/77/77
f 80/80/80 81/81/81 77/77/77
f 82/82/82 81/81/81 80/80/80
f 82/82/82 80/80/80 83/83/83
f 84/84/84 82/82/82 83/83/83
f 87/87/87 86/86/86 85/85/85
f 88/88/88 85/85/85 86/86/86
f 91/91/91 90/90/90 89/89/89
f 90/90/90 91/91/91 92/92/92
f 91/91/91 93/93/93 92/92/92
f 96/96/96 95/95/95 94/94/94
f 97/97/97 95/95/95 96/96/96
f 96/96/96 94/94/94 98/98/98
f 98/98/98 94/94/94 99/99/99
f 102/102/102 101/101/101 100/100/100
f 103/103/103 100/100/100 101/101/101
f 106/106/106 105/105/105 104/104/104
f 107/107/107 106/106/106 104/104/104
f 110/110/110 109/109/109 108/108/108
f 111/111/111 108/108/108 109/109/109
f 114/114/114 113/113/113 112/112/112
f 115/115/115 114/114/114 112/112/112
f 116/116/116 115/115/115 112/112/112
f 113/113/113 117/117/117 112/112/112
f 120/120/120 119/119/119 118/118/118
f 49/49/49 118/118/118 119/119/119
f 121/121/121 119/119/119 120/120/120
f 22/22/22 121/121/121 120/120/120
f 18/18/18 121/121/121 22/22/22
f 48/48/48 49/49/49 119/119/119
f 48/48/48 119/119/119 20/20/20
f 20/20/20 121/121/121 18/18/18
f 20/20/20 119/119/119 121/121/121
f 27/27/27 48/48/48 20/20/20
f 118/118/118 49/49/49 47/47/47
f 118/118/118 47/47/47 46/46/46
f 124/124/124 123/123/123 122/122/122
f 125/125/125 124/124/124 122/122/122
f 128/128/128 127/127/127 126/126/126
f 128/128/128 129/129/129 127/127/127
f 127/127/127 129/129/129 130/130/130
f 129/129/129 131/131/131 130/130/130
f 129/129/129 128/128/128 132/132/132
f 133/133/133 128/128/128 126/126/126
f 128/128/128 133/133/133 132/132/132
f 126/126/126 134/134/134 133/133/133
f 134/134/134 126/126/126 135/135/135
f 135/135/135 126/126/126 136/136/136
f 135/135/135 136/136/136 137/137/137
f 126/126/126 138/138/138 136/136/136
f 130/130/130 138/138/138 127/127/127
f 127/127/127 138/138/138 126/126/126
f 138/138/138 139/139/139 136/136/136
f 135/135/135 137/137/137 140/140/140
f 141/141/141 134/134/134 135/135/135
f 134/134/134 141/141/141 142/142/142
f 134/134/134 142/142/142 143/143/143
f 133/133/133 134/134/134 143/143/143
f 144/144/144 142/142/142 141/141/141
f 145/145/145 144/144/144 141/141/141
f 141/141/141 135/135/135 145/145/145
f 138/138/138 146/146/146 139/139/139
f 147/147/147 139/139/139 146/146/146
f 147/147/147 146/146/146 148/148/148
f 149/149/149 147/147/147 148/148/148
f 136/136/136 150/150/150 137/137/137
f 151/151/151 138/138/138 130/130/130
f 151/151/151 130/130/130 131/131/131
f 154/154/154 153/153/153 152/152/152
f 154/154/154 155/155/155 153/153/153
f 153/153/153 155/155/155 156/156/156
f 155/155/155 157/157/157 156/156/156
f 155/155/155 154/154/154 158/158/158
f 159/159/159 154/154/154 152/152/152
f 154/154/154 159/159/159 158/158/158
f 152/152/152 160/160/160 159/159/159
f 160/160/160 152/152/152 161/161/161
f 161/161/161 152/152/152 162/162/162
f 161/161/161 162/162/162 163/163/163
f 152/152/152 164/164/164 162/162/162
f 156/156/156 164/164/164 153/153/153
f 153/153/153 164/164/164 152/152/152
f 164/164/164 165/165/165 162/162/162
f 161/161/161 163/163/163 166/166/166
f 167/167/167 160/160/160 161/161/161
f 160/160/160 167/167/167 168/168/168
f 160/160/160 168/168/168 169/169/169
f 159/159/159 160/160/160 169/169/169
f 170/170/170 168/168/168 167/167/167
f 171/171/171 170/170/170 167/167/167
f 167/167/167 161/161/161 171/171/171
f 164/164/164 172/172/172 165/165/165
f 173/173/173 165/165/165 172/172/172
f 173/173/173 172/172/172 174/174/174
f 175/175/175 173/173/173 174/174/174
f 162/162/162 176/176/176 163/163/163
f 177/177/177 164/164/164 156/156/156
f 177/177/177 156/156/156 157/157/157
