g LoginScene_Bridge01_23_Vo
v -1.0950382 2.5156267 -8.14645
v -0.026055297 -2.485716 -8.146669
v -0.026038207 2.5174327 -8.146738
v -1.0950574 -2.4843638 -8.146455
v 4.4746647 -2.4857612 -8.146699
v 4.4762716 2.5174477 -8.146768
v 5.2115197 -2.4843733 -8.146455
v 5.211537 2.5156457 -8.14645
v -4.3235703 2.5156307 -8.14645
v -4.3235717 -2.4843554 -8.146464
v -1.0950382 2.6065843 -8.14645
v -0.026037596 2.6065843 -8.14645
v -1.0950372 2.6065836 -2.956162
v -0.026036376 2.6065829 2.234116
v -1.0950363 2.6065829 2.234116
v -1.0950357 2.606582 7.334946
v -0.026031494 2.606582 7.336333
v -1.0950382 2.6065843 -8.14645
v -0.026038207 2.5174327 -8.146738
v -0.026037596 2.6065843 -8.14645
v -1.0950382 2.5156267 -8.14645
v -1.0950382 2.6065843 -8.14645
v -1.0950372 2.515626 -2.956162
v -1.0950382 2.5156267 -8.14645
v -1.0950372 2.6065836 -2.956162
v -1.0950363 2.515625 2.234116
v -1.0950363 2.6065829 2.234116
v -1.0950354 2.5156243 6.8976903
v -1.0950354 2.5156243 7.32208
v -1.0950357 2.606582 7.334946
v -0.026038207 2.5174327 -8.146738
v -0.026036376 2.519222 2.2335937
v -0.026036376 2.6065829 2.234116
v -0.026031494 2.5192213 7.2929735
v -0.026031494 2.606582 7.336333
v -0.026037596 2.6065843 -8.14645
v 5.211537 2.5156417 2.233501
v 5.2115197 -2.4843743 8.134404
v 5.211537 2.5156393 8.134702
v 5.2115197 -2.4843736 2.233496
v 5.2115197 -2.4843733 -8.146455
v 5.211537 2.5156457 -8.14645
v 4.421028 2.8146408 -8.14645
v 5.6190147 1.7156432 -8.14645
v 5.6190186 2.8146408 -8.14645
v 4.421025 1.7157173 -8.14645
v 4.421028 2.8146408 -8.14645
v 5.593402 2.829115 8.124077
v 4.422777 2.8041537 8.128052
v 5.6190186 2.8146408 -8.14645
v 5.6190186 2.8146408 -8.14645
v 5.5933957 1.7011563 8.124077
v 5.593402 2.829115 8.124077
v 5.6190147 1.7156432 -8.14645
v 4.421025 1.7157173 -8.14645
v 4.422777 2.8041537 8.128052
v 4.422775 1.7261909 8.128052
v 4.421028 2.8146408 -8.14645
v 5.5933957 1.7011563 8.124077
v 4.421025 1.7157173 -8.14645
v 4.422775 1.7261909 8.128052
v 5.6190147 1.7156432 -8.14645
v 4.4733744 2.5192456 2.2334032
v 5.211537 2.5156457 -8.14645
v 5.211537 2.5156417 2.233501
v 4.4762716 2.5174477 -8.146768
v 5.211537 2.5156393 8.134702
v 4.4733744 2.5192428 8.138149
v 5.593402 2.829115 8.124077
v 4.422775 1.7261909 8.128052
v 4.422777 2.8041537 8.128052
v 5.5933957 1.7011563 8.124077
v 5.211537 2.5156393 8.134702
v 4.4733515 -2.4879746 8.138135
v 4.4733744 2.5192428 8.138149
v 5.2115197 -2.4843743 8.134404
v 1.7837906 -2.4877717 8.146758
v 1.7838137 2.5190394 8.146772
v 1.7838137 2.5190394 8.146772
v 1.7915304 -2.4879625 7.331504
v 1.7915536 2.5192301 7.331518
v 1.7837906 -2.4877717 8.146758
v 1.7915536 2.5192301 7.331518
v -0.026054382 -2.487954 7.2929587
v -0.026031494 2.5192213 7.2929735
v 1.7915304 -2.4879625 7.331504
v -1.0950583 -2.4843564 7.3220654
v -1.0950354 2.5156243 7.32208
v -1.0950354 2.5156243 7.32208
v -1.0950583 -2.4843562 6.8976755
v -1.0950354 2.5156243 6.8976903
v -1.0950583 -2.4843564 7.3220654
v -1.0950354 2.5156243 6.8976903
v -2.3384066 -2.4843576 6.8905907
v -2.3384056 2.5156264 6.8906054
v -1.0950583 -2.4843562 6.8976755
v -1.0950354 2.5156243 7.32208
v -0.026031494 2.606582 7.336333
v -0.026031494 2.5192213 7.2929735
v -1.0950357 2.606582 7.334946
v 4.421028 -2.814635 -8.14645
v 5.6190147 -1.7156373 -8.14645
v 4.421025 -1.7157118 -8.14645
v 5.6190186 -2.814635 -8.14645
v 4.421028 -2.814635 -8.14645
v 5.593402 -2.8291142 8.124077
v 5.6190186 -2.814635 -8.14645
v 4.422777 -2.8041527 8.128052
v 5.6190186 -2.814635 -8.14645
v 5.5933957 -1.7011558 8.124077
v 5.6190147 -1.7156373 -8.14645
v 5.593402 -2.8291142 8.124077
v 4.421025 -1.7157118 -8.14645
v 4.422777 -2.8041527 8.128052
v 4.421028 -2.814635 -8.14645
v 4.422775 -1.7261903 8.128052
v 4.421025 -1.7157118 -8.14645
v 5.5933957 -1.7011558 8.124077
v 4.422775 -1.7261903 8.128052
v 5.6190147 -1.7156373 -8.14645
v 5.593402 -2.8291142 8.124077
v 4.422775 -1.7261903 8.128052
v 5.5933957 -1.7011558 8.124077
v 4.422777 -2.8041527 8.128052
v -6.3394113 2.5156283 4.4300585
v -6.3401237 -2.4843552 1.9474707
v -6.3401217 2.5156293 1.9474853
v -6.339413 -2.4843554 4.4300437
v -3.5844455 2.5156288 1.9443896
v -3.592707 -2.4843552 -0.60351074
v -3.592705 2.5156288 -0.6034961
v -3.5844476 -2.484356 1.9443749
v -6.3401217 2.5156293 1.9474853
v -3.5844476 -2.484356 1.9443749
v -3.5844455 2.5156288 1.9443896
v -6.3401237 -2.4843552 1.9474707
v -2.3386817 2.5156271 4.441382
v -6.339413 -2.4843554 4.4300437
v -6.3394113 2.5156283 4.4300585
v -2.3386836 -2.4843569 4.441367
v -2.3384056 2.5156264 6.8906054
v -2.3386836 -2.4843569 4.441367
v -2.3386817 2.5156271 4.441382
v -2.3384066 -2.4843576 6.8905907
v -6.629375 2.5156288 -0.60829103
v -6.6206946 -2.4843538 -3.1031299
v -6.620692 2.5156302 -3.103115
v -6.629377 -2.4843552 -0.60830563
v -6.620692 2.5156302 -3.103115
v -5.13753 -2.4843547 -3.1010497
v -5.137528 2.5156293 -3.101035
v -6.6206946 -2.4843538 -3.1031299
v -4.3222117 2.5156302 -5.598027
v -4.3235717 -2.4843554 -8.146464
v -4.3235703 2.5156307 -8.14645
v -4.3222136 -2.484354 -5.598042
v -5.13807 2.5156314 -5.5973043
v -4.3222136 -2.484354 -5.598042
v -4.3222117 2.5156302 -5.598027
v -5.138072 -2.484353 -5.597319
v -5.137528 2.5156293 -3.101035
v -5.138072 -2.484353 -5.597319
v -5.13807 2.5156314 -5.5973043
v -5.13753 -2.4843547 -3.1010497
v -3.592705 2.5156288 -0.6034961
v -6.629377 -2.4843552 -0.60830563
v -6.629375 2.5156288 -0.60829103
v -3.592707 -2.4843552 -0.60351074
v 4.4733744 2.5192456 2.2334032
v -0.026038207 2.5174327 -8.146738
v 4.4762716 2.5174477 -8.146768
v -0.026036376 2.519222 2.2335937
v 1.7915536 2.5192301 7.331518
v -0.026036376 2.519222 2.2335937
v 4.4733744 2.5192456 2.2334032
v -0.026031494 2.5192213 7.2929735
v 4.4733744 2.5192428 8.138149
v 1.7838137 2.5190394 8.146772
v -1.0950363 2.515625 2.234116
v -3.5844455 2.5156288 1.9443896
v -3.592705 2.5156288 -0.6034961
v -1.0950372 2.515626 -2.956162
v -5.137528 2.5156293 -3.101035
v -4.3222117 2.5156302 -5.598027
v -5.13807 2.5156314 -5.5973043
v -6.629375 2.5156288 -0.60829103
v -6.620692 2.5156302 -3.103115
v -1.0950382 2.5156267 -8.14645
v -4.3235703 2.5156307 -8.14645
v -2.3386817 2.5156271 4.441382
v -1.0950354 2.5156243 6.8976903
v -2.3384056 2.5156264 6.8906054
v -6.3394113 2.5156283 4.4300585
v -6.3401217 2.5156293 1.9474853
vt -0.2564912 0.29121253
vt -0.21771418 0.47184044
vt -0.21770902 0.29121253
vt -0.25649455 0.47184044
vt -0.054471213 0.47184044
vt -0.05440875 0.29121253
vt -0.02773525 0.47184044
vt -0.027733335 0.29121253
vt -0.3735963 0.29121253
vt -0.37359685 0.47184044
vt 5.7761784 0.13121703
vt 5.7761774 0.07436351
vt 5.451989 0.13121703
vt 5.127798 0.07436351
vt 5.1278 0.13121703
vt 4.809488 0.13121703
vt 4.8093987 0.07436351
vt 1.1920712 4.2197227
vt 1.4106367 4.2197227
vt 1.4106367 4.2197227
vt 1.1920712 4.2197227
vt -4.208153 0.06765705
vt -3.8839638 0.05416848
vt -4.208153 0.05416854
vt -3.8839638 0.06765705
vt -3.5597749 0.05416842
vt -3.5597749 0.06765705
vt -3.2687492 0.0541683
vt -3.2422652 0.054168366
vt -3.2414627 0.06765705
vt 5.778326 0.11549447
vt 5.1299458 0.115802445
vt 5.1299477 0.13121703
vt 4.8140755 0.11564931
vt 4.811548 0.13121703
vt 5.7783275 0.13121703
vt 0.34873703 0.29121253
vt 0.5627614 0.47184044
vt 0.56277245 0.29121253
vt 0.34873682 0.47184044
vt -0.02773525 0.47184044
vt -0.027733335 0.29121253
vt 0.6411471 0.90392
vt 0.68705577 0.957825
vt 0.69293064 0.9103238
vt 0.6352729 0.9514181
vt 5.0808268 0.13121703
vt 4.1022367 0.07500113
vt 4.13088 0.1313737
vt 5.0751624 0.07436351
vt 5.069008 0.06765705
vt 4.1106663 0.0031030874
vt 4.1155796 0.067771435
vt 5.0750327 0.002989646
vt -5.4146976 0.002989646
vt -4.4624176 0.067641005
vt -4.4651146 0.0029740043
vt -5.4127192 0.06765705
vt 6.4618263 0.5858032
vt 7.9678755 0.4830414
vt 6.4966245 0.4823598
vt 7.9558306 0.58820885
vt -0.16984925 0.8864402
vt -0.27968153 0.8786226
vt -0.16984078 0.87863046
vt -0.279685 0.8864017
vt -0.10691379 0.87839425
vt -0.107790455 0.8866903
vt 0.8629532 0.8930667
vt 0.77571917 0.8104871
vt 0.7755294 0.89099604
vt 0.86315155 0.8088239
vt 0.56277245 0.29121253
vt 0.58954304 0.47184044
vt 0.58955324 0.29121253
vt 0.5627614 0.47184044
vt 0.68709946 0.47184044
vt 0.68710387 0.29121253
vt 0.68710387 0.29121253
vt 0.7166765 0.47184044
vt 0.7166786 0.29121253
vt 0.68709946 0.47184044
vt 0.7166786 0.29121253
vt 0.7826156 0.47184044
vt 0.7826211 0.29121253
vt 0.7166765 0.47184044
vt 0.8214049 0.47184044
vt 0.8214059 0.29121253
vt 0.8214059 0.29121253
vt 0.83679914 0.47184044
vt 0.83679885 0.29121253
vt 0.8214049 0.47184044
vt 0.83679885 0.29121253
vt 0.8818943 0.47184044
vt 0.88189495 0.29121253
vt 0.83679914 0.47184044
vt 0.8214059 0.29121253
vt 0.78265995 0.29121253
vt 0.7826211 0.29121253
vt 0.8214254 0.29121253
vt 0.6411471 0.90392
vt 0.68705577 0.957825
vt 0.6352729 0.9514181
vt 0.69293064 0.9103238
vt 5.0808268 0.13121703
vt 4.1022367 0.07500113
vt 5.0751624 0.07436351
vt 4.13088 0.1313737
vt 5.069008 0.06765705
vt 4.1106663 0.0031030874
vt 5.0750327 0.002989646
vt 4.1155796 0.067771435
vt -5.4146976 0.002989646
vt -4.4624176 0.067641005
vt -5.4127192 0.06765705
vt -4.4651146 0.0029740043
vt 7.9678755 0.4830414
vt 6.4618263 0.5858032
vt 6.4966245 0.4823598
vt 7.9558306 0.58820885
vt 0.8629532 0.8930667
vt 0.77571917 0.8104871
vt 0.86315155 0.8088239
vt 0.7755294 0.89099604
vt -1.1230468 0.29121253
vt -1.0330013 0.47184044
vt -1.0330021 0.29121253
vt -1.1230462 0.47184044
vt -0.9330498 0.29121253
vt -0.8406307 0.47184044
vt -0.8406324 0.29121253
vt -0.93304884 0.47184044
vt -1.0330021 0.29121253
vt -0.93304884 0.47184044
vt -0.9330498 0.29121253
vt -1.0330013 0.47184044
vt -1.2681499 0.29121253
vt -1.1230462 0.47184044
vt -1.1230468 0.29121253
vt -1.2681494 0.47184044
vt -1.3569797 0.29121253
vt -1.2681494 0.47184044
vt -1.2681499 0.29121253
vt -1.3569793 0.47184044
vt -0.7304867 0.29121253
vt -0.6399897 0.47184044
vt -0.63999087 0.29121253
vt -0.7304851 0.47184044
vt -0.63999087 0.29121253
vt -0.58618426 0.47184044
vt -0.5861855 0.29121253
vt -0.6399897 0.47184044
vt -0.46603528 0.29121253
vt -0.37359685 0.47184044
vt -0.3735963 0.29121253
vt -0.46603456 0.47184044
vt -0.49563742 0.29121253
vt -0.46603456 0.47184044
vt -0.46603528 0.29121253
vt -0.4956367 0.47184044
vt -0.5861855 0.29121253
vt -0.4956367 0.47184044
vt -0.49563742 0.29121253
vt -0.58618426 0.47184044
vt -0.8406324 0.29121253
vt -0.7304851 0.47184044
vt -0.7304867 0.29121253
vt -0.8406307 0.47184044
vt 0.46950883 0.9848068
vt 0.90298516 0.015389716
vt 0.46950907 0.015389716
vt 0.9029849 0.9848068
vt 0.27114737 0.50131905
vt 0.44625482 0.015389716
vt 0.012778748 0.015389716
vt 0.44625476 0.4975838
vt 0.012778621 0.5784304
vt 0.27189305 0.5790398
vt 0.67578495 3.8596046
vt 0.55052406 3.8739307
vt 0.5500617 4.001043
vt 0.67578495 4.118409
vt 0.47259882 4.1255274
vt 0.5134125 4.2501087
vt 0.4724155 4.2501917
vt 0.39793667 4.0013566
vt 0.39801505 4.1256742
vt 0.67578465 4.3772135
vt 0.5134156 4.3773017
vt 0.61310256 3.749307
vt 0.67577887 3.6265304
vt 0.6132618 3.6268787
vt 0.41212997 3.7498472
vt 0.41208816 3.8739543
vn -0.0001302182 -5.3660997E-06 -1
vn -0.00010829568 -7.3275714E-06 -1
vn -0.00013791693 -1.3662202E-05 -1
vn -9.9567675E-05 1.5968141E-06 -1
vn 0.00016228744 -1.371583E-05 -1
vn 0.00020777655 -7.0342403E-06 -1
vn 0.00034066293 -1.2401155E-05 -1
vn 0.0004316598 9.750305E-07 -0.9999999
vn 1.1040739E-06 1.6894679E-06 -1
vn 3.024812E-06 2.9296948E-06 -1
vn -0 1 1.6169304E-07
vn -0 1 1.6181188E-07
vn -0 1 1.6261188E-07
vn -0 1 1.574239E-07
vn -0 1 1.5748601E-07
vn -0 1 1.5140553E-07
vn -0 1 1.5140012E-07
vn -0.000255216 0.00017116882 -1
vn -1.4548958E-05 0.003056939 -0.99999535
vn -0 0.0032313901 -0.99999475
vn -0.00026949108 0 -1
vn -1 0 1.7639236E-07
vn -1 0 1.7639255E-07
vn -1 0 1.7639238E-07
vn -1 0 1.7639258E-07
vn -1 0 1.8635363E-07
vn -1 0 1.8581848E-07
vn -1 -1.0002876E-05 0
vn -1 -3.4419747E-06 1.1840701E-07
vn -1 -3.3720653E-06 1.1965679E-07
vn 1 -6.809032E-06 -1.17912116E-07
vn 1 0 -5.6922596E-07
vn 1 0 -5.7204363E-07
vn 1 4.7099448E-07 -9.570671E-07
vn 1 4.7498258E-07 -9.569982E-07
vn 1 -6.845822E-06 -1.1759617E-07
vn 1 -3.540028E-06 0
vn 1 -3.5400287E-06 0
vn 1 -3.5400292E-06 0
vn 1 -3.540028E-06 0
vn 1 -3.5400265E-06 0
vn 1 -3.5400253E-06 0
vn -0 0 -1
vn -0 0 -1
vn -0 0 -1
vn -0 0 -1
vn -0.00097493676 0.99999917 -0.00081934175
vn -0.020321842 0.99979335 0.00057488366
vn -0.021315955 0.9997726 0.0006465329
vn -0 0.99999964 -0.00088959135
vn 0.9999988 -3.930859E-06 0.0015745127
vn 0.9999988 -4.827799E-06 0.0015744512
vn 0.9999988 -4.8699985E-06 0.0015744484
vn 0.9999988 -3.8875933E-06 0.0015745157
vn -1 2.755468E-06 0.000107488406
vn -1 2.2868107E-06 0.00010751975
vn -1 2.2648337E-06 0.00010752122
vn -1 2.7770432E-06 0.000107486965
vn -0.020384531 -0.99979204 0.0005740557
vn -0.001036877 -0.99999917 -0.00082022307
vn -0.021378683 -0.9997713 0.0006457077
vn -6.190178E-05 -0.99999964 -0.0008904754
vn 0.0024109986 0.99999714 -4.4818527E-05
vn 0.0025603862 0.9999968 -0.00016470205
vn 0.0048820837 0.9999881 4.0125073E-07
vn 0.0012236417 0.9999993 -0.00017285848
vn 0.0048815855 0.9999881 4.564591E-07
vn 0.0024256317 0.99999714 2.235621E-05
vn 0.0033952754 0 0.9999943
vn 0.003395275 0 0.9999943
vn 0.003395271 0 0.9999943
vn 0.0033952796 0 0.9999943
vn 0.0047056847 -8.211738E-06 0.9999889
vn 0.0041106637 -2.8575216E-05 0.99999154
vn 0.0039369296 -2.9434143E-06 0.99999225
vn 0.0050539137 -5.9587273E-05 0.99998724
vn 0.0032061003 -2.940107E-06 0.9999949
vn 0.0032061012 -2.9405394E-06 0.9999949
vn -0.99995494 4.6596097E-06 -0.009493386
vn -0.99995494 4.6598916E-06 -0.009493386
vn -0.99995494 4.659573E-06 -0.009493385
vn -0.99995494 4.6599275E-06 -0.009493386
vn -0.021201901 -2.8276274E-06 0.99977523
vn 0.0029827745 -2.9386035E-06 0.9999956
vn 0.0029826427 -2.9410076E-06 0.9999956
vn -0.021201903 -2.8266143E-06 0.99977523
vn 0.02721754 -3.0494057E-06 0.9996295
vn 0.027217552 -3.053206E-06 0.9996295
vn -1 4.5776546E-06 0
vn -1 4.5776546E-06 0
vn -1 4.5776546E-06 0
vn -1 4.5776546E-06 0
vn -0.0056981146 -2.924574E-06 0.9999838
vn -0.005698184 -2.9074254E-06 0.9999838
vn -0.0056980983 -2.928432E-06 0.9999838
vn -0.005698199 -2.903567E-06 0.9999838
vn 0.00028506553 -0.15807852 0.9874265
vn 0.024461985 -0.428991 0.9029774
vn 0.025876107 -0.44442973 0.89543986
vn -0.0012844187 -0.14005832 0.9901424
vn -0 0 -1
vn -0 0 -1
vn -0 0 -1
vn -0 0 -1
vn -0.00097494945 -0.99999917 -0.0008196632
vn -0.020322107 -0.99979335 0.00057458045
vn -0 -0.99999964 -0.00088991376
vn -0.021316234 -0.9997726 0.00064623065
vn 0.9999988 3.9308575E-06 0.0015745129
vn 0.9999988 4.8278E-06 0.0015744513
vn 0.9999988 3.887593E-06 0.0015745157
vn 0.9999988 4.8699985E-06 0.0015744482
vn -1 -2.7554686E-06 0.000107488406
vn -1 -2.2868114E-06 0.00010751976
vn -1 -2.7770434E-06 0.000107486965
vn -1 -2.264834E-06 0.00010752122
vn -0.0010371143 0.99999917 -0.0008198919
vn -0.020384422 0.99979204 0.0005743617
vn -0.021378553 0.9997713 0.00064601237
vn -6.215653E-05 0.99999964 -0.00089014287
vn 0.0033952752 0 0.9999943
vn 0.003395275 0 0.9999943
vn 0.0033952792 0 0.9999943
vn 0.0033952708 0 0.9999943
vn -1 3.9589133E-07 0.00028617456
vn -1 3.9589142E-07 0.0002861746
vn -1 3.9589136E-07 0.00028617456
vn -1 3.9589142E-07 0.00028617453
vn -0.99999475 3.918086E-07 0.0032416843
vn -0.99999475 3.9791126E-07 0.0032416717
vn -0.99999475 3.8723056E-07 0.0032416931
vn -0.99999475 4.0248932E-07 0.003241663
vn -0.0011233907 2.9301523E-06 -0.9999994
vn -0.0011233907 2.930146E-06 -0.9999994
vn -0.0011233907 2.9301577E-06 -0.9999994
vn -0.0011233907 2.9301407E-06 -0.9999994
vn -0.0028302835 -2.9285623E-06 0.99999607
vn -0.0028302835 -2.9285623E-06 0.99999607
vn -0.0028302833 -2.9285625E-06 0.99999607
vn -0.0028302833 -2.9285625E-06 0.99999607
vn -1 3.4330307E-07 0.00011281003
vn -1 2.6638898E-07 0.000112967056
vn -1 3.963996E-07 0.00011270164
vn -1 2.1329244E-07 0.00011307544
vn -0.9999939 4.0692294E-07 -0.0034800842
vn -0.9999939 4.0692296E-07 -0.003480084
vn -0.9999939 4.0692294E-07 -0.0034800845
vn -0.9999939 4.0692294E-07 -0.0034800842
vn 0.0014024583 2.9291375E-06 -0.99999905
vn 0.0014024583 2.9291375E-06 -0.99999905
vn 0.0014024584 2.9291375E-06 -0.99999905
vn 0.0014024584 2.9291377E-06 -0.99999905
vn -0.9999999 2.7768846E-07 0.00053310295
vn -0.9999999 3.4480044E-07 0.0005329713
vn -0.9999999 2.2732031E-07 0.00053320185
vn -0.9999999 3.9516857E-07 0.00053287245
vn -0.0008857619 2.9300472E-06 -0.99999964
vn -0.00088576187 2.930047E-06 -0.99999964
vn -0.00088576187 2.9300472E-06 -0.99999964
vn -0.0008857618 2.9300465E-06 -0.99999964
vn -1 3.9609378E-07 0.00021709032
vn -1 3.9609378E-07 0.00021709032
vn -1 3.9609375E-07 0.0002170903
vn -1 3.9609375E-07 0.00021709032
vn -0.0015790046 -2.9290666E-06 0.9999988
vn -0.0015790047 -2.9290666E-06 0.9999988
vn -0.0015790047 -2.9290663E-06 0.9999988
vn -0.0015790047 -2.9290668E-06 0.9999988
vn 0.0024109986 0.99999714 -4.4818527E-05
vn -3.8245207E-06 1 -0.00017298986
vn 0.0012236417 0.9999993 -0.00017285848
vn -5.1676852E-06 1 -8.606282E-05
vn -2.410864E-05 1 6.413699E-05
vn -5.1676852E-06 1 -8.606282E-05
vn 0.0024109986 0.99999714 -4.4818527E-05
vn -4.8610077E-06 1 1.6493895E-07
vn 0.0024256317 0.99999714 2.235621E-05
vn -7.487556E-05 1 0.00023321973
vn 1.5140473E-06 1 0
vn 9.455434E-07 1 1.7216031E-07
vn 9.16067E-07 1 0
vn 1.0428671E-06 1 1.2165374E-07
vn 6.411985E-07 1 3.0172907E-07
vn 1.1579141E-06 1 4.551506E-07
vn 1.4695667E-06 1 8.022724E-07
vn 2.3428862E-07 1 2.9833575E-07
vn 6.6684646E-07 1 5.572111E-07
vn 1.1746337E-06 1 1.9523326E-07
vn 1.2090821E-06 1 2.3885696E-07
vn 1.4589182E-06 1 1.9477065E-07
vn 1.797223E-06 1 2.703488E-07
vn 1.7163229E-06 1 3.1130907E-07
vn 2.5286195E-07 1 3.9677957E-07
vn 2.0225484E-07 1 3.4068972E-07
g LoginScene_Bridge01_23_Vo_0
f 3/3/3 2/2/2 1/1/1
f 4/4/4 1/1/1 2/2/2
f 2/2/2 3/3/3 5/5/5
f 6/6/6 5/5/5 3/3/3
f 5/5/5 6/6/6 7/7/7
f 8/8/8 7/7/7 6/6/6
f 1/1/1 4/4/4 9/9/9
f 10/10/10 9/9/9 4/4/4
f 13/13/13 12/12/12 11/11/11
f 14/14/14 12/12/12 13/13/13
f 15/15/15 14/14/14 13/13/13
f 15/15/15 16/16/16 14/14/14
f 17/17/17 14/14/14 16/16/16
f 20/20/20 19/19/19 18/18/18
f 21/21/21 18/18/18 19/19/19
f 24/24/24 23/23/23 22/22/22
f 25/25/25 22/22/22 23/23/23
f 26/26/26 25/25/25 23/23/23
f 27/27/27 25/25/25 26/26/26
f 26/26/26 28/28/28 27/27/27
f 28/28/28 29/29/29 27/27/27
f 29/29/29 30/30/30 27/27/27
f 33/33/33 32/32/32 31/31/31
f 32/32/32 33/33/33 34/34/34
f 35/35/35 34/34/34 33/33/33
f 36/36/36 33/33/33 31/31/31
f 39/39/39 38/38/38 37/37/37
f 40/40/40 37/37/37 38/38/38
f 40/40/40 41/41/41 37/37/37
f 42/42/42 37/37/37 41/41/41
f 45/45/45 44/44/44 43/43/43
f 46/46/46 43/43/43 44/44/44
f 49/49/49 48/48/48 47/47/47
f 50/50/50 47/47/47 48/48/48
f 53/53/53 52/52/52 51/51/51
f 54/54/54 51/51/51 52/52/52
f 57/57/57 56/56/56 55/55/55
f 58/58/58 55/55/55 56/56/56
f 61/61/61 60/60/60 59/59/59
f 62/62/62 59/59/59 60/60/60
f 65/65/65 64/64/64 63/63/63
f 66/66/66 63/63/63 64/64/64
f 65/65/65 63/63/63 67/67/67
f 68/68/68 67/67/67 63/63/63
f 71/71/71 70/70/70 69/69/69
f 72/72/72 69/69/69 70/70/70
f 75/75/75 74/74/74 73/73/73
f 76/76/76 73/73/73 74/74/74
f 74/74/74 75/75/75 77/77/77
f 78/78/78 77/77/77 75/75/75
f 81/81/81 80/80/80 79/79/79
f 82/82/82 79/79/79 80/80/80
f 85/85/85 84/84/84 83/83/83
f 86/86/86 83/83/83 84/84/84
f 84/84/84 85/85/85 87/87/87
f 88/88/88 87/87/87 85/85/85
f 91/91/91 90/90/90 89/89/89
f 92/92/92 89/89/89 90/90/90
f 95/95/95 94/94/94 93/93/93
f 96/96/96 93/93/93 94/94/94
f 99/99/99 98/98/98 97/97/97
f 100/100/100 97/97/97 98/98/98
f 103/103/103 102/102/102 101/101/101
f 104/104/104 101/101/101 102/102/102
f 107/107/107 106/106/106 105/105/105
f 108/108/108 105/105/105 106/106/106
f 111/111/111 110/110/110 109/109/109
f 112/112/112 109/109/109 110/110/110
f 115/115/115 114/114/114 113/113/113
f 116/116/116 113/113/113 114/114/114
f 119/119/119 118/118/118 117/117/117
f 120/120/120 117/117/117 118/118/118
f 123/123/123 122/122/122 121/121/121
f 124/124/124 121/121/121 122/122/122
f 127/127/127 126/126/126 125/125/125
f 128/128/128 125/125/125 126/126/126
f 131/131/131 130/130/130 129/129/129
f 132/132/132 129/129/129 130/130/130
f 135/135/135 134/134/134 133/133/133
f 136/136/136 133/133/133 134/134/134
f 139/139/139 138/138/138 137/137/137
f 140/140/140 137/137/137 138/138/138
f 143/143/143 142/142/142 141/141/141
f 144/144/144 141/141/141 142/142/142
f 147/147/147 146/146/146 145/145/145
f 148/148/148 145/145/145 146/146/146
f 151/151/151 150/150/150 149/149/149
f 152/152/152 149/149/149 150/150/150
f 155/155/155 154/154/154 153/153/153
f 156/156/156 153/153/153 154/154/154
f 159/159/159 158/158/158 157/157/157
f 160/160/160 157/157/157 158/158/158
f 163/163/163 162/162/162 161/161/161
f 164/164/164 161/161/161 162/162/162
f 167/167/167 166/166/166 165/165/165
f 168/168/168 165/165/165 166/166/166
g LoginScene_Bridge01_23_Vo_1
f 171/171/171 170/170/170 169/169/169
f 172/172/172 169/169/169 170/170/170
f 175/175/175 174/174/174 173/173/173
f 176/176/176 173/173/173 174/174/174
f 175/175/175 173/173/173 177/177/177
f 177/177/177 173/173/173 178/178/178
g LoginScene_Bridge01_23_Vo_2
f 181/181/181 180/180/180 179/179/179
f 182/182/182 181/181/181 179/179/179
f 182/182/182 183/183/183 181/181/181
f 182/182/182 184/184/184 183/183/183
f 185/185/185 183/183/183 184/184/184
f 181/181/181 183/183/183 186/186/186
f 187/187/187 186/186/186 183/183/183
f 188/188/188 184/184/184 182/182/182
f 188/188/188 189/189/189 184/184/184
f 179/179/179 180/180/180 190/190/190
f 191/191/191 179/179/179 190/190/190
f 191/191/191 190/190/190 192/192/192
f 190/190/190 180/180/180 193/193/193
f 180/180/180 194/194/194 193/193/193
