g LoginScene_Bridge01_14_Vo
v -2.2203472 2.5156248 -5.5001664
v -2.2203472 -2.4843807 2.120152
v -2.2203472 -2.4843802 -5.5001664
v -2.2203472 2.5156226 2.120152
v -2.2203472 2.5156226 2.120152
v -2.2203472 2.5156248 -5.5001664
v -1.6584625 2.5195787 1.2921442
v -1.6596966 2.519563 2.1201532
v -1.6584674 2.5195906 -5.5032163
v -2.8121185 2.827211 2.11513
v -1.6373901 2.8087206 -5.5056577
v -1.6379406 2.8054144 2.1215825
v -2.8201256 2.8226886 -5.508336
v -2.8201208 1.7075535 -5.508336
v -2.8121185 2.827211 2.11513
v -2.8121135 1.7030269 2.11513
v -2.8201256 2.8226886 -5.508336
v -1.6379406 2.8054144 2.1215825
v -1.6373882 1.7215948 -5.5056577
v -1.6379381 1.7248968 2.1215825
v -1.6373901 2.8087206 -5.5056577
v -1.6373882 1.7215948 -5.5056577
v -2.8121135 1.7030269 2.11513
v -1.6379381 1.7248968 2.1215825
v -2.8201208 1.7075535 -5.508336
v -2.8201256 2.8226886 -5.508336
v -1.6373882 1.7215948 -5.5056577
v -1.6373901 2.8087206 -5.5056577
v -2.8201208 1.7075535 -5.508336
v -1.6379406 2.8054144 2.1215825
v -2.8121135 1.7030269 2.11513
v -2.8121185 2.827211 2.11513
v -1.6379381 1.7248968 2.1215825
v -1.6584674 2.5195906 -5.5032163
v -2.2203472 -2.4843802 -5.5001664
v -1.6584674 -2.488347 -5.5032163
v -2.2203472 2.5156248 -5.5001664
v 1.8480994 2.519582 -5.5222535
v 1.8480994 -2.4883385 -5.5222535
v 2.8201253 2.5195796 -5.49588
v 2.8201253 -2.488336 -5.49588
v 2.8194885 2.519568 1.2960773
v 2.8201253 -2.488336 -5.49588
v 2.8194885 -2.488327 1.2960773
v 2.8201253 2.5195796 -5.49588
v 2.8173854 2.519488 5.5222526
v 2.8173854 -2.4882483 5.5222516
v 1.7920532 2.5194905 5.5219464
v 2.8173854 -2.4882483 5.5222516
v 1.7920532 -2.4882503 5.521945
v 2.8173854 2.519488 5.5222526
v 1.780877 2.5195067 4.6706595
v 1.7920532 -2.4882503 5.521945
v 1.780877 -2.4882665 4.6706595
v 1.7920532 2.5194905 5.5219464
v 2.5476923 2.5195053 4.6456547
v 1.780877 -2.4882665 4.6706595
v 2.5476923 -2.4882655 4.6456547
v 1.780877 2.5195067 4.6706595
v 2.5560312 2.5195205 3.837161
v 2.5476923 -2.4882655 4.6456547
v 2.5560312 -2.4882796 3.837161
v 2.5476923 2.5195053 4.6456547
v 1.780877 2.5195227 3.8204913
v 2.5560312 -2.4882796 3.837161
v 1.780877 -2.4882817 3.8204913
v 2.5560312 2.5195205 3.837161
v 1.7725378 2.5195549 2.120152
v 1.780877 -2.4882817 3.8204913
v 1.7725378 -2.4883134 2.120152
v 1.780877 2.5195227 3.8204913
v -1.6596966 2.519563 2.1201532
v 1.7725378 -2.4883134 2.120152
v -1.6596966 -2.4883225 2.1201532
v 1.7725378 2.5195549 2.120152
v -2.2203472 2.5156226 2.120152
v -2.2203472 -2.4843807 2.120152
v -2.8121185 -2.827211 2.11513
v -1.6373901 -2.808718 -5.5056577
v -2.8201256 -2.8226857 -5.508336
v -1.6379406 -2.805414 2.1215825
v -2.8201208 -1.7075509 -5.5083356
v -2.8121185 -2.827211 2.11513
v -2.8201256 -2.8226857 -5.508336
v -2.8121135 -1.7030267 2.11513
v -1.6379406 -2.805414 2.1215825
v -1.6373882 -1.7215924 -5.5056577
v -1.6373901 -2.808718 -5.5056577
v -1.6379381 -1.7248968 2.1215825
v -1.6373882 -1.7215924 -5.5056577
v -2.8121135 -1.7030267 2.11513
v -2.8201208 -1.7075509 -5.5083356
v -1.6379381 -1.7248968 2.1215825
v -2.8201256 -2.8226857 -5.508336
v -1.6373882 -1.7215924 -5.5056577
v -2.8201208 -1.7075509 -5.5083356
v -1.6373901 -2.808718 -5.5056577
v -1.6379406 -2.805414 2.1215825
v -2.8121135 -1.7030267 2.11513
v -1.6379381 -1.7248968 2.1215825
v -2.8121185 -2.827211 2.11513
v 1.780877 2.5195227 3.8204913
v 1.7725378 2.5195549 2.120152
v 2.5560312 2.5195205 3.837161
v 2.8194885 2.519568 1.2960773
v -1.6584625 2.5195787 1.2921442
v -1.6596966 2.519563 2.1201532
v 2.8173854 2.519488 5.5222526
v 2.5476923 2.5195053 4.6456547
v 1.7920532 2.5194905 5.5219464
v 1.780877 2.5195067 4.6706595
v 1.8480994 2.519582 -5.5222535
v 2.8201253 2.5195796 -5.49588
v 2.8194885 2.519568 1.2960773
v -1.6584625 2.5195787 1.2921442
v -1.6584674 2.5195906 -5.5032163
vt 3.3713496 0.29121253
vt 3.6502676 0.47184044
vt 3.3719625 0.47184044
vt 3.6545832 0.29121253
vt 0.74791825 0.863894
vt 0.6673697 0.8639109
vt 0.7391372 0.8698554
vt 0.74788225 0.8698591
vt 0.66719294 0.86985576
vt -0.84548193 0.073736735
vt -0.37549046 0.13132073
vt -0.8224083 0.13001469
vt -0.3901613 0.07446764
vt -0.38681188 0.0029945343
vt -0.838172 0.067600824
vt -0.8400501 0.0029372657
vt -0.3860412 0.06766243
vt 0.49013007 0.06771883
vt 0.04286243 0.0029852765
vt 0.4890007 0.0030472972
vt 0.043556053 0.06765231
vt -0.48982653 0.48451614
vt -1.2109042 0.5862825
vt -1.1814921 0.4855959
vt -0.5085122 0.587267
vt 0.3289572 0.7653111
vt 0.37667993 0.80963725
vt 0.37662977 0.76581955
vt 0.32900876 0.8102577
vt 0.3167317 0.84125155
vt 0.26927918 0.79695207
vt 0.26940674 0.84226346
vt 0.31660903 0.79770017
vt 1.0507047 0.47184044
vt 1.0708925 0.29121253
vt 1.0506761 0.29121253
vt 1.0709234 0.47184044
vt 0.92452836 0.47184044
vt 0.924507 0.29121253
vt 0.88953394 0.47184044
vt 0.8895259 0.29121253
vt 0.6451461 0.47184044
vt 0.8895259 0.29121253
vt 0.645146 0.29121253
vt 0.88953394 0.47184044
vt 0.49308348 0.47184044
vt 0.49308202 0.29121253
vt 0.45619065 0.47184044
vt 0.49308202 0.29121253
vt 0.45618945 0.29121253
vt 0.49308348 0.47184044
vt 0.42555764 0.47184044
vt 0.45618945 0.29121253
vt 0.42555675 0.29121253
vt 0.45619065 0.47184044
vt 0.39795214 0.47184044
vt 0.42555675 0.29121253
vt 0.39795125 0.29121253
vt 0.42555764 0.47184044
vt 0.36886007 0.47184044
vt 0.39795125 0.29121253
vt 0.36885938 0.29121253
vt 0.39795214 0.47184044
vt 0.34096274 0.47184044
vt 0.36885938 0.29121253
vt 0.34096208 0.29121253
vt 0.36886007 0.47184044
vt 0.27978227 0.47184044
vt 0.34096208 0.29121253
vt 0.2797803 0.29121253
vt 0.34096274 0.47184044
vt 0.15628684 0.47184044
vt 0.2797803 0.29121253
vt 0.15628302 0.29121253
vt 0.27978227 0.47184044
vt 0.13611397 0.47184044
vt 0.13611 0.29121253
vt -0.84548193 0.073736735
vt -0.37549046 0.13132073
vt -0.3901613 0.07446764
vt -0.8224083 0.13001469
vt -0.38681188 0.0029945343
vt -0.838172 0.067600824
vt -0.3860412 0.06766243
vt -0.8400501 0.0029372657
vt 0.49013007 0.06771883
vt 0.04286243 0.0029852765
vt 0.043556053 0.06765231
vt 0.4890007 0.0030472972
vt -0.48982653 0.48451614
vt -1.2109042 0.5862825
vt -0.5085122 0.587267
vt -1.1814921 0.4855959
vt 0.3289572 0.7653111
vt 0.37667993 0.80963725
vt 0.32900876 0.8102577
vt 0.37662977 0.76581955
vt 0.3167317 0.84125155
vt 0.26927918 0.79695207
vt 0.31660903 0.79770017
vt 0.26940674 0.84226346
vt 0.3458646 0.25644833
vt 0.34495908 0.09413897
vt 0.42091027 0.25796908
vt 0.44625482 0.015389716
vt 0.012778748 0.015389716
vt 0.01277873 0.094380096
vt 0.4462548 0.41883814
vt 0.42015606 0.33514223
vt 0.34719172 0.41876265
vt 0.3459027 0.337611
vt 0.80891067 0.33471486
vt 0.9029851 0.33724272
vt 0.9029849 0.9848068
vt 0.46950883 0.9848068
vt 0.46950898 0.3366262
vn -1 0 0
vn -1 0 0
vn -1 0 0
vn -1 0 0
vn -0.007032711 0.9999753 5.3620793E-06
vn -0.0070571387 0.9999751 1.6919796E-06
vn -0.0035163513 0.9999938 6.1086253E-06
vn -0.0035162505 0.9999938 1.3700167E-05
vn -0.0035156326 0.9999938 1.7669648E-06
vn 0.017898872 0.9998398 0.00033318312
vn 0.012466134 0.99992216 -0.00050446234
vn 0.018557625 0.99982774 0.00043475724
vn 0.011810254 0.99993014 -0.00060558424
vn -0.9999995 -4.375387E-06 0.0010503378
vn -0.9999995 -4.346685E-06 0.0010503335
vn -0.9999995 -4.343425E-06 0.0010503331
vn -0.9999995 -4.3786717E-06 0.0010503384
vn 1 2.2076488E-06 7.210674E-05
vn 1 1.7358491E-06 7.217379E-05
vn 1 2.2594788E-06 7.209938E-05
vn 1 1.6843079E-06 7.218111E-05
vn 0.012528411 -0.99992144 -0.00050508353
vn 0.017961413 -0.9998386 0.0003326013
vn 0.01862019 -0.9998266 0.00043417964
vn 0.011872504 -0.9999293 -0.0006062096
vn 0.00226417 0 -0.9999975
vn 0.0022641697 0 -0.9999975
vn 0.002264167 0 -0.9999975
vn 0.0022641728 0 -0.9999975
vn -0.005495374 0 0.999985
vn -0.0054953736 0 0.999985
vn -0.005495369 0 0.999985
vn -0.005495379 0 0.999985
vn -0.0054283943 0 -0.99998534
vn -0.0054285 0 -0.99998534
vn -0.0054286183 0 -0.99998534
vn -0.005427997 0 -0.99998534
vn 0.010848051 0 -0.99994123
vn 0.010847937 0 -0.99994123
vn 0.027121954 0 -0.9996321
vn 0.027121676 0 -0.9996321
vn 1 0 0.00029568767
vn 1 0 9.377294E-05
vn 1 0 0.00029568773
vn 1 0 9.377294E-05
vn 0.9999999 0 0.000497605
vn 0.9999999 0 0.0004976051
vn -0.0002988265 -2.4376342E-07 1
vn -0.00029882655 -2.4376328E-07 1
vn -0.00029882655 -2.4376328E-07 1
vn -0.00029882655 -2.4376348E-07 1
vn -0.9999138 0 0.013127405
vn -0.9999138 0 0.013127419
vn -0.9999138 0 0.013127423
vn -0.9999138 0 0.013127405
vn -0.03259142 0 -0.99946874
vn -0.03259142 0 -0.99946874
vn -0.03259142 0 -0.99946874
vn -0.03259142 0 -0.99946874
vn -0.99994683 0 -0.010313606
vn -0.99994683 0 -0.010313606
vn -0.99994683 0 -0.010313607
vn -0.99994683 0 -0.010313607
vn -0.021500327 0 0.9997688
vn -0.021500325 0 0.9997688
vn -0.021500327 0 0.9997688
vn -0.021500327 0 0.9997688
vn -0.99998796 0 0.004904394
vn -0.99998796 0 0.004904393
vn -0.99998796 0 0.004904393
vn -0.99998796 0 0.004904394
vn -9.079808E-07 0 1
vn 3.5565841E-07 0 1
vn -9.0797994E-07 0 1
vn 3.5565841E-07 0 1
vn -2.1772976E-06 0 1
vn -2.1772973E-06 0 1
vn 0.017899165 -0.9998398 0.00033284962
vn 0.012466266 -0.99992216 -0.0005048198
vn 0.011810369 -0.99993014 -0.00060594466
vn 0.018557934 -0.9998276 0.00043442714
vn -0.9999995 4.374867E-06 0.0010503379
vn -0.9999995 4.3466316E-06 0.0010503336
vn -0.9999995 4.3780974E-06 0.0010503384
vn -0.9999995 4.343425E-06 0.0010503334
vn 1 -2.2076515E-06 7.210675E-05
vn 1 -1.7358678E-06 7.217378E-05
vn 1 -1.6843289E-06 7.218111E-05
vn 1 -2.2594793E-06 7.209939E-05
vn 0.012528483 0.99992144 -0.00050476217
vn 0.017961532 0.9998386 0.00033293042
vn 0.011872568 0.9999293 -0.00060588936
vn 0.018620316 0.9998266 0.00043450968
vn 0.0022640356 4.1411968E-07 -0.9999975
vn 0.002264047 4.02257E-07 -0.9999975
vn 0.002263921 5.3741996E-07 -0.9999975
vn 0.0022641637 2.7690382E-07 -0.9999975
vn -0.005495374 0 0.999985
vn -0.0054953736 0 0.999985
vn -0.0054953797 0 0.999985
vn -0.005495368 0 0.999985
vn 2.3395614E-06 1 1.8929732E-05
vn 2.3488074E-06 1 1.8928546E-05
vn 2.3404218E-06 1 1.8926114E-05
vn 2.3616403E-06 1 1.0324794E-05
vn -0.0035163513 0.9999938 6.1086253E-06
vn -0.0035162505 0.9999938 1.3700167E-05
vn 2.3324787E-06 1 1.8925733E-05
vn 2.3316768E-06 1 1.8926756E-05
vn 2.3338644E-06 1 1.892754E-05
vn 2.336273E-06 1 1.8929617E-05
vn 2.439123E-06 1 1.7280446E-06
vn 2.456839E-06 1 1.7044408E-06
vn 2.3616403E-06 1 1.0324794E-05
vn -0.0035163513 0.9999938 6.1086253E-06
vn -0.0035156326 0.9999938 1.7669648E-06
g LoginScene_Bridge01_14_Vo_0
f 3/3/3 2/2/2 1/1/1
f 4/4/4 1/1/1 2/2/2
f 7/7/7 6/6/6 5/5/5
f 8/8/8 7/7/7 5/5/5
f 9/9/9 6/6/6 7/7/7
f 12/12/12 11/11/11 10/10/10
f 13/13/13 10/10/10 11/11/11
f 16/16/16 15/15/15 14/14/14
f 17/17/17 14/14/14 15/15/15
f 20/20/20 19/19/19 18/18/18
f 21/21/21 18/18/18 19/19/19
f 24/24/24 23/23/23 22/22/22
f 25/25/25 22/22/22 23/23/23
f 28/28/28 27/27/27 26/26/26
f 29/29/29 26/26/26 27/27/27
f 32/32/32 31/31/31 30/30/30
f 33/33/33 30/30/30 31/31/31
f 36/36/36 35/35/35 34/34/34
f 37/37/37 34/34/34 35/35/35
f 34/34/34 38/38/38 36/36/36
f 39/39/39 36/36/36 38/38/38
f 38/38/38 40/40/40 39/39/39
f 41/41/41 39/39/39 40/40/40
f 44/44/44 43/43/43 42/42/42
f 45/45/45 42/42/42 43/43/43
f 42/42/42 46/46/46 44/44/44
f 47/47/47 44/44/44 46/46/46
f 50/50/50 49/49/49 48/48/48
f 51/51/51 48/48/48 49/49/49
f 54/54/54 53/53/53 52/52/52
f 55/55/55 52/52/52 53/53/53
f 58/58/58 57/57/57 56/56/56
f 59/59/59 56/56/56 57/57/57
f 62/62/62 61/61/61 60/60/60
f 63/63/63 60/60/60 61/61/61
f 66/66/66 65/65/65 64/64/64
f 67/67/67 64/64/64 65/65/65
f 70/70/70 69/69/69 68/68/68
f 71/71/71 68/68/68 69/69/69
f 74/74/74 73/73/73 72/72/72
f 75/75/75 72/72/72 73/73/73
f 72/72/72 76/76/76 74/74/74
f 77/77/77 74/74/74 76/76/76
f 80/80/80 79/79/79 78/78/78
f 81/81/81 78/78/78 79/79/79
f 84/84/84 83/83/83 82/82/82
f 85/85/85 82/82/82 83/83/83
f 88/88/88 87/87/87 86/86/86
f 89/89/89 86/86/86 87/87/87
f 92/92/92 91/91/91 90/90/90
f 93/93/93 90/90/90 91/91/91
f 96/96/96 95/95/95 94/94/94
f 97/97/97 94/94/94 95/95/95
f 100/100/100 99/99/99 98/98/98
f 101/101/101 98/98/98 99/99/99
g LoginScene_Bridge01_14_Vo_1
f 104/104/104 103/103/103 102/102/102
f 105/105/105 103/103/103 104/104/104
f 105/105/105 106/106/106 103/103/103
f 107/107/107 103/103/103 106/106/106
f 105/105/105 104/104/104 108/108/108
f 109/109/109 108/108/108 104/104/104
f 110/110/110 108/108/108 109/109/109
f 111/111/111 110/110/110 109/109/109
f 114/114/114 113/113/113 112/112/112
f 115/115/115 114/114/114 112/112/112
f 116/116/116 115/115/115 112/112/112
