g LoginScene_Bridge01_01_Vo
v 2.1571856 2.5174098 4.968916
v -1.6913403 2.5178626 4.9710693
v 1.6170404 2.5175607 4.1625633
v 2.1576314 2.51756 4.1625633
v -1.6820953 2.5187263 0.42159668
v 1.6188275 2.517711 3.3987498
v 1.9202209 2.518012 2.5015137
v 1.933291 2.5184605 0.031391602
v 2.8225234 2.6065722 2.5009618
v 2.822522 2.5178566 3.397456
v 2.153978 2.5186107 -1.114707
v 2.822522 2.518455 0.03137207
v 2.822521 2.5186057 -1.1147168
v 2.1539948 2.5187612 -2.476709
v -1.6768615 2.519214 -4.9676366
v 1.8210882 2.5189095 -3.3068945
v 1.822185 2.5192125 -4.968906
v 2.8225207 2.5189056 -3.3096385
v 2.8225281 2.5187597 -2.4735253
v -1.6913403 2.5178626 4.9710693
v -2.439907 2.515616 4.972988
v -1.6820953 2.5187263 0.42159668
v -2.439906 2.5156176 -4.9676366
v -1.6768615 2.519214 -4.9676366
v -2.439906 2.5156176 -4.9676366
v -2.4399157 -2.4843836 4.968916
v -2.4399164 -2.4843822 -4.9704294
v -2.439907 2.515616 4.972988
v -1.6913495 -2.4866316 4.9669824
v -2.439907 2.515616 4.972988
v -1.6913403 2.5178626 4.9710693
v -2.4399157 -2.4843836 4.968916
v -2.8147113 2.819031 -4.9691405
v -1.6245385 2.8146093 4.968916
v -2.8225286 2.8146093 4.968916
v -1.6250799 2.811368 -4.9691405
v -2.8147075 1.7111956 -4.9691405
v -2.8225286 2.8146093 4.968916
v -2.822525 1.7156117 4.968916
v -2.8147113 2.819031 -4.9691405
v -1.6250799 2.811368 -4.9691405
v -1.6245354 1.7156858 4.968916
v -1.6245385 2.8146093 4.968916
v -1.6250769 1.7189326 -4.9691405
v -1.6250769 1.7189326 -4.9691405
v -2.822525 1.7156117 4.968916
v -1.6245354 1.7156858 4.968916
v -2.8147075 1.7111956 -4.9691405
v -2.8225286 2.8146093 4.968916
v -1.6245354 1.7156858 4.968916
v -2.822525 1.7156117 4.968916
v -1.6245385 2.8146093 4.968916
v -2.8147113 2.819031 -4.9691405
v -1.6250769 1.7189326 -4.9691405
v -1.6250799 2.811368 -4.9691405
v -2.8147075 1.7111956 -4.9691405
v -2.439906 2.5156176 -4.9676366
v -1.6768695 -2.4879775 -4.971719
v -1.6768615 2.519214 -4.9676366
v -2.4399164 -2.4843822 -4.9704294
v 1.8221765 -2.4866295 -4.972993
v 1.822185 2.5192125 -4.968906
v -2.8147106 -2.8190317 -4.9691405
v -1.6245373 -2.8146126 4.968916
v -1.6250793 -2.8113687 -4.9691405
v -2.8225281 -2.8146126 4.968916
v -2.8147063 -1.7111958 -4.9691405
v -2.8225281 -2.8146126 4.968916
v -2.8147106 -2.8190317 -4.9691405
v -2.8225238 -1.7156154 4.968916
v -1.6250793 -2.8113687 -4.9691405
v -1.6245342 -1.7156895 4.968916
v -1.6250763 -1.7189332 -4.9691405
v -1.6245373 -2.8146126 4.968916
v -1.6250763 -1.7189332 -4.9691405
v -2.8225238 -1.7156154 4.968916
v -2.8147063 -1.7111958 -4.9691405
v -1.6245342 -1.7156895 4.968916
v -2.8225281 -2.8146126 4.968916
v -1.6245342 -1.7156895 4.968916
v -1.6245373 -2.8146126 4.968916
v -2.8225238 -1.7156154 4.968916
v -2.8147106 -2.8190317 -4.9691405
v -1.6250763 -1.7189332 -4.9691405
v -2.8147063 -1.7111958 -4.9691405
v -1.6250793 -2.8113687 -4.9691405
v 2.1571856 2.5174098 4.968916
v -1.6913495 -2.4866316 4.9669824
v -1.6913403 2.5178626 4.9710693
v 2.1571765 -2.4870849 4.964824
v 2.822522 2.518455 0.03137207
v 1.9332818 -2.486034 0.027299805
v 1.933291 2.5184605 0.031391602
v 2.8225129 -2.4860396 0.027280273
v 2.822521 2.5186057 -1.1147168
v 2.8225129 -2.4860396 0.027280273
v 2.822522 2.518455 0.03137207
v 2.822512 -2.4858887 -1.1188086
v 2.153978 2.5186107 -1.114707
v 2.822512 -2.4858887 -1.1188086
v 2.822521 2.5186057 -1.1147168
v 2.153969 -2.485884 -1.1187989
v 1.9202209 2.518012 2.5015137
v 2.8225143 -2.3979225 2.49687
v 2.8225234 2.6065722 2.5009618
v 1.9202118 -2.4864833 2.4974217
v 2.822522 2.5178566 3.397456
v 1.6188183 -2.4867837 3.394658
v 1.6188275 2.517711 3.3987498
v 2.8225129 -2.486638 3.3933642
v 1.6188275 2.517711 3.3987498
v 1.6170312 -2.4869337 4.1584716
v 1.6170404 2.5175607 4.1625633
v 1.6188183 -2.4867837 3.394658
v 2.8225207 2.5189056 -3.3096385
v 2.8225188 -2.4857352 -2.477617
v 2.8225281 2.5187597 -2.4735253
v 2.8225114 -2.485589 -3.3137305
v 2.8225281 2.5187597 -2.4735253
v 2.1539855 -2.485734 -2.4808006
v 2.1539948 2.5187612 -2.476709
v 2.8225188 -2.4857352 -2.477617
v 1.822185 2.5192125 -4.968906
v 1.821079 -2.4855855 -3.3109863
v 1.8210882 2.5189095 -3.3068945
v 1.8221765 -2.4866295 -4.972993
v 1.8210882 2.5189095 -3.3068945
v 2.8225114 -2.485589 -3.3137305
v 2.8225207 2.5189056 -3.3096385
v 1.821079 -2.4855855 -3.3109863
v 2.1539948 2.5187612 -2.476709
v 2.153969 -2.485884 -1.1187989
v 2.153978 2.5186107 -1.114707
v 2.1539855 -2.485734 -2.4808006
v 1.933291 2.5184605 0.031391602
v 1.9202118 -2.4864833 2.4974217
v 1.9202209 2.518012 2.5015137
v 1.9332818 -2.486034 0.027299805
v 2.8225234 2.6065722 2.5009618
v 2.8225129 -2.486638 3.3933642
v 2.822522 2.5178566 3.397456
v 2.8225143 -2.3979225 2.49687
v 2.1576314 2.51756 4.1625633
v 2.1571765 -2.4870849 4.964824
v 2.1571856 2.5174098 4.968916
v 2.1576223 -2.486935 4.1584716
v 1.6170404 2.5175607 4.1625633
v 2.1576223 -2.486935 4.1584716
v 2.1576314 2.51756 4.1625633
v 1.6170312 -2.4869337 4.1584716
vt 0.83920085 0.015501636
vt 0.4695086 0.015389726
vt 0.7872745 0.09413148
vt 0.8391513 0.094128855
vt 0.46926588 0.4592775
vt 0.7870556 0.16861215
vt 0.8160579 0.2562149
vt 0.8173851 0.49711648
vt 0.90311766 0.2563538
vt 0.9029517 0.16885467
vt 0.8386674 0.60901576
vt 0.90259147 0.4972084
vt 0.9028414 0.6090505
vt 0.83862376 0.741769
vt 0.46950883 0.9848068
vt 0.8063556 0.82280934
vt 0.8065685 0.98486626
vt 0.9029591 0.8231557
vt 0.90277755 0.74155986
vt 0.68771774 0.8603558
vt 0.68781847 0.8370778
vt 0.8297628 0.860341
vt 0.9977085 0.8370305
vt 0.9978666 0.86030906
vt 6.5161433 0.29121253
vt 6.1543503 0.47184044
vt 6.516202 0.47184044
vt 6.154202 0.29121253
vt 6.127093 0.47184044
vt 6.154202 0.29121253
vt 6.126944 0.29121253
vt 6.1543503 0.47184044
vt -4.818223 0.07436351
vt -5.41372 0.13121703
vt -5.4080524 0.07436351
vt -4.831022 0.13121703
vt -4.8213673 0.002989646
vt -5.4054885 0.06765705
vt -5.4083924 0.002989646
vt -4.8208675 0.06765705
vt 4.499321 0.06765705
vt 5.0838666 0.002989646
vt 5.0818276 0.06765705
vt 4.501563 0.002989646
vt -7.3994074 0.48480126
vt -8.290579 0.58820885
vt -8.301995 0.4830414
vt -7.380673 0.58846956
vt 0.11750509 0.8862199
vt 0.19209042 0.81780094
vt 0.11750449 0.81779724
vt 0.19209108 0.8862191
vt 0.19965312 0.7790101
vt 0.2737184 0.8475011
vt 0.27371874 0.7794878
vt 0.19965279 0.8479821
vt 6.5161433 0.29121253
vt 6.5439644 0.47184044
vt 6.543991 0.29121253
vt 6.516202 0.47184044
vt 6.671329 0.47184044
vt 6.671438 0.29121253
vt -4.818223 0.07436351
vt -5.41372 0.13121703
vt -4.831022 0.13121703
vt -5.4080524 0.07436351
vt -4.8213673 0.002989646
vt -5.4054885 0.06765705
vt -4.8208675 0.06765705
vt -5.4083924 0.002989646
vt 4.499321 0.06765705
vt 5.0838666 0.002989646
vt 4.501563 0.002989646
vt 5.0818276 0.06765705
vt -7.3994074 0.48480126
vt -8.290579 0.58820885
vt -7.380673 0.58846956
vt -8.301995 0.4830414
vt 0.11750509 0.8862199
vt 0.19209042 0.81780094
vt 0.19209108 0.8862191
vt 0.11750449 0.81779724
vt 0.19965312 0.7790101
vt 0.2737184 0.8475011
vt 0.19965279 0.8479821
vt 0.27371874 0.7794878
vt 7.246785 0.29121253
vt 7.3867435 0.47184044
vt 7.386892 0.29121253
vt 7.2466364 0.47184044
vt 6.9386997 0.29121253
vt 6.9708624 0.47184044
vt 6.971011 0.29121253
vt 6.938551 0.47184044
vt 6.8970275 0.29121253
vt 6.938551 0.47184044
vt 6.9386997 0.29121253
vt 6.8968782 0.47184044
vt 6.8727303 0.29121253
vt 6.8968782 0.47184044
vt 6.8970275 0.29121253
vt 6.8725815 0.47184044
vt 7.06087 0.29121253
vt 7.093508 0.47184044
vt 7.0936575 0.29121253
vt 7.06072 0.47184044
vt 7.1262393 0.29121253
vt 7.1698675 0.47184044
vt 7.170016 0.29121253
vt 7.126091 0.47184044
vt 7.170016 0.29121253
vt 7.1976395 0.47184044
vt 7.1977882 0.29121253
vt 7.1698675 0.47184044
vt 6.7684326 0.29121253
vt 6.7987113 0.47184044
vt 6.7988605 0.29121253
vt 6.7682834 0.47184044
vt 6.7988605 0.29121253
vt 6.823028 0.47184044
vt 6.823177 0.29121253
vt 6.7987113 0.47184044
vt 6.671438 0.29121253
vt 6.731826 0.47184044
vt 6.731975 0.29121253
vt 6.671329 0.47184044
vt 6.731975 0.29121253
vt 6.7682834 0.47184044
vt 6.7684326 0.29121253
vt 6.731826 0.47184044
vt 6.823177 0.29121253
vt 6.8725815 0.47184044
vt 6.8727303 0.29121253
vt 6.823028 0.47184044
vt 6.971011 0.29121253
vt 7.06072 0.47184044
vt 7.06087 0.29121253
vt 6.9708624 0.47184044
vt 7.0936575 0.29121253
vt 7.126091 0.47184044
vt 7.1262393 0.29121253
vt 7.093508 0.47184044
vt 7.217444 0.29121253
vt 7.2466364 0.47184044
vt 7.246785 0.29121253
vt 7.217295 0.47184044
vt 7.1977882 0.29121253
vt 7.217295 0.47184044
vt 7.217444 0.29121253
vt 7.1976395 0.47184044
vn 7.392676E-05 1 0.00013734608
vn -0.0014366348 0.9999989 0.0001807057
vn 9.999058E-05 1 0.00015686337
vn 1.3230995E-06 1 0.00018598055
vn -0.0019925835 0.9999981 8.6265114E-05
vn -0.01255538 0.99987686 0.009414771
vn -0.03923653 0.9991468 -0.012886003
vn 6.620571E-05 1 0.0001540497
vn -0.039979085 0.99817777 0.045196313
vn -1.4704286E-05 0.99513936 0.09847722
vn 5.2425057E-05 1 0.0001264076
vn 6.6981142E-06 1 0.00013194585
vn 7.692076E-06 1 0.00013136605
vn 3.146747E-05 1 0.00014115195
vn -0.0023358257 0.99999726 0.00010486531
vn 2.558133E-06 1 0.00017850488
vn 4.722667E-07 1 0.00018235733
vn 2.868207E-06 1 0.0001760074
vn 1.3075837E-06 1 0.00017475482
vn -0.0014366348 0.9999989 0.0001807057
vn -0.003116751 0.9999951 0.00016445141
vn -0.0019925835 0.9999981 8.6265114E-05
vn -0.004658831 0.99998915 7.826825E-05
vn -0.0023358257 0.99999726 0.00010486531
vn -1 1.9665515E-06 0
vn -1 1.8176768E-06 0
vn -1 2.075161E-06 0
vn -1 1.7090847E-06 -1.2279916E-07
vn 0.0015686866 -0.00081594195 0.99999845
vn 0.0025673185 -0.0008164432 0.9999964
vn 0.0015617564 -0.0008166503 0.99999845
vn 0.0025806073 -0.0008144547 0.9999964
vn 0.005949618 0.99998224 -0.00026762663
vn 0.0004885681 0.9999999 0.00038639165
vn -0 0.9999999 0.0004449021
vn 0.0064413594 0.99997926 -0.00032651844
vn -0.99999976 -3.3075078E-06 -0.00078661204
vn -0.99999976 -3.330348E-06 -0.0007866095
vn -0.99999976 -3.332226E-06 -0.0007866092
vn -0.99999976 -3.3056438E-06 -0.00078661216
vn 1 2.7923802E-06 -5.4474847E-05
vn 1 2.7781925E-06 -5.4476397E-05
vn 1 2.7770425E-06 -5.4476528E-05
vn 1 2.7935366E-06 -5.447471E-05
vn 0.006011586 -0.9999819 0.00039019462
vn 0.0005506222 -0.9999999 -0.00026780937
vn 6.183812E-05 -1 -0.0003267036
vn 0.006503535 -0.9999788 0.0004494711
vn -0 0 1
vn -0 0 1
vn -0 0 1
vn -0 0 1
vn -0 0 -1
vn -0 0 -1
vn -0 0 -1
vn -0 0 -1
vn -0.00016548981 0.0007905827 -0.99999976
vn -0.00094352034 0.0006994748 -0.9999993
vn -0.00018393427 0.0008155998 -0.99999964
vn -0.0016867275 0.0005585964 -0.99999845
vn -0.0003638676 0.00081569806 -0.99999964
vn -0.0003628216 0.00081642915 -0.99999964
vn 0.0059495885 -0.99998224 -0.00026787687
vn 0.00048856565 -0.9999999 0.00038613856
vn 0.006441327 -0.99997926 -0.00032676832
vn -0 -0.9999999 0.00044464885
vn -0.99999976 3.8587577E-06 -0.00078661216
vn -0.99999976 3.8854078E-06 -0.0007866092
vn -0.99999976 3.8565827E-06 -0.00078661245
vn -0.99999976 3.8875987E-06 -0.0007866089
vn 1 -2.7923804E-06 -5.4536256E-05
vn 1 -2.7781941E-06 -5.453782E-05
vn 1 -2.7935364E-06 -5.4536133E-05
vn 1 -2.7770445E-06 -5.4537948E-05
vn 0.0060119494 0.9999819 0.00039053746
vn 0.00055071054 0.9999999 -0.00026749936
vn 0.006503923 0.9999788 0.00044981687
vn 6.190181E-05 1 -0.0003263965
vn -0 0 1
vn -0 0 1
vn -0 0 1
vn -0 0 1
vn -0 0 -1
vn -0 0 -1
vn -0 0 -1
vn -0 0 -1
vn 0.00055995124 -0.00081705657 0.9999995
vn 0.0015686866 -0.00081594195 0.99999845
vn 0.0015617564 -0.0008166503 0.99999845
vn 0.0005606904 -0.00081762497 0.9999995
vn 2.1959137E-05 -0.00081762415 0.99999964
vn 2.1959144E-05 -0.00081762415 0.99999964
vn 2.1959135E-05 -0.00081762415 0.99999964
vn 2.1959146E-05 -0.00081762415 0.99999964
vn 1 -1.8287568E-06 -7.990678E-07
vn 1 -1.828757E-06 -7.990682E-07
vn 1 -1.8287569E-06 -7.9906783E-07
vn 1 -1.828757E-06 -7.990682E-07
vn -1.4601062E-05 0.00081762415 -0.99999964
vn -1.4601326E-05 0.0008176242 -0.99999964
vn -1.4601035E-05 0.00081762415 -0.99999964
vn -1.4601354E-05 0.00081762415 -0.99999964
vn -0.0006917487 0.0008176252 -0.9999994
vn -0.0006917491 0.000817625 -0.9999994
vn -0.0006917486 0.0008176251 -0.9999994
vn -0.0006917491 0.000817625 -0.9999994
vn 0.0010750764 -0.00081762567 0.99999917
vn 0.0010750764 -0.00081762567 0.99999917
vn 0.0010750764 -0.00081762567 0.99999917
vn 0.0010750764 -0.00081762567 0.99999917
vn 0.99999726 -3.7424109E-06 0.0023397119
vn 0.99999726 -3.7424113E-06 0.0023397119
vn 0.99999726 -3.7424109E-06 0.0023397119
vn 0.99999726 -3.7424113E-06 0.002339712
vn 1 -1.8222476E-06 -8.760159E-06
vn 1 -1.8222476E-06 -8.760159E-06
vn 1 -1.8222476E-06 -8.76016E-06
vn 1 -1.8222476E-06 -8.76016E-06
vn -0.004762003 -0.00081760605 0.9999883
vn -0.004762003 -0.0008176062 0.9999883
vn -0.004762003 -0.00081760605 0.9999883
vn -0.004762003 -0.00081760605 0.9999883
vn 0.99999976 -2.343896E-06 0.0006599994
vn 0.99999976 -2.2711436E-06 0.0006602189
vn 0.99999976 -2.3689793E-06 0.00065992353
vn 0.99999976 -2.246073E-06 0.00066029443
vn -0.002740201 0.000817626 -0.99999595
vn -0.002740201 0.000817626 -0.99999595
vn -0.002740201 0.0008176261 -0.99999595
vn -0.002740201 0.000817626 -0.99999595
vn 1 -1.839303E-06 1.2099261E-05
vn 1 -1.8393025E-06 1.2099261E-05
vn 1 -1.839303E-06 1.209926E-05
vn 1 -1.8393025E-06 1.2099261E-05
vn 0.99998605 -6.1555907E-06 0.00529119
vn 0.99998605 -6.15559E-06 0.0052911905
vn 0.99998605 -6.1555893E-06 0.005291189
vn 0.99998605 -6.15559E-06 0.005291189
vn 1 -1.8306538E-06 1.5208929E-06
vn 1 -1.8306538E-06 1.5208929E-06
vn 1 -1.8306539E-06 1.520893E-06
vn 1 -1.8306539E-06 1.520893E-06
vn 0.9999999 -2.2815036E-06 0.00055293605
vn 0.9999999 -2.2815036E-06 0.00055293605
vn 0.9999999 -2.2815036E-06 0.00055293605
vn 0.9999999 -2.2815036E-06 0.00055293605
vn -0 0.000817624 -0.99999964
vn -0 0.00081762415 -0.99999964
vn -0 0.00081762404 -0.99999964
vn -0 0.00081762415 -0.99999964
g LoginScene_Bridge01_01_Vo_0
f 3/3/3 2/2/2 1/1/1
f 4/4/4 3/3/3 1/1/1
f 5/5/5 2/2/2 3/3/3
f 3/3/3 6/6/6 5/5/5
f 5/5/5 6/6/6 7/7/7
f 5/5/5 7/7/7 8/8/8
f 7/7/7 6/6/6 9/9/9
f 10/10/10 9/9/9 6/6/6
f 5/5/5 8/8/8 11/11/11
f 8/8/8 12/12/12 11/11/11
f 13/13/13 11/11/11 12/12/12
f 11/11/11 14/14/14 5/5/5
f 5/5/5 14/14/14 15/15/15
f 15/15/15 14/14/14 16/16/16
f 17/17/17 15/15/15 16/16/16
f 16/16/16 14/14/14 18/18/18
f 14/14/14 19/19/19 18/18/18
g LoginScene_Bridge01_01_Vo_1
f 22/22/22 21/21/21 20/20/20
f 23/23/23 21/21/21 22/22/22
f 24/24/24 23/23/23 22/22/22
f 27/27/27 26/26/26 25/25/25
f 28/28/28 25/25/25 26/26/26
f 31/31/31 30/30/30 29/29/29
f 32/32/32 29/29/29 30/30/30
f 35/35/35 34/34/34 33/33/33
f 36/36/36 33/33/33 34/34/34
f 39/39/39 38/38/38 37/37/37
f 40/40/40 37/37/37 38/38/38
f 43/43/43 42/42/42 41/41/41
f 44/44/44 41/41/41 42/42/42
f 47/47/47 46/46/46 45/45/45
f 48/48/48 45/45/45 46/46/46
f 51/51/51 50/50/50 49/49/49
f 52/52/52 49/49/49 50/50/50
f 55/55/55 54/54/54 53/53/53
f 56/56/56 53/53/53 54/54/54
f 59/59/59 58/58/58 57/57/57
f 60/60/60 57/57/57 58/58/58
f 58/58/58 59/59/59 61/61/61
f 62/62/62 61/61/61 59/59/59
f 65/65/65 64/64/64 63/63/63
f 66/66/66 63/63/63 64/64/64
f 69/69/69 68/68/68 67/67/67
f 70/70/70 67/67/67 68/68/68
f 73/73/73 72/72/72 71/71/71
f 74/74/74 71/71/71 72/72/72
f 77/77/77 76/76/76 75/75/75
f 78/78/78 75/75/75 76/76/76
f 81/81/81 80/80/80 79/79/79
f 82/82/82 79/79/79 80/80/80
f 85/85/85 84/84/84 83/83/83
f 86/86/86 83/83/83 84/84/84
f 89/89/89 88/88/88 87/87/87
f 90/90/90 87/87/87 88/88/88
f 93/93/93 92/92/92 91/91/91
f 94/94/94 91/91/91 92/92/92
f 97/97/97 96/96/96 95/95/95
f 98/98/98 95/95/95 96/96/96
f 101/101/101 100/100/100 99/99/99
f 102/102/102 99/99/99 100/100/100
f 105/105/105 104/104/104 103/103/103
f 106/106/106 103/103/103 104/104/104
f 109/109/109 108/108/108 107/107/107
f 110/110/110 107/107/107 108/108/108
f 113/113/113 112/112/112 111/111/111
f 114/114/114 111/111/111 112/112/112
f 117/117/117 116/116/116 115/115/115
f 118/118/118 115/115/115 116/116/116
f 121/121/121 120/120/120 119/119/119
f 122/122/122 119/119/119 120/120/120
f 125/125/125 124/124/124 123/123/123
f 126/126/126 123/123/123 124/124/124
f 129/129/129 128/128/128 127/127/127
f 130/130/130 127/127/127 128/128/128
f 133/133/133 132/132/132 131/131/131
f 134/134/134 131/131/131 132/132/132
f 137/137/137 136/136/136 135/135/135
f 138/138/138 135/135/135 136/136/136
f 141/141/141 140/140/140 139/139/139
f 142/142/142 139/139/139 140/140/140
f 145/145/145 144/144/144 143/143/143
f 146/146/146 143/143/143 144/144/144
f 149/149/149 148/148/148 147/147/147
f 150/150/150 147/147/147 148/148/148
