g LoginScene_Bridge01_03_Vo
v -0.9789557 2.5192034 -1.7020215
v -5.4783444 2.519207 8.463467
v -1.6495501 2.5192025 -1.7018505
v -0.9789554 2.5192003 8.462094
v -5.478368 2.5192087 -1.7008984
v -0.97896206 2.5192022 -5.923066
v -1.9839824 2.5191944 -4.2420897
v -2.0363684 2.5192041 -5.919155
v -0.9789502 2.606569 -4.249033
v -5.4783716 2.5192103 -8.462548
v -2.0402813 2.5192046 -8.463061
v -5.478368 2.5192087 -1.7008984
v -2.1846533 2.5192037 -3.3823826
v -1.9839922 2.5192037 -3.385918
v -2.1846533 2.5192034 -2.53959
v -1.6495501 2.5192025 -1.7018505
v -1.6498858 2.5192025 -2.5393505
v -5.478368 2.5192087 -1.7008984
v -6.241397 2.5156143 8.463462
v -6.241406 2.5156157 -1.7004638
v -5.4783444 2.519207 8.463467
v -5.4783716 2.5192103 -8.462548
v -6.241404 2.5156157 -8.46252
v -0.9789572 2.6065745 8.428359
v -0.9789557 2.5192034 -1.7020215
v -0.9789572 2.6065776 -1.7031446
v -0.9789554 2.5192003 8.462094
v -0.9789572 2.6065776 -1.7031446
v 0.09005066 2.606575 8.427993
v -0.9789572 2.6065745 8.428359
v 0.09004303 2.6065776 -1.54604
v 0.09003967 2.5156195 -1.5423144
v 0.09005066 2.606575 8.427993
v 0.09004303 2.6065776 -1.54604
v 0.09004394 2.5156171 8.416972
v -6.241406 2.5156157 -1.7004638
v -6.241397 2.5156143 8.463462
v -6.2414055 -2.4843879 8.462705
v -6.2414145 -2.4843826 -8.46252
v -6.241404 2.5156157 -8.46252
v -5.42749 2.805844 -8.463462
v -6.6161985 2.8190267 8.461958
v -6.602888 2.8265564 -8.463467
v -5.426567 2.8113637 8.461958
v -6.602888 2.8265564 -8.463467
v -6.6161942 1.7111914 8.461958
v -6.6028824 1.7036712 -8.463467
v -6.6161985 2.8190267 8.461958
v -5.4274883 1.7244568 -8.463462
v -5.426567 2.8113637 8.461958
v -5.42749 2.805844 -8.463462
v -5.426564 1.7189283 8.461958
v -6.6028824 1.7036712 -8.463467
v -5.426564 1.7189283 8.461958
v -5.4274883 1.7244568 -8.463462
v -6.6161942 1.7111914 8.461958
v -5.426567 2.8113637 8.461958
v -6.6161942 1.7111914 8.461958
v -6.6161985 2.8190267 8.461958
v -5.426564 1.7189283 8.461958
v -6.602888 2.8265564 -8.463467
v -5.4274883 1.7244568 -8.463462
v -5.42749 2.805844 -8.463462
v -6.6028824 1.7036712 -8.463467
v -6.241404 2.5156157 -8.46252
v -5.4783783 -2.4843893 -8.462548
v -5.4783716 2.5192103 -8.462548
v -6.2414145 -2.4843826 -8.46252
v -2.0402875 -2.480807 -8.463061
v -2.0402813 2.5192046 -8.463061
v 5.2049623 -2.4843924 8.4170065
v 0.09004394 2.5156171 8.416972
v 5.2049694 2.5156195 8.4170065
v 0.09003631 -2.4843907 8.416972
v -0.978963 -2.4879737 8.462094
v -0.9789554 2.5192003 8.462094
v -5.4783444 2.519207 8.463467
v -6.2414055 -2.4843879 8.462705
v 0.09005066 2.606575 8.427993
v -0.9789572 2.6065745 8.428359
v -6.241397 2.5156143 8.463462
v 0.09003967 2.5156195 -1.5423144
v -0.9789572 2.6065776 -1.7031446
v -0.9789557 2.5192034 -1.7020215
v 0.09004303 2.6065776 -1.54604
v -6.6161985 -2.819033 8.461958
v -5.42749 -2.8058443 -8.463462
v -6.602888 -2.826556 -8.463467
v -5.426567 -2.8113692 8.461958
v -6.6161942 -1.7111969 8.461958
v -6.602888 -2.826556 -8.463467
v -6.6028824 -1.7036716 -8.463467
v -6.6161985 -2.819033 8.461958
v -5.426567 -2.8113692 8.461958
v -5.4274883 -1.7244568 -8.463462
v -5.42749 -2.8058443 -8.463462
v -5.426564 -1.7189339 8.461958
v -5.426564 -1.7189339 8.461958
v -6.6028824 -1.7036716 -8.463467
v -5.4274883 -1.7244568 -8.463462
v -6.6161942 -1.7111969 8.461958
v -5.426567 -2.8113692 8.461958
v -6.6161942 -1.7111969 8.461958
v -5.426564 -1.7189339 8.461958
v -6.6161985 -2.819033 8.461958
v -6.602888 -2.826556 -8.463467
v -5.4274883 -1.7244568 -8.463462
v -6.6028824 -1.7036716 -8.463467
v -5.42749 -2.8058443 -8.463462
v -1.6495501 2.5192025 -1.7018505
v -0.97896177 -2.4808083 -1.7020215
v -0.9789557 2.5192034 -1.7020215
v -1.6495563 -2.4808097 -1.7018505
v 0.09003357 -2.4843924 -1.5423144
v 0.09003967 2.5156195 -1.5423144
v 4.546449 -2.4843912 -1.5405127
v 4.5464554 2.5156207 -1.5405127
v 6.474172 2.5156207 7.5133643
v 5.2049656 -2.484392 7.513374
v 5.204972 2.51562 7.513374
v 6.474166 -2.4843915 7.5133643
v 5.759381 2.515622 3.1249707
v 5.758618 -2.4843907 5.667666
v 5.7586246 2.5156212 5.667666
v 5.759375 -2.4843898 3.1249707
v 4.5464554 2.515621 0.5375293
v 6.054034 -2.4843898 0.5375293
v 6.0540404 2.515622 0.5375293
v 4.546449 -2.4843905 0.5375293
v 5.204972 2.51562 7.513374
v 5.2049623 -2.4843924 8.4170065
v 5.2049694 2.5156195 8.4170065
v 5.2049656 -2.484392 7.513374
v 4.5464554 2.5156207 -1.5405127
v 4.546449 -2.4843905 0.5375293
v 4.5464554 2.515621 0.5375293
v 4.546449 -2.4843912 -1.5405127
v 5.7586246 2.5156212 5.667666
v 6.4739575 -2.4843903 5.667666
v 6.4739633 2.515622 5.667666
v 5.758618 -2.4843907 5.667666
v 6.4739633 2.515622 5.667666
v 6.474166 -2.4843915 7.5133643
v 6.474172 2.5156207 7.5133643
v 6.4739575 -2.4843903 5.667666
v 6.0557837 2.515622 3.1249707
v 5.759375 -2.4843898 3.1249707
v 5.759381 2.515622 3.1249707
v 6.0557775 -2.4843898 3.1249707
v 6.0540404 2.515622 0.5375293
v 6.0557775 -2.4843898 3.1249707
v 6.0557837 2.515622 3.1249707
v 6.054034 -2.4843898 0.5375293
v -2.0363684 2.5192041 -5.919155
v -0.9789682 -2.48081 -5.923066
v -0.97896206 2.5192022 -5.923066
v -2.0363746 -2.480808 -5.919155
v -0.9789502 2.606569 -4.249033
v -1.9839886 -2.4808176 -4.2420897
v -1.9839824 2.5191944 -4.2420897
v -0.9789563 -2.3934426 -4.249033
v -0.97896206 2.5192022 -5.923066
v -0.9789563 -2.3934426 -4.249033
v -0.9789502 2.606569 -4.249033
v -0.9789682 -2.48081 -5.923066
v -2.0402813 2.5192046 -8.463061
v -2.0363746 -2.480808 -5.919155
v -2.0363684 2.5192041 -5.919155
v -2.0402875 -2.480807 -8.463061
v -2.1846533 2.5192037 -3.3823826
v -2.1846595 -2.4808087 -2.53959
v -2.1846533 2.5192034 -2.53959
v -2.1846595 -2.4808078 -3.3823826
v -2.1846533 2.5192034 -2.53959
v -1.649892 -2.4808092 -2.5393505
v -1.6498858 2.5192025 -2.5393505
v -2.1846595 -2.4808087 -2.53959
v -1.6498858 2.5192025 -2.5393505
v -1.6495563 -2.4808097 -1.7018505
v -1.6495501 2.5192025 -1.7018505
v -1.649892 -2.4808092 -2.5393505
v -1.9839824 2.5191944 -4.2420897
v -1.9839984 -2.4808078 -3.385918
v -1.9839922 2.5192037 -3.385918
v -1.9839886 -2.4808176 -4.2420897
v -1.9839922 2.5192037 -3.385918
v -2.1846595 -2.4808078 -3.3823826
v -2.1846533 2.5192037 -3.3823826
v -1.9839984 -2.4808078 -3.385918
v 6.0540404 2.515622 0.5375293
v 6.0557837 2.515622 3.1249707
v 5.759381 2.515622 3.1249707
v 4.5464554 2.515621 0.5375293
v 0.09004394 2.5156171 8.416972
v 0.09003967 2.5156195 -1.5423144
v 4.5464554 2.5156207 -1.5405127
v 5.7586246 2.5156212 5.667666
v 5.204972 2.51562 7.513374
v 6.474172 2.5156207 7.5133643
v 6.4739633 2.515622 5.667666
v 5.2049694 2.5156195 8.4170065
vt 0.90298516 0.015389716
vt 0.46950883 0.9848068
vt 0.8383801 0.015384363
vt 0.9029849 0.9848068
vt 0.46950907 0.015389716
vt 0.903002 0.41787872
vt 0.80630964 0.2577013
vt 0.8011253 0.4175359
vt 0.9029697 0.25824234
vt 0.46951866 0.66007537
vt 0.8007544 0.660093
vt 0.46950907 0.015389716
vt 0.78695 0.17570682
vt 0.8062256 0.17601179
vt 0.7868302 0.095297374
vt 0.8383801 0.0154090505
vt 0.83835006 0.09526465
vt 0.68771774 0.8603558
vt 0.9977085 0.8370305
vt 0.68781847 0.8370778
vt 0.9978666 0.86030906
vt 0.48145062 0.8603996
vt 0.48142606 0.8371214
vt -2.3400342 0.13121703
vt -1.7068322 0.11549441
vt -1.7068336 0.13121703
vt -2.342117 0.11549441
vt -1.7089834 0.07436351
vt -2.3421628 0.13121703
vt -2.3421853 0.074342325
vt -1.718805 0.13121703
vt 5.78332 0.05416729
vt 6.4062357 0.06609748
vt 5.7832003 0.06765705
vt 6.405868 0.05416723
vt 1.3991095 0.2912125
vt 1.7718412 0.2912125
vt 1.7717289 0.4718404
vt 1.1511221 0.4718404
vt 1.1505084 0.2912125
vt -3.839459 0.13133278
vt -4.818223 0.07436351
vt -3.8145688 0.07447947
vt -4.831022 0.13121703
vt -3.825347 0.0676745
vt -4.8213673 0.002989646
vt -3.8217547 0.0030068215
vt -4.8208675 0.06765705
vt 3.509981 0.0029773084
vt 4.499321 0.06765705
vt 3.5073934 0.06764451
vt 4.501563 0.002989646
vt -5.8318844 0.5852152
vt -7.3994074 0.48480126
vt -5.8632016 0.4846374
vt -7.380673 0.58846956
vt -0.20457554 0.846666
vt -0.25252432 0.89851487
vt -0.20424098 0.8985145
vt -0.25218773 0.8466666
vt 2.0069468 0.8971466
vt 2.0549796 0.8459188
vt 2.00785 0.84591854
vt 2.055885 0.8971467
vt 1.1505084 0.2912125
vt 1.1228952 0.4718404
vt 1.1217976 0.2912125
vt 1.1511221 0.4718404
vt 0.9963584 0.4718404
vt 0.99576384 0.2912125
vt -0.08062402 0.4718404
vt -0.26865807 0.2912125
vt -0.08061897 0.2912125
vt -0.26856545 0.4718404
vt -0.308236 0.4718404
vt -0.30820698 0.2912125
vt -0.47363946 0.2912125
vt -0.50139654 0.4718404
vt -0.26883665 0.2912125
vt -0.3080058 0.2912125
vt -0.5018083 0.2912125
vt 0.69309485 0.47184044
vt 0.73316705 0.47184044
vt 0.73324436 0.47184044
vt 0.6932682 0.47184044
vt -4.818223 0.07436351
vt -3.839459 0.13133278
vt -3.8145688 0.07447947
vt -4.831022 0.13121703
vt -4.8213673 0.002989646
vt -3.825347 0.0676745
vt -3.8217547 0.0030068215
vt -4.8208675 0.06765705
vt 4.499321 0.06765705
vt 3.509981 0.0029773084
vt 3.5073934 0.06764451
vt 4.501563 0.002989646
vt -7.3994074 0.48480126
vt -5.8318844 0.5852152
vt -5.8632016 0.4846374
vt -7.380673 0.58846956
vt -0.20457554 0.846666
vt -0.25252432 0.89851487
vt -0.25218773 0.8466666
vt -0.20424098 0.8985145
vt 2.0069468 0.8971466
vt 2.0549796 0.8459188
vt 2.055885 0.8971467
vt 2.00785 0.84591854
vt 0.6476104 0.2912125
vt 0.6233633 0.4718404
vt 0.6233384 0.2912125
vt 0.6476198 0.4718404
vt 0.58414 0.4718404
vt 0.58410746 0.2912125
vt 0.4212492 0.4718404
vt 0.42123228 0.2912125
vt -0.0005468393 0.2912125
vt -0.04716595 0.4718404
vt -0.04716163 0.2912125
vt -0.0005511521 0.4718404
vt 0.1858381 0.2912125
vt 0.092969485 0.4718404
vt 0.092969395 0.2912125
vt 0.1858384 0.4718404
vt 0.3455435 0.2912125
vt 0.29074296 0.4718404
vt 0.2907407 0.2912125
vt 0.34554577 0.4718404
vt -0.04716163 0.2912125
vt -0.08062402 0.4718404
vt -0.08061897 0.2912125
vt -0.04716595 0.4718404
vt 0.42123228 0.2912125
vt 0.34554577 0.4718404
vt 0.3455435 0.2912125
vt 0.4212492 0.4718404
vt 0.092969395 0.2912125
vt 0.0669913 0.4718404
vt 0.06699122 0.2912125
vt 0.092969485 0.4718404
vt 0.06699122 0.2912125
vt -0.0005511521 0.4718404
vt -0.0005468393 0.2912125
vt 0.0669913 0.4718404
vt 0.19632868 0.2912125
vt 0.1858384 0.4718404
vt 0.1858381 0.2912125
vt 0.19632895 0.4718404
vt 0.2907407 0.2912125
vt 0.19632895 0.4718404
vt 0.19632868 0.2912125
vt 0.29074296 0.4718404
vt 0.90279865 0.2912125
vt 0.8642256 0.4718404
vt 0.86420447 0.2912125
vt 0.9028198 0.4718404
vt 0.803095 0.2912125
vt 0.7664941 0.4718404
vt 0.7664951 0.2912125
vt 0.803094 0.4718404
vt 0.86420447 0.2912125
vt 0.803094 0.4718404
vt 0.803095 0.2912125
vt 0.8642256 0.4718404
vt 0.99576384 0.2912125
vt 0.9028198 0.4718404
vt 0.90279865 0.2912125
vt 0.9963584 0.4718404
vt 0.7281617 0.2912125
vt 0.6974589 0.4718404
vt 0.69745815 0.2912125
vt 0.72816193 0.4718404
vt 0.69745815 0.2912125
vt 0.6780627 0.4718404
vt 0.6780619 0.2912125
vt 0.6974589 0.4718404
vt 0.6780619 0.2912125
vt 0.6476198 0.4718404
vt 0.6476104 0.2912125
vt 0.6780627 0.4718404
vt 0.7664951 0.2912125
vt 0.7353277 0.4718404
vt 0.7353275 0.2912125
vt 0.7664941 0.4718404
vt 0.7353275 0.2912125
vt 0.72816193 0.4718404
vt 0.7281617 0.2912125
vt 0.7353277 0.4718404
vt 0.6351074 -2.6232584
vt 0.635421 -2.750969
vt 0.62052125 -2.750903
vt 0.55955034 -2.6236985
vt 0.33536163 -3.0111587
vt 0.33536166 -2.521285
vt 0.5594527 -2.521285
vt 0.62033826 -2.8758962
vt 0.5925663 -2.9667032
vt 0.65628844 -2.9669995
vt 0.65640485 -2.8758957
vt 0.5925659 -3.0111592
vn -7.5279524E-07 1 -6.937988E-07
vn -0.0023537355 0.99999726 1.8924723E-07
vn 3.3229958E-07 1 -3.10993E-07
vn 1.4742458E-06 1 2.91921E-07
vn -0.0023532966 0.99999726 0
vn -0.029980341 0.9993899 -0.017919945
vn -0.018968176 0.9997558 -0.011340714
vn -2.5021578E-07 1 4.6724094E-06
vn -0.086849935 0.99486744 -0.051921096
vn -0.0023542815 0.99999726 5.6445515E-07
vn 1.7089002E-06 1 2.385871E-07
vn -0.0023532966 0.99999726 0
vn -1.8691294E-06 1 -8.731097E-06
vn -2.2510012E-07 1 -1.0838075E-05
vn 1.6444719E-06 1 2.3887776E-07
vn 3.3229958E-07 1 -3.10993E-07
vn 1.6511602E-06 1 2.3455407E-07
vn -0.0023532966 0.99999726 0
vn -0.0047084354 0.9999889 1.6509742E-07
vn -0.004708802 0.9999889 1.9946313E-07
vn -0.0023537355 0.99999726 1.8924723E-07
vn -0.0023542815 0.99999726 5.6445515E-07
vn -0.004711215 0.9999889 0
vn -1 -2.092938E-05 0
vn -1 -1.7482644E-05 0
vn -1 -1.7463699E-05 0
vn -1 -2.0944848E-05 0
vn -0 1 2.7134112E-07
vn -2.0827505E-07 1 2.9119693E-07
vn -2.2292761E-07 1 2.9274304E-07
vn -0 1 2.6963633E-07
vn 1 -3.714623E-05 -7.630331E-07
vn 1 -7.352916E-05 -4.3112487E-07
vn 1 -3.6937676E-05 -7.649357E-07
vn 1 -7.3760944E-05 -4.2901038E-07
vn -1 1.3063567E-06 4.2878708E-07
vn -1 1.7088475E-06 9.007619E-07
vn -1 1.4959778E-06 7.960357E-07
vn -1 1.6302357E-06 0
vn -1 2.0751959E-06 -2.7078377E-07
vn 0.017119354 0.9998534 0.00042358582
vn 0.0069350316 0.9999759 -0.0002917765
vn 0.01761862 0.9998447 0.00045865704
vn 0.0064413594 0.99997926 -0.00032645074
vn -0.99999976 -4.848914E-06 -0.0007864903
vn -0.99999976 -3.9002402E-06 -0.0007864277
vn -0.99999976 -4.892009E-06 -0.00078649307
vn -0.99999976 -3.8565836E-06 -0.0007864248
vn 1 1.7383849E-06 -5.4528038E-05
vn 1 2.7488356E-06 -5.459293E-05
vn 1 1.6932456E-06 -5.4525142E-05
vn 1 2.7935364E-06 -5.4595796E-05
vn 0.01718197 -0.9998523 -0.0002928546
vn 0.006997022 -0.99997544 0.0004151113
vn 0.017681044 -0.9998436 -0.0003275479
vn 0.0065035387 -0.9999788 0.00044941137
vn -0 0 1
vn -0 0 1
vn -0 0 1
vn -0 0 1
vn 4.154185E-06 0 -1
vn 4.1541844E-06 0 -1
vn 4.1541784E-06 0 -1
vn 4.1541907E-06 0 -1
vn -3.8395283E-05 0 -1
vn -9.3740375E-05 0 -1
vn -9.384188E-05 0 -1
vn -3.8395116E-05 0 -1
vn -0.0001491221 0 -1
vn -0.00014912212 0 -1
vn -6.682343E-06 0 1
vn 0.027913047 -0.0399621 0.99881124
vn -6.682343E-06 0 1
vn 0.021109872 0 0.99977714
vn 0.02117486 -4.5425768E-05 0.9997758
vn 0.015229833 0.11303569 0.9934742
vn 0.00011160297 -0.00011611384 1
vn 0.00010416109 -0.0001681191 1
vn 0.039433707 -0.09421078 0.99477094
vn 0.00031949725 0.36018643 0.9328803
vn -5.686345E-06 -0.00015136713 1
vn 0.14541073 -0.03906198 -0.9886
vn 0.14757884 -0.014196894 -0.98894835
vn 0.14770567 -0.012708672 -0.9889498
vn 0.14528283 -0.040496167 -0.9885611
vn 0.006935475 -0.9999759 -0.00029209917
vn 0.017119018 -0.9998534 0.0004232085
vn 0.017618246 -0.9998447 0.00045827703
vn 0.006441841 -0.99997926 -0.00032677077
vn -0.99999976 3.900237E-06 -0.00078642764
vn -0.99999976 4.848915E-06 -0.00078649016
vn -0.99999976 4.8920097E-06 -0.00078649295
vn -0.99999976 3.8565813E-06 -0.0007864246
vn 1 -2.7488356E-06 -5.459292E-05
vn 1 -1.7383848E-06 -5.452805E-05
vn 1 -1.6932456E-06 -5.4525146E-05
vn 1 -2.7935364E-06 -5.4595796E-05
vn 0.0069971364 0.99997544 0.0004154234
vn 0.017181791 0.9998523 -0.000292522
vn 0.017680848 0.9998436 -0.00032721437
vn 0.0065036663 0.9999788 0.00044972252
vn -0 0 1
vn -0 0 1
vn -0 0 1
vn -0 0 1
vn 4.154185E-06 0 -1
vn 4.154184E-06 0 -1
vn 4.154191E-06 0 -1
vn 4.154178E-06 0 -1
vn -0.00025484615 0 -1
vn 0.0740343 0 -0.99725574
vn 0.073877834 0 -0.99726725
vn -0.00025484615 0 -1
vn 0.07420682 0 -0.9972429
vn 0.07436266 0 -0.9972313
vn 0.00040430648 0 -1
vn 0.00040430648 0 -1
vn 7.6943115E-06 0 1
vn 7.694311E-06 0 1
vn 7.6943115E-06 0 1
vn 7.6943115E-06 0 1
vn 1 -1.2329377E-06 0.00029756702
vn 1 -1.2084628E-06 0.00029761513
vn 1 -1.2512177E-06 0.00029753105
vn 1 -1.1901827E-06 0.0002976511
vn -0 0 -1
vn -0 0 -1
vn -0 0 -1
vn -0 0 -1
vn 1 -1.3593931E-06 2.7786498E-06
vn 1 -1.2651124E-06 3.3003278E-06
vn 1 -1.3732877E-06 2.7017675E-06
vn 1 -1.2512178E-06 3.3772099E-06
vn 1 -1.235959E-06 0
vn 1 -1.2359592E-06 0
vn 1 -1.2359591E-06 0
vn 1 -1.2359592E-06 0
vn -0 0 -1
vn -0 0 -1
vn -0 0 -1
vn -0 0 -1
vn 1 -1.2207003E-06 -0.000113095535
vn 1 -1.2207001E-06 -0.000113095535
vn 1 -1.2207001E-06 -0.00011309553
vn 1 -1.2207E-06 -0.000113095535
vn -0 0 1
vn -0 0 1
vn -0 0 1
vn -0 0 1
vn 0.99999976 -1.2817349E-06 -0.0006737017
vn 0.99999976 -1.2817349E-06 -0.0006737017
vn 0.99999976 -1.2817349E-06 -0.0006737017
vn 0.99999976 -1.2817349E-06 -0.0006737017
vn -0.003698773 0 -0.9999932
vn -0.0036987734 0 -0.9999932
vn -0.0036987737 0 -0.9999932
vn -0.0036987737 0 -0.9999932
vn 0.0069084284 0 0.99997616
vn 0.006908429 0 0.99997616
vn 0.006908429 0 0.99997616
vn 0.006908429 0 0.99997616
vn 1 -1.2207003E-06 -7.045982E-06
vn 1 -1.2207001E-06 -7.045981E-06
vn 1 -1.2207003E-06 -7.0459814E-06
vn 1 -1.2207001E-06 -7.045981E-06
vn 0.9999988 -1.2206987E-06 -0.0015381697
vn 0.9999988 -1.2206988E-06 -0.0015381697
vn 0.9999988 -1.2206986E-06 -0.0015381696
vn 0.9999988 -1.2206988E-06 -0.0015381696
vn 1 -1.2207003E-06 0
vn 1 -1.2207003E-06 0
vn 1 -1.2207001E-06 0
vn 1 -1.2207003E-06 0
vn 0.00044740533 0 -0.9999999
vn 0.0004474053 0 -0.9999999
vn 0.00044740536 0 -0.9999999
vn 0.00044740533 0 -0.9999999
vn 1 -1.2207001E-06 -0.00040082794
vn 1 -1.2207001E-06 -0.00040082794
vn 1 -1.2207004E-06 -0.00040082794
vn 1 -1.2207003E-06 -0.0004008279
vn 1 -1.2207005E-06 1.1406165E-05
vn 1 -1.2207003E-06 1.1406165E-05
vn 1 -1.2207005E-06 1.1406165E-05
vn 1 -1.2207004E-06 1.1406164E-05
vn 0.017614821 0 0.9998448
vn 0.017614821 0 0.9998448
vn 0.017614821 0 0.9998448
vn 0.017614821 0 0.9998448
vn -6.072842E-07 1 0
vn -1.519041E-07 1 0
vn -5.590919E-07 1 0
vn -5.3227365E-07 1 0
vn -5.6760956E-07 1 2.7354523E-07
vn -4.0193606E-07 1 1.5204813E-07
vn -2.9457834E-07 1 0
vn -6.321294E-07 1 4.4384717E-07
vn -4.6720746E-07 1 5.0489143E-07
vn -4.937425E-07 1 5.652448E-07
vn -8.8187994E-07 1 7.157194E-07
vn -4.9667176E-07 1 5.289735E-07
g LoginScene_Bridge01_03_Vo_0
f 3/3/3 2/2/2 1/1/1
f 4/4/4 1/1/1 2/2/2
f 5/5/5 2/2/2 3/3/3
f 8/8/8 7/7/7 6/6/6
f 9/9/9 6/6/6 7/7/7
f 10/10/10 7/7/7 8/8/8
f 10/10/10 8/8/8 11/11/11
f 12/12/12 7/7/7 10/10/10
f 7/7/7 12/12/12 13/13/13
f 13/13/13 14/14/14 7/7/7
f 15/15/15 13/13/13 12/12/12
f 12/12/12 16/16/16 15/15/15
f 15/15/15 16/16/16 17/17/17
g LoginScene_Bridge01_03_Vo_1
f 20/20/20 19/19/19 18/18/18
f 21/21/21 18/18/18 19/19/19
f 18/18/18 22/22/22 20/20/20
f 23/23/23 20/20/20 22/22/22
f 26/26/26 25/25/25 24/24/24
f 27/27/27 24/24/24 25/25/25
f 30/30/30 29/29/29 28/28/28
f 31/31/31 28/28/28 29/29/29
f 34/34/34 33/33/33 32/32/32
f 35/35/35 32/32/32 33/33/33
f 38/38/38 37/37/37 36/36/36
f 39/39/39 38/38/38 36/36/36
f 40/40/40 39/39/39 36/36/36
f 43/43/43 42/42/42 41/41/41
f 44/44/44 41/41/41 42/42/42
f 47/47/47 46/46/46 45/45/45
f 48/48/48 45/45/45 46/46/46
f 51/51/51 50/50/50 49/49/49
f 52/52/52 49/49/49 50/50/50
f 55/55/55 54/54/54 53/53/53
f 56/56/56 53/53/53 54/54/54
f 59/59/59 58/58/58 57/57/57
f 60/60/60 57/57/57 58/58/58
f 63/63/63 62/62/62 61/61/61
f 64/64/64 61/61/61 62/62/62
f 67/67/67 66/66/66 65/65/65
f 68/68/68 65/65/65 66/66/66
f 66/66/66 67/67/67 69/69/69
f 70/70/70 69/69/69 67/67/67
f 73/73/73 72/72/72 71/71/71
f 74/74/74 71/71/71 72/72/72
f 74/74/74 72/72/72 75/75/75
f 76/76/76 75/75/75 72/72/72
f 76/76/76 77/77/77 75/75/75
f 78/78/78 75/75/75 77/77/77
f 72/72/72 79/79/79 76/76/76
f 80/80/80 76/76/76 79/79/79
f 81/81/81 78/78/78 77/77/77
f 84/84/84 83/83/83 82/82/82
f 85/85/85 82/82/82 83/83/83
f 88/88/88 87/87/87 86/86/86
f 89/89/89 86/86/86 87/87/87
f 92/92/92 91/91/91 90/90/90
f 93/93/93 90/90/90 91/91/91
f 96/96/96 95/95/95 94/94/94
f 97/97/97 94/94/94 95/95/95
f 100/100/100 99/99/99 98/98/98
f 101/101/101 98/98/98 99/99/99
f 104/104/104 103/103/103 102/102/102
f 105/105/105 102/102/102 103/103/103
f 108/108/108 107/107/107 106/106/106
f 109/109/109 106/106/106 107/107/107
f 112/112/112 111/111/111 110/110/110
f 113/113/113 110/110/110 111/111/111
f 111/111/111 112/112/112 114/114/114
f 115/115/115 114/114/114 112/112/112
f 114/114/114 115/115/115 116/116/116
f 117/117/117 116/116/116 115/115/115
f 120/120/120 119/119/119 118/118/118
f 121/121/121 118/118/118 119/119/119
f 124/124/124 123/123/123 122/122/122
f 125/125/125 122/122/122 123/123/123
f 128/128/128 127/127/127 126/126/126
f 129/129/129 126/126/126 127/127/127
f 132/132/132 131/131/131 130/130/130
f 133/133/133 130/130/130 131/131/131
f 136/136/136 135/135/135 134/134/134
f 137/137/137 134/134/134 135/135/135
f 140/140/140 139/139/139 138/138/138
f 141/141/141 138/138/138 139/139/139
f 144/144/144 143/143/143 142/142/142
f 145/145/145 142/142/142 143/143/143
f 148/148/148 147/147/147 146/146/146
f 149/149/149 146/146/146 147/147/147
f 152/152/152 151/151/151 150/150/150
f 153/153/153 150/150/150 151/151/151
f 156/156/156 155/155/155 154/154/154
f 157/157/157 154/154/154 155/155/155
f 160/160/160 159/159/159 158/158/158
f 161/161/161 158/158/158 159/159/159
f 164/164/164 163/163/163 162/162/162
f 165/165/165 162/162/162 163/163/163
f 168/168/168 167/167/167 166/166/166
f 169/169/169 166/166/166 167/167/167
f 172/172/172 171/171/171 170/170/170
f 173/173/173 170/170/170 171/171/171
f 176/176/176 175/175/175 174/174/174
f 177/177/177 174/174/174 175/175/175
f 180/180/180 179/179/179 178/178/178
f 181/181/181 178/178/178 179/179/179
f 184/184/184 183/183/183 182/182/182
f 185/185/185 182/182/182 183/183/183
f 188/188/188 187/187/187 186/186/186
f 189/189/189 186/186/186 187/187/187
g LoginScene_Bridge01_03_Vo_2
f 192/192/192 191/191/191 190/190/190
f 193/193/193 192/192/192 190/190/190
f 194/194/194 192/192/192 193/193/193
f 195/195/195 194/194/194 193/193/193
f 196/196/196 195/195/195 193/193/193
f 197/197/197 192/192/192 194/194/194
f 194/194/194 198/198/198 197/197/197
f 198/198/198 199/199/199 197/197/197
f 200/200/200 197/197/197 199/199/199
f 201/201/201 198/198/198 194/194/194
