g Property_Prop_Teleport_01_Col
v -7.6293944E-08 -0.092081755 1.2318294E-08
v 0.49998614 0.5885964 0.13397107
v 0.36601532 0.5885964 -0.36601532
v -0.13397093 0.5885964 -0.49998617
v -0.49998614 0.5885964 -0.13397096
v -0.36601534 0.5885964 0.3660152
v 0.13397063 0.5885964 0.49998626
v 0.23612842 0.8399507 0.06327053
v 0.172858 0.8399507 -0.17285809
v -0.0632705 0.8399507 -0.2361285
v -0.23612854 0.8399507 -0.06327046
v -0.17285813 0.8399507 0.172858
v 0.06327027 0.8399507 0.23612854
v 0.09081679 1.0913049 -0.09081685
v 0.12405805 1.0913049 0.033241328
v 0.12980366 1.5520494 -0.12980369
v 0.17731506 1.5520494 0.047511525
v -0.04751151 1.5520494 -0.17731516
v -0.03324134 1.0913049 -0.1240581
v -0.17731525 1.5520494 -0.047511462
v -0.124058194 1.0913049 -0.03324128
v -0.1298038 1.5520494 0.12980369
v -0.09081694 1.0913049 0.09081684
v 0.04751132 1.5520494 0.1773152
v 0.03324115 1.0913049 0.124058165
v 0.40698904 1.7998977 -0.4069891
v 0.5559573 1.7998977 0.1489685
v -0.14896837 1.7998977 -0.5559574
v -0.5559573 1.7998977 -0.1489684
v -0.40698913 1.7998977 0.40698895
v 0.14896804 1.7998977 0.55595744
v 0.46453878 2.1642926 5.29378E-09
v 0.20708874 2.1642926 -0.20708877
v -3.2306808E-08 2.1642926 -0.46453878
v -0.20708884 2.1642926 -0.20708877
v -0.46453878 2.1642926 -6.484963E-08
v -0.2070889 2.1642926 0.20708874
v -2.2797097E-07 2.1642926 0.46453878
v 0.20708862 2.1642926 0.2070889
v 0.16881324 2.4914396 -0.16881329
v 0.45619574 2.54385 2.0798518E-09
v -0.16881336 2.4914396 -0.16881329
v -3.267829E-08 2.54385 -0.45619574
v -0.16881342 2.4914396 0.1688133
v -0.45619574 2.54385 -6.68038E-08
v 0.16881312 2.4914396 0.16881342
v -2.2482836E-07 2.54385 0.45619574
v -8.106232E-08 2.3403988 1.5099843E-08
vn -1.4685324E-07 -1 0
vn 0.96328527 0.073889956 0.2581118
vn 0.70517397 0.073889874 -0.70517373
vn -0.2581116 0.07388988 -0.9632854
vn -0.96328527 0.07388982 -0.25811163
vn -0.70517397 0.07388986 0.70517373
vn 0.25811118 0.073889844 0.9632855
vn 0.7570821 0.6210271 0.20285976
vn 0.5542225 0.6210271 -0.5542226
vn -0.2028596 0.62102705 -0.7570822
vn -0.7570823 0.62102693 -0.20285958
vn -0.5542228 0.621027 0.55422246
vn 0.20285921 0.62102705 0.7570823
vn 0.6966521 0.1713247 -0.6966519
vn 0.9516441 0.17132463 0.25499254
vn 0.56198615 -0.6069129 -0.56198597
vn 0.76768726 -0.60691285 0.20570134
vn -0.20570114 -0.60691285 -0.7676874
vn -0.25499225 0.17132467 -0.95164424
vn -0.76768726 -0.60691285 -0.20570128
vn -0.9516441 0.17132463 -0.25499243
vn -0.56198627 -0.6069128 0.561986
vn -0.6966522 0.17132461 0.6966518
vn 0.20570093 -0.6069129 0.7676874
vn 0.2549919 0.17132466 0.95164436
vn 0.6456667 -0.1950586 -0.7382862
vn 0.9144472 -0.25589818 0.31353217
vn -0.25562257 -0.21320322 -0.94297487
vn -0.91444725 -0.25589827 -0.31353202
vn -0.6456669 -0.19505864 0.7382861
vn 0.25562212 -0.21320313 0.9429749
vn 0.93019557 0.36600167 0.027909352
vn 0.60720545 0.32050416 -0.72703415
vn 0.118416935 0.15416417 -0.9809234
vn -0.6722407 0.3101368 -0.67224073
vn -0.93019557 0.36600155 -0.027909616
vn -0.60720575 0.320504 0.727034
vn -0.11841719 0.15416424 0.9809234
vn 0.67224056 0.31013688 0.67224085
vn 0.25150755 0.9346057 -0.2515076
vn 0.7140682 0.70007616 -2.3009316E-07
vn -0.25150755 0.9346057 -0.25150767
vn -0 0.70007616 -0.7140681
vn -0.2515078 0.93460566 0.25150767
vn -0.7140681 0.7000763 -1.5688168E-07
vn 0.2515077 0.93460566 0.25150773
vn -2.4055194E-07 0.70007616 0.7140682
vn -0 1 0
g Property_Prop_Teleport_01_Col_0
f 3/3/3 2/2/2 1/1/1
f 4/4/4 3/3/3 1/1/1
f 5/5/5 4/4/4 1/1/1
f 6/6/6 5/5/5 1/1/1
f 7/7/7 6/6/6 1/1/1
f 2/2/2 7/7/7 1/1/1
f 2/2/2 3/3/3 8/8/8
f 9/9/9 8/8/8 3/3/3
f 3/3/3 4/4/4 9/9/9
f 10/10/10 9/9/9 4/4/4
f 4/4/4 5/5/5 10/10/10
f 11/11/11 10/10/10 5/5/5
f 5/5/5 6/6/6 11/11/11
f 12/12/12 11/11/11 6/6/6
f 6/6/6 7/7/7 12/12/12
f 13/13/13 12/12/12 7/7/7
f 8/8/8 13/13/13 2/2/2
f 7/7/7 2/2/2 13/13/13
f 9/9/9 14/14/14 8/8/8
f 15/15/15 8/8/8 14/14/14
f 8/8/8 15/15/15 13/13/13
f 14/14/14 16/16/16 15/15/15
f 17/17/17 15/15/15 16/16/16
f 16/16/16 14/14/14 18/18/18
f 19/19/19 18/18/18 14/14/14
f 14/14/14 9/9/9 19/19/19
f 10/10/10 19/19/19 9/9/9
f 18/18/18 19/19/19 20/20/20
f 21/21/21 20/20/20 19/19/19
f 19/19/19 10/10/10 21/21/21
f 11/11/11 21/21/21 10/10/10
f 20/20/20 21/21/21 22/22/22
f 23/23/23 22/22/22 21/21/21
f 21/21/21 11/11/11 23/23/23
f 12/12/12 23/23/23 11/11/11
f 22/22/22 23/23/23 24/24/24
f 25/25/25 24/24/24 23/23/23
f 15/15/15 17/17/17 25/25/25
f 24/24/24 25/25/25 17/17/17
f 23/23/23 12/12/12 25/25/25
f 13/13/13 25/25/25 12/12/12
f 25/25/25 13/13/13 15/15/15
f 16/16/16 26/26/26 17/17/17
f 27/27/27 17/17/17 26/26/26
f 17/17/17 27/27/27 24/24/24
f 18/18/18 28/28/28 16/16/16
f 26/26/26 16/16/16 28/28/28
f 20/20/20 29/29/29 18/18/18
f 28/28/28 18/18/18 29/29/29
f 22/22/22 30/30/30 20/20/20
f 29/29/29 20/20/20 30/30/30
f 24/24/24 31/31/31 22/22/22
f 30/30/30 22/22/22 31/31/31
f 31/31/31 24/24/24 27/27/27
f 27/27/27 26/26/26 32/32/32
f 33/33/33 32/32/32 26/26/26
f 26/26/26 28/28/28 33/33/33
f 34/34/34 33/33/33 28/28/28
f 35/35/35 34/34/34 28/28/28
f 29/29/29 35/35/35 28/28/28
f 36/36/36 35/35/35 29/29/29
f 29/29/29 30/30/30 36/36/36
f 37/37/37 36/36/36 30/30/30
f 30/30/30 31/31/31 37/37/37
f 38/38/38 37/37/37 31/31/31
f 39/39/39 38/38/38 31/31/31
f 27/27/27 39/39/39 31/31/31
f 32/32/32 39/39/39 27/27/27
f 34/34/34 40/40/40 33/33/33
f 33/33/33 40/40/40 32/32/32
f 40/40/40 41/41/41 32/32/32
f 36/36/36 42/42/42 35/35/35
f 35/35/35 42/42/42 34/34/34
f 42/42/42 43/43/43 34/34/34
f 43/43/43 40/40/40 34/34/34
f 38/38/38 44/44/44 37/37/37
f 37/37/37 44/44/44 36/36/36
f 44/44/44 45/45/45 36/36/36
f 45/45/45 42/42/42 36/36/36
f 32/32/32 46/46/46 39/39/39
f 39/39/39 46/46/46 38/38/38
f 41/41/41 46/46/46 32/32/32
f 46/46/46 47/47/47 38/38/38
f 47/47/47 44/44/44 38/38/38
f 40/40/40 48/48/48 41/41/41
f 43/43/43 48/48/48 40/40/40
f 42/42/42 48/48/48 43/43/43
f 45/45/45 48/48/48 42/42/42
f 44/44/44 48/48/48 45/45/45
f 47/47/47 48/48/48 44/44/44
f 46/46/46 48/48/48 47/47/47
f 41/41/41 48/48/48 46/46/46
