g Property_Prop_Teleport_02_Col
v 0.92508787 -0.049417436 -0.53409976
v 0.9917282 0.056176003 -4.8851367E-09
v 0.8588618 0.056176018 -0.4958641
v 1.0681995 -0.049417436 -1.2778509E-10
v 0.5340997 -0.049417436 -0.92508787
v 0.4958641 0.056176 -0.8588619
v -3.7131947E-08 -0.049417436 -1.0681995
v -4.219566E-08 0.056176003 -0.99172825
v -0.5340998 -0.049417436 -0.92508787
v -0.49586427 0.056176018 -0.8588619
v -0.92508787 -0.049417436 -0.5340998
v -0.8588618 0.056176018 -0.49586418
v -1.0681995 -0.049417436 -1.6142141E-07
v -0.99172825 0.056176003 -1.5463193E-07
v -0.9250879 -0.049417436 0.5340995
v -0.858862 0.05617602 0.49586394
v -0.53410006 -0.049417436 0.92508763
v -0.49586448 0.056176018 0.8588617
v -4.8705846E-07 -0.049417436 1.0681995
v -4.5991254E-07 0.056176003 0.9917282
v 0.53409916 -0.049417436 0.9250881
v 0.4958636 0.056175992 0.85886216
v 0.9250876 -0.049417436 0.53410035
v 0.8588616 0.056176003 0.49586466
v -0.8430926 0.051734332 -1.2938754E-07
v -0.7301396 0.051734347 -0.4215463
v -0.58416826 0.25370058 -8.1368015E-08
v -0.50590444 0.25370064 -0.29208413
v -0.44674355 0.2869544 -5.99638E-08
v -0.30513155 0.2869544 -0.3051315
v -0.29208422 0.25370058 -0.5059045
v -7.718441E-08 0.25370058 -0.58416826
v -9.279812E-08 0.2869544 -0.44674346
v 0.29208404 0.25370058 -0.5059045
v 0.3051314 0.2869544 -0.30513144
v 0.5059045 0.25370058 -0.29208413
v 0.58416826 0.25370058 6.838927E-09
v 0.44674337 0.2869544 7.492591E-09
v 0.30513123 0.2869544 0.30513167
v -0.30513164 0.2869544 0.30513138
v -0.50590456 0.25370064 0.29208395
v -0.2920844 0.2537006 0.5059043
v -2.8096687E-07 0.2869544 0.44674346
v -3.232366E-07 0.25370058 0.58416826
v 0.29208377 0.25370055 0.50590473
v 0.5059043 0.25370058 0.29208446
v 0.84309256 0.051734332 -2.0841002E-09
v 0.7301396 0.051734347 -0.42154625
v 0.42154625 0.05173432 -0.7301396
v -5.5190032E-08 0.051734332 -0.8430926
v -0.42154643 0.051734347 -0.7301396
v -0.7301397 0.05173436 0.42154616
v 0.42154583 0.051734313 0.73013973
v -4.1030142E-07 0.051734332 0.8430925
v -0.4215466 0.051734347 0.7301394
v 0.7301394 0.051734332 0.4215468
v 0.36670637 -0.049417436 -0.9506477
v 0.24452777 0.05442186 -1.0792422
v 0.26412976 -0.049417436 -1.1577284
v 0.33993202 0.05442187 -0.87994426
v 0.0033021355 0.054421857 -1.2785401
v 0.0039531565 -0.049417436 -1.3648093
v -0.25587943 -0.049417436 -1.1616598
v -0.23825468 0.054421853 -1.0828923
v -0.3586368 -0.049417436 -0.9585104
v -0.33348486 0.05442185 -0.8872444
v 0.6399319 -0.049417436 0.792901
v 0.8123872 0.05442186 0.75138843
v 0.87055737 -0.049417436 0.8076074
v 0.5920881 0.05442187 0.73436195
v 1.1055971 0.054421857 0.6421299
v 1.1799829 -0.049417436 0.6858282
v 1.1339667 -0.049417436 0.3592319
v 1.0569395 0.054421853 0.33511162
v 1.0094128 -0.049417436 0.16866666
v 0.9351186 0.05442185 0.15481588
v -1.0066383 -0.049417436 0.15774673
v -1.0569152 0.05442186 0.32785374
v -1.1346873 -0.049417436 0.35012102
v -0.93202007 0.05442187 0.14558229
v -1.1088994 0.054421857 0.63641024
v -1.183936 -0.049417436 0.67898095
v -0.8780872 -0.049417436 0.8024279
v -0.8186849 0.054421853 0.7477806
v -0.650776 -0.049417436 0.78984374
v -0.60163385 0.05442185 0.7324285
v -0.3586368 -0.049417436 -0.9585104
v 0.26412976 -0.049417436 -1.1577284
v -0.25587943 -0.049417436 -1.1616598
v 0.36670637 -0.049417436 -0.9506477
v 0.0039531565 -0.049417436 -1.3648093
v 1.0094128 -0.049417436 0.16866666
v 0.87055737 -0.049417436 0.8076074
v 1.1339667 -0.049417436 0.3592319
v 0.6399319 -0.049417436 0.792901
v 1.1799829 -0.049417436 0.6858282
v -0.650776 -0.049417436 0.78984374
v -1.1346873 -0.049417436 0.35012102
v -0.8780872 -0.049417436 0.8024279
v -1.0066383 -0.049417436 0.15774673
v -1.183936 -0.049417436 0.67898095
v 0.5920881 0.05442187 0.73436195
v 1.0094128 -0.049417436 0.16866666
v 0.9351186 0.05442185 0.15481588
v 0.6399319 -0.049417436 0.792901
v 0.33993202 0.05442187 -0.87994426
v -0.3586368 -0.049417436 -0.9585104
v -0.33348486 0.05442185 -0.8872444
v 0.36670637 -0.049417436 -0.9506477
v -0.93202007 0.05442187 0.14558229
v -0.650776 -0.049417436 0.78984374
v -0.60163385 0.05442185 0.7324285
v -1.0066383 -0.049417436 0.15774673
vn 0.7921648 -0.40410373 -0.45735666
vn 0.49973536 0.86617815 0
vn 0.4327837 0.86617804 -0.24986775
vn 0.9147131 -0.40410382 0
vn 0.45735657 -0.40410417 -0.7921647
vn 0.2498679 0.86617786 -0.43278384
vn -0 -0.40410382 -0.9147131
vn -0 0.866178 -0.49973562
vn -0.45735642 -0.40410402 -0.79216474
vn -0.24986795 0.86617786 -0.43278402
vn -0.79216474 -0.40410402 -0.4573565
vn -0.43278372 0.866178 -0.24986768
vn -0.9147131 -0.4041039 0
vn -0.49973553 0.86617804 0
vn -0.7921648 -0.40410405 0.45735627
vn -0.4327841 0.8661778 0.24986786
vn -0.45735675 -0.40410408 0.7921645
vn -0.24986817 0.8661778 0.43278387
vn -2.7924673E-07 -0.40410343 0.9147133
vn -1.294142E-07 0.86617815 0.49973541
vn 0.45735604 -0.40410405 0.792165
vn 0.24986759 0.86617786 0.43278414
vn 0.7921646 -0.40410367 0.4573571
vn 0.4327837 0.86617786 0.24986805
vn -0.25832215 0.96605885 0
vn -0.22371355 0.9660588 -0.12916107
vn -0.45765203 0.889118 0.0048717996
vn -0.39194128 0.8920644 -0.22495158
vn -0.14357477 0.989553 0.013077423
vn -0.08612558 0.9920447 -0.09181375
vn -0.216192 0.89629406 -0.38719252
vn -0.0048718452 0.88911813 -0.457652
vn -0.013077406 0.989553 -0.14357473
vn 0.22495167 0.89206433 -0.3919414
vn 0.09181373 0.9920447 -0.08612559
vn 0.38719246 0.89629406 -0.216192
vn 0.457652 0.88911813 -0.004871818
vn 0.14357467 0.989553 -0.013077398
vn 0.08612554 0.9920447 0.091813825
vn -0.09181372 0.9920447 0.08612554
vn -0.38719246 0.89629406 0.21619172
vn -0.22495177 0.89206433 0.39194125
vn 0.013077322 0.989553 0.14357468
vn 0.004871636 0.889118 0.4576521
vn 0.21619178 0.896294 0.3871928
vn 0.39194125 0.89206433 0.22495186
vn 0.2583221 0.96605885 0
vn 0.22371352 0.96605885 -0.12916107
vn 0.12916107 0.96605885 -0.2237135
vn -0 0.96605885 -0.2583221
vn -0.12916104 0.96605885 -0.22371346
vn -0.2237136 0.9660588 0.12916103
vn 0.12916096 0.9660588 0.22371373
vn -0 0.9660588 0.2583223
vn -0.12916115 0.9660588 0.22371355
vn 0.22371335 0.96605885 0.12916118
vn 0.7987081 0.46127528 -0.38638154
vn 0.4448389 0.8396911 -0.31150803
vn 0.6361089 0.53419155 -0.556781
vn 0.47404116 0.85075873 -0.22692426
vn 0.0017175045 0.8368393 -0.5474459
vn 0.003792345 0.6390404 -0.7691638
vn -0.6326401 0.52962685 -0.5650326
vn -0.4453208 0.8374557 -0.316792
vn -0.7989248 0.45478645 -0.39355874
vn -0.47049573 0.8521667 -0.22901039
vn -0.064737946 0.4612754 0.8848921
vn 0.047354337 0.8396911 0.5409958
vn 0.16413198 0.53419155 0.82927674
vn -0.040498503 0.85075885 0.5239936
vn 0.4732431 0.83683944 0.27521035
vn 0.664219 0.63904065 0.38786605
vn 0.8056525 0.52962714 -0.2653659
vn 0.49701032 0.8374558 -0.227263
vn 0.74029416 0.45478675 -0.49510953
vn 0.43357664 0.8521667 -0.29295588
vn -0.73397005 0.46127522 -0.49851102
vn -0.49219316 0.83969116 -0.22948791
vn -0.80024064 0.5341917 -0.27249604
vn -0.43354267 0.85075873 -0.29706964
vn -0.47496077 0.8368393 0.27223572
vn -0.6680117 0.63904023 0.3812977
vn -0.17301252 0.52962697 0.8303987
vn -0.05168958 0.8374558 0.54405504
vn 0.05863024 0.45478663 0.8886684
vn 0.03691888 0.8521667 0.52196646
vn -0 -1 0
vn -0 -1 0
vn -0 -1 0
vn -0 -1 0
vn -0 -1 0
vn -0 -1 0
vn -0 -1 0
vn -0 -1 0
vn -0 -1 0
vn -0 -1 0
vn -0 -1 0
vn -0 -1 0
vn -0 -1 0
vn -0 -1 0
vn -0 -1 0
vn -0.71040905 -0.564366 -0.42048776
vn -0.71040905 -0.564366 -0.42048776
vn -0.71040905 -0.5643661 -0.42048776
vn -0.71040833 -0.56436765 -0.42048684
vn -0.008948478 -0.5643658 0.8254763
vn -0.008948479 -0.5643658 0.8254763
vn -0.008948478 -0.56436586 0.8254763
vn -0.0089481305 -0.56436735 0.8254753
vn 0.7193578 -0.56436586 -0.4049884
vn 0.7193578 -0.5643658 -0.40498838
vn 0.7193578 -0.5643658 -0.40498838
vn 0.71935666 -0.56436735 -0.4049882
g Property_Prop_Teleport_02_Col_0
f 3/3/3 2/2/2 1/1/1
f 4/4/4 1/1/1 2/2/2
f 1/1/1 5/5/5 3/3/3
f 6/6/6 3/3/3 5/5/5
f 5/5/5 7/7/7 6/6/6
f 8/8/8 6/6/6 7/7/7
f 7/7/7 9/9/9 8/8/8
f 10/10/10 8/8/8 9/9/9
f 9/9/9 11/11/11 10/10/10
f 7/7/7 5/5/5 11/11/11
f 9/9/9 7/7/7 11/11/11
f 12/12/12 10/10/10 11/11/11
f 11/11/11 13/13/13 12/12/12
f 5/5/5 1/1/1 13/13/13
f 13/13/13 11/11/11 5/5/5
f 14/14/14 12/12/12 13/13/13
f 13/13/13 15/15/15 14/14/14
f 15/15/15 13/13/13 1/1/1
f 1/1/1 4/4/4 15/15/15
f 16/16/16 14/14/14 15/15/15
f 15/15/15 17/17/17 16/16/16
f 17/17/17 15/15/15 4/4/4
f 18/18/18 16/16/16 17/17/17
f 17/17/17 19/19/19 18/18/18
f 17/17/17 4/4/4 19/19/19
f 20/20/20 18/18/18 19/19/19
f 19/19/19 21/21/21 20/20/20
f 22/22/22 20/20/20 21/21/21
f 21/21/21 23/23/23 22/22/22
f 21/21/21 19/19/19 23/23/23
f 24/24/24 22/22/22 23/23/23
f 23/23/23 4/4/4 24/24/24
f 23/23/23 19/19/19 4/4/4
f 2/2/2 24/24/24 4/4/4
f 14/14/14 25/25/25 12/12/12
f 26/26/26 12/12/12 25/25/25
f 25/25/25 27/27/27 26/26/26
f 28/28/28 26/26/26 27/27/27
f 27/27/27 29/29/29 28/28/28
f 30/30/30 28/28/28 29/29/29
f 30/30/30 31/31/31 28/28/28
f 31/31/31 30/30/30 32/32/32
f 33/33/33 32/32/32 30/30/30
f 32/32/32 33/33/33 34/34/34
f 35/35/35 34/34/34 33/33/33
f 30/30/30 29/29/29 35/35/35
f 33/33/33 30/30/30 35/35/35
f 35/35/35 36/36/36 34/34/34
f 36/36/36 35/35/35 37/37/37
f 38/38/38 37/37/37 35/35/35
f 38/38/38 35/35/35 29/29/29
f 38/38/38 29/29/29 39/39/39
f 40/40/40 39/39/39 29/29/29
f 29/29/29 27/27/27 40/40/40
f 41/41/41 40/40/40 27/27/27
f 40/40/40 41/41/41 42/42/42
f 40/40/40 42/42/42 43/43/43
f 43/43/43 39/39/39 40/40/40
f 44/44/44 43/43/43 42/42/42
f 43/43/43 44/44/44 39/39/39
f 45/45/45 39/39/39 44/44/44
f 39/39/39 45/45/45 46/46/46
f 39/39/39 46/46/46 38/38/38
f 37/37/37 38/38/38 46/46/46
f 37/37/37 47/47/47 36/36/36
f 48/48/48 36/36/36 47/47/47
f 36/36/36 48/48/48 34/34/34
f 49/49/49 34/34/34 48/48/48
f 34/34/34 49/49/49 32/32/32
f 50/50/50 32/32/32 49/49/49
f 32/32/32 50/50/50 31/31/31
f 51/51/51 31/31/31 50/50/50
f 31/31/31 51/51/51 28/28/28
f 26/26/26 28/28/28 51/51/51
f 41/41/41 52/52/52 42/42/42
f 52/52/52 41/41/41 25/25/25
f 27/27/27 25/25/25 41/41/41
f 45/45/45 53/53/53 46/46/46
f 53/53/53 45/45/45 54/54/54
f 44/44/44 54/54/54 45/45/45
f 54/54/54 44/44/44 55/55/55
f 55/55/55 42/42/42 52/52/52
f 42/42/42 55/55/55 44/44/44
f 50/50/50 8/8/8 51/51/51
f 8/8/8 50/50/50 6/6/6
f 49/49/49 6/6/6 50/50/50
f 6/6/6 49/49/49 3/3/3
f 48/48/48 3/3/3 49/49/49
f 3/3/3 48/48/48 2/2/2
f 47/47/47 2/2/2 48/48/48
f 55/55/55 18/18/18 54/54/54
f 18/18/18 55/55/55 16/16/16
f 52/52/52 16/16/16 55/55/55
f 16/16/16 52/52/52 14/14/14
f 25/25/25 14/14/14 52/52/52
f 2/2/2 47/47/47 24/24/24
f 56/56/56 24/24/24 47/47/47
f 47/47/47 37/37/37 56/56/56
f 46/46/46 56/56/56 37/37/37
f 56/56/56 46/46/46 53/53/53
f 53/53/53 22/22/22 56/56/56
f 24/24/24 56/56/56 22/22/22
f 22/22/22 53/53/53 20/20/20
f 20/20/20 54/54/54 18/18/18
f 54/54/54 20/20/20 53/53/53
f 10/10/10 51/51/51 8/8/8
f 51/51/51 10/10/10 26/26/26
f 12/12/12 26/26/26 10/10/10
f 59/59/59 58/58/58 57/57/57
f 60/60/60 57/57/57 58/58/58
f 58/58/58 59/59/59 61/61/61
f 62/62/62 61/61/61 59/59/59
f 62/62/62 63/63/63 61/61/61
f 64/64/64 61/61/61 63/63/63
f 64/64/64 58/58/58 61/61/61
f 63/63/63 65/65/65 64/64/64
f 66/66/66 64/64/64 65/65/65
f 64/64/64 66/66/66 58/58/58
f 60/60/60 58/58/58 66/66/66
f 69/69/69 68/68/68 67/67/67
f 70/70/70 67/67/67 68/68/68
f 68/68/68 69/69/69 71/71/71
f 72/72/72 71/71/71 69/69/69
f 72/72/72 73/73/73 71/71/71
f 74/74/74 71/71/71 73/73/73
f 74/74/74 68/68/68 71/71/71
f 73/73/73 75/75/75 74/74/74
f 76/76/76 74/74/74 75/75/75
f 74/74/74 76/76/76 68/68/68
f 70/70/70 68/68/68 76/76/76
f 79/79/79 78/78/78 77/77/77
f 80/80/80 77/77/77 78/78/78
f 78/78/78 79/79/79 81/81/81
f 82/82/82 81/81/81 79/79/79
f 82/82/82 83/83/83 81/81/81
f 84/84/84 81/81/81 83/83/83
f 84/84/84 78/78/78 81/81/81
f 83/83/83 85/85/85 84/84/84
f 86/86/86 84/84/84 85/85/85
f 84/84/84 86/86/86 78/78/78
f 80/80/80 78/78/78 86/86/86
f 89/89/89 88/88/88 87/87/87
f 90/90/90 87/87/87 88/88/88
f 91/91/91 88/88/88 89/89/89
f 94/94/94 93/93/93 92/92/92
f 95/95/95 92/92/92 93/93/93
f 96/96/96 93/93/93 94/94/94
f 99/99/99 98/98/98 97/97/97
f 100/100/100 97/97/97 98/98/98
f 101/101/101 98/98/98 99/99/99
f 104/104/104 103/103/103 102/102/102
f 105/105/105 102/102/102 103/103/103
f 108/108/108 107/107/107 106/106/106
f 109/109/109 106/106/106 107/107/107
f 112/112/112 111/111/111 110/110/110
f 113/113/113 110/110/110 111/111/111
