g Stages_Gear_Teleport01_Col
v -7.6293944E-08 -0.092081755 1.2318294E-08
v 0.46404883 0.58859646 1.97218E-09
v 0.4018781 0.58859646 -0.23202442
v 0.23202437 0.58859646 -0.40187812
v -3.082253E-08 0.58859646 -0.46404883
v 0.40187794 0.58859646 0.2320247
v 0.22675543 0.8399507 6.8759443E-09
v 0.19637594 0.8399507 -0.11337772
v 0.113377675 0.8399507 -0.19637601
v -5.421459E-08 0.8399507 -0.22675546
v 0.19637586 0.8399507 0.113377884
v 0.11337757 0.8399507 0.19637606
v 0.23202416 0.58859646 0.4018782
v -7.6293944E-08 -0.092081755 1.2318294E-08
v -2.2628035E-07 0.58859646 0.46404883
v -0.23202457 0.58859646 0.401878
v -0.40187812 0.58859646 0.23202433
v -0.46404883 0.58859646 -6.809724E-08
v -0.4018781 0.58859646 -0.23202446
v -0.23202448 0.58859646 -0.4018781
v -3.082253E-08 0.58859646 -0.46404883
v -5.421459E-08 0.8399507 -0.22675546
v -0.113377795 0.8399507 -0.19637598
v -0.19637606 0.8399507 -0.11337773
v -0.2267555 0.8399507 -2.7363175E-08
v -0.19637606 0.8399507 0.113377705
v -0.11337785 0.8399507 0.19637595
v -1.497242E-07 0.8399507 0.22675546
v -0.056159165 1.0913049 -0.09727039
v -6.521346E-08 1.0913049 -0.11231819
v -0.08228523 1.5926362 -0.14252208
v -5.961403E-08 1.5926362 -0.16457035
v -0.14252216 1.5926362 -0.082285166
v -0.09727049 1.0913049 -0.056159094
v -0.16457042 1.5926362 -1.4586746E-08
v -0.112318285 1.0913049 -4.683862E-09
v -0.14252219 1.5926362 0.08228515
v -0.0972705 1.0913049 0.05615909
v -0.08228527 1.5926362 0.1425221
v -0.05615919 1.0913049 0.09727041
v -1.289312E-07 1.5926362 0.16457035
v -1.1252199E-07 1.0913049 0.11231824
v 0.08228504 1.5926362 0.14252217
v 0.05615898 1.0913049 0.09727047
v 0.14252199 1.5926362 0.08228528
v 0.09727032 1.0913049 0.056159183
v 0.16457027 1.5926362 1.0262682E-08
v 0.11231815 1.0913049 1.22757156E-08
v 0.14252205 1.5926362 -0.082285166
v 0.097270355 1.0913049 -0.056159094
v 0.08228511 1.5926362 -0.14252208
v 0.056159038 1.0913049 -0.09727042
v -5.961403E-08 1.5926362 -0.16457035
v -6.521346E-08 1.0913049 -0.11231819
v 0.48772874 1.8235502 -0.28159034
v 0.5631807 1.8235502 -5.5360716E-10
v 0.2815903 1.8235502 -0.4877288
v -2.1787855E-08 1.8235502 -0.5631807
v 0.4877286 1.8235502 0.28159067
v 0.43116653 2.1642926 4.9134767E-09
v 0.2437145 2.1642926 -0.14070866
v 0.14070861 2.1642926 -0.24371456
v -3.5638102E-08 2.1642926 -0.43116653
v 0.24371442 2.1642926 0.14070883
v 0.14070848 2.1642926 0.24371462
v 0.28159004 1.8235502 0.48772892
v -2.5900007E-07 1.8235502 0.5631807
v -0.2815905 1.8235502 0.4877287
v -0.48772883 1.8235502 0.28159022
v -0.5631807 1.8235502 -8.559152E-08
v -0.48772874 1.8235502 -0.28159037
v -0.28159037 1.8235502 -0.48772874
v -2.1787855E-08 1.8235502 -0.5631807
v -3.5638102E-08 2.1642926 -0.43116653
v -0.14070873 2.1642926 -0.24371454
v -0.2437146 2.1642926 -0.14070868
v -0.43116653 2.1642926 -6.019086E-08
v -0.24371465 2.1642926 0.14070861
v -0.1407088 2.1642926 0.24371451
v -2.1724583E-07 2.1642926 0.43116653
v 0.43116653 2.1642926 4.9134767E-09
v 0.45619574 2.4946628 4.22989E-09
v 0.21404663 2.4946628 -0.1235799
v 0.2437145 2.1642926 -0.14070866
v 0.123579875 2.4946628 -0.2140467
v 0.14070861 2.1642926 -0.24371456
v 0.21404663 2.4946628 -0.1235799
v 0.14070861 2.1642926 -0.24371456
v 0.123579875 2.4946628 -0.2140467
v -3.5638102E-08 2.1642926 -0.43116653
v -3.5638102E-08 2.1642926 -0.43116653
v -3.267829E-08 2.4946628 -0.45619574
v -0.123579964 2.4946628 -0.21404669
v -0.14070873 2.1642926 -0.24371454
v -0.21404675 2.4946628 -0.12357992
v -0.2437146 2.1642926 -0.14070868
v -0.123579964 2.4946628 -0.21404669
v -0.2437146 2.1642926 -0.14070868
v -0.21404675 2.4946628 -0.12357992
v -0.43116653 2.1642926 -6.019086E-08
v -0.43116653 2.1642926 -6.019086E-08
v -0.45619574 2.4946628 -6.4653754E-08
v -0.21404679 2.4946628 0.12357989
v -0.24371465 2.1642926 0.14070861
v -0.123580046 2.4946628 0.21404666
v -0.1407088 2.1642926 0.24371451
v -0.21404679 2.4946628 0.12357989
v -0.1407088 2.1642926 0.24371451
v -0.123580046 2.4946628 0.21404666
v -2.1724583E-07 2.1642926 0.43116653
v -2.1724583E-07 2.1642926 0.43116653
v -2.2482836E-07 2.4946628 0.45619574
v 0.12357974 2.4946628 0.21404675
v 0.14070848 2.1642926 0.24371462
v 0.21404654 2.4946628 0.12358007
v 0.24371442 2.1642926 0.14070883
v 0.12357974 2.4946628 0.21404675
v 0.24371442 2.1642926 0.14070883
v 0.21404654 2.4946628 0.12358007
v 0.43116653 2.1642926 4.9134767E-09
v 0.43116653 2.1642926 4.9134767E-09
v 0.21404663 2.4946628 -0.1235799
v 0.2437145 2.1642926 -0.14070866
v -3.5638102E-08 2.1642926 -0.43116653
v 0.123579875 2.4946628 -0.2140467
v -3.267829E-08 2.4946628 -0.45619574
v -3.5638102E-08 2.1642926 -0.43116653
v -0.123579964 2.4946628 -0.21404669
v -0.14070873 2.1642926 -0.24371454
v -0.43116653 2.1642926 -6.019086E-08
v -0.21404675 2.4946628 -0.12357992
v -0.45619574 2.4946628 -6.4653754E-08
v -0.43116653 2.1642926 -6.019086E-08
v -0.21404679 2.4946628 0.12357989
v -0.24371465 2.1642926 0.14070861
v -2.1724583E-07 2.1642926 0.43116653
v -0.123580046 2.4946628 0.21404666
v -2.2482836E-07 2.4946628 0.45619574
v -2.1724583E-07 2.1642926 0.43116653
v 0.12357974 2.4946628 0.21404675
v 0.14070848 2.1642926 0.24371462
v 0.43116653 2.1642926 4.9134767E-09
v 0.21404654 2.4946628 0.12358007
v 0.45619574 2.4946628 4.22989E-09
v 0.45619574 2.4946628 4.22989E-09
v -8.106232E-08 2.3403988 1.5099843E-08
v 0.21404663 2.4946628 -0.1235799
v 0.21404663 2.4946628 -0.1235799
v -8.106232E-08 2.3403988 1.5099843E-08
v 0.123579875 2.4946628 -0.2140467
v 0.123579875 2.4946628 -0.2140467
v -8.106232E-08 2.3403988 1.5099843E-08
v -3.267829E-08 2.4946628 -0.45619574
v -3.267829E-08 2.4946628 -0.45619574
v -8.106232E-08 2.3403988 1.5099843E-08
v -0.123579964 2.4946628 -0.21404669
v -0.123579964 2.4946628 -0.21404669
v -8.106232E-08 2.3403988 1.5099843E-08
v -0.21404675 2.4946628 -0.12357992
v -0.21404675 2.4946628 -0.12357992
v -8.106232E-08 2.3403988 1.5099843E-08
v -0.45619574 2.4946628 -6.4653754E-08
v -0.45619574 2.4946628 -6.4653754E-08
v -8.106232E-08 2.3403988 1.5099843E-08
v -0.21404679 2.4946628 0.12357989
v -0.21404679 2.4946628 0.12357989
v -8.106232E-08 2.3403988 1.5099843E-08
v -0.123580046 2.4946628 0.21404666
v -0.123580046 2.4946628 0.21404666
v -8.106232E-08 2.3403988 1.5099843E-08
v -2.2482836E-07 2.4946628 0.45619574
v -2.2482836E-07 2.4946628 0.45619574
v -8.106232E-08 2.3403988 1.5099843E-08
v 0.12357974 2.4946628 0.21404675
v 0.12357974 2.4946628 0.21404675
v -8.106232E-08 2.3403988 1.5099843E-08
v 0.21404654 2.4946628 0.12358007
v 0.21404654 2.4946628 0.12358007
v -8.106232E-08 2.3403988 1.5099843E-08
v 0.45619574 2.4946628 4.22989E-09
vt 0.875 0
vt 0.75 0.19999999
vt 0.8333333 0.19999999
vt 0.9166667 0.19999999
vt 1 0.19999999
vt 0.66666657 0.19999999
vt 0.75 0.3
vt 0.8333333 0.3
vt 0.9166667 0.3
vt 1 0.3
vt 0.66666657 0.3
vt 0.58333325 0.3
vt 0.58333325 0.19999999
vt 0.33333328 0
vt 0.4999999 0.19999999
vt 0.41666666 0.19999999
vt 0.33333328 0.19999999
vt 0.24999999 0.19999999
vt 0.16666667 0.19999999
vt 0.08333339 0.19999999
vt 3.7945494E-08 0.19999999
vt 3.7945494E-08 0.3
vt 0.08333339 0.3
vt 0.16666667 0.3
vt 0.24999999 0.3
vt 0.33333328 0.3
vt 0.41666666 0.3
vt 0.4999999 0.3
vt 0.08333339 0.4
vt 3.7945494E-08 0.4
vt 0.08333339 0.6
vt 3.7945494E-08 0.6
vt 0.16666667 0.6
vt 0.16666667 0.4
vt 0.24999999 0.6
vt 0.24999999 0.4
vt 0.33333328 0.6
vt 0.33333328 0.4
vt 0.41666666 0.6
vt 0.41666666 0.4
vt 0.4999999 0.6
vt 0.4999999 0.4
vt 0.58333325 0.6
vt 0.58333325 0.4
vt 0.66666657 0.6
vt 0.66666657 0.4
vt 0.75 0.6
vt 0.75 0.4
vt 0.8333333 0.6
vt 0.8333333 0.4
vt 0.9166667 0.6
vt 0.9166667 0.4
vt 1 0.6
vt 1 0.4
vt 0.8333333 0.8
vt 0.75 0.8
vt 0.9166667 0.8
vt 1 0.8
vt 0.66666657 0.8
vt 0.75 0.9
vt 0.8333333 0.9
vt 0.9166667 0.9
vt 1 0.9
vt 0.66666657 0.9
vt 0.58333325 0.9
vt 0.58333325 0.8
vt 0.4999999 0.8
vt 0.41666666 0.8
vt 0.33333328 0.8
vt 0.24999999 0.8
vt 0.16666667 0.8
vt 0.08333339 0.8
vt 3.7945494E-08 0.8
vt 3.7945494E-08 0.9
vt 0.08333339 0.9
vt 0.16666667 0.9
vt 0.24999999 0.9
vt 0.33333328 0.9
vt 0.41666666 0.9
vt 0.4999999 0.9
vt 0.75 0.9
vt 0.75 0.9
vt 0.8333333 0.9
vt 0.8333333 0.9
vt 0.9166667 0.9
vt 0.9166667 0.9
vt 0.8333333 0.9
vt 0.9166667 0.9
vt 0.9166667 0.9
vt 1 0.9
vt 3.7945494E-08 0.9
vt 3.7945494E-08 0.9
vt 0.08333339 0.9
vt 0.08333339 0.9
vt 0.16666667 0.9
vt 0.16666667 0.9
vt 0.08333339 0.9
vt 0.16666667 0.9
vt 0.16666667 0.9
vt 0.24999999 0.9
vt 0.24999999 0.9
vt 0.24999999 0.9
vt 0.33333328 0.9
vt 0.33333328 0.9
vt 0.41666666 0.9
vt 0.41666666 0.9
vt 0.33333328 0.9
vt 0.41666666 0.9
vt 0.41666666 0.9
vt 0.4999999 0.9
vt 0.4999999 0.9
vt 0.4999999 0.9
vt 0.58333325 0.9
vt 0.58333325 0.9
vt 0.66666657 0.9
vt 0.66666657 0.9
vt 0.58333325 0.9
vt 0.66666657 0.9
vt 0.66666657 0.9
vt 0.75 0.9
vt 0.75 0.9
vt 0.8333333 0.9
vt 0.8333333 0.9
vt 1 0.9
vt 0.9166667 0.9
vt 1 0.9
vt 3.7945494E-08 0.9
vt 0.08333339 0.9
vt 0.08333339 0.9
vt 0.24999999 0.9
vt 0.16666667 0.9
vt 0.24999999 0.9
vt 0.24999999 0.9
vt 0.33333328 0.9
vt 0.33333328 0.9
vt 0.4999999 0.9
vt 0.41666666 0.9
vt 0.4999999 0.9
vt 0.4999999 0.9
vt 0.58333325 0.9
vt 0.58333325 0.9
vt 0.75 0.9
vt 0.66666657 0.9
vt 0.75 0.9
vt 0.75 0.9
vt 0.5416666 0.9
vt 0.8333333 0.9
vt 0.8333333 0.9
vt 0.5416666 0.9
vt 0.9166667 0.9
vt 0.9166667 0.9
vt 0.5416666 0.9
vt 1 0.9
vt 3.7945494E-08 0.9
vt 0.5416666 0.9
vt 0.08333339 0.9
vt 0.08333339 0.9
vt 0.5416666 0.9
vt 0.16666667 0.9
vt 0.16666667 0.9
vt 0.5416666 0.9
vt 0.24999999 0.9
vt 0.24999999 0.9
vt 0.5416666 0.9
vt 0.33333328 0.9
vt 0.33333328 0.9
vt 0.5416666 0.9
vt 0.41666666 0.9
vt 0.41666666 0.9
vt 0.5416666 0.9
vt 0.4999999 0.9
vt 0.4999999 0.9
vt 0.5416666 0.9
vt 0.58333325 0.9
vt 0.58333325 0.9
vt 0.5416666 0.9
vt 0.66666657 0.9
vt 0.66666657 0.9
vt 0.5416666 0.9
vt 0.75 0.9
vn -2.7776863E-07 -1 2.6233704E-07
vn 0.99740666 0.07197086 1.2831651E-07
vn 0.86377954 0.07197089 -0.49870333
vn 0.49870333 0.07197094 -0.86377954
vn -0 0.0719709 -0.99740666
vn 0.8637793 0.07197085 0.49870387
vn 0.82103336 0.5708803 1.347339E-07
vn 0.7110358 0.57088023 -0.41051665
vn 0.41051665 0.57088023 -0.7110358
vn -1.0105042E-07 0.5708801 -0.82103336
vn 0.7110355 0.5708803 0.41051716
vn 0.41051632 0.5708801 0.7110361
vn 0.49870276 0.071970835 0.8637799
vn -2.7776863E-07 -1 2.6233704E-07
vn -4.0228957E-07 0.07197086 0.99740666
vn -0.49870372 0.07197081 0.86377937
vn -0.8637797 0.071970895 0.4987031
vn -0.99740666 0.07197095 0
vn -0.86377954 0.071970925 -0.49870333
vn -0.49870333 0.07197086 -0.86377954
vn -0 0.0719709 -0.99740666
vn -1.0105042E-07 0.5708801 -0.82103336
vn -0.4105167 0.5708802 -0.7110358
vn -0.71103585 0.5708801 -0.41051665
vn -0.8210335 0.57088006 0
vn -0.71103597 0.5708801 0.41051656
vn -0.410517 0.5708801 0.7110357
vn -3.4645853E-07 0.5708801 0.82103336
vn -0.49286637 0.1683181 -0.8536696
vn -2.6756547E-07 0.16831811 -0.98573273
vn -0.40702787 -0.58078676 -0.70499295
vn -0 -0.5807868 -0.8140556
vn -0.7049929 -0.5807868 -0.407028
vn -0.85366946 0.16831811 -0.4928666
vn -0.8140557 -0.58078676 -1.4547629E-07
vn -0.98573273 0.16831811 -1.2162066E-07
vn -0.704993 -0.5807868 0.40702778
vn -0.8536696 0.16831805 0.4928663
vn -0.40702796 -0.5807868 0.7049928
vn -0.49286672 0.16831805 0.8536694
vn -4.1728723E-07 -0.58078676 0.8140557
vn -5.010771E-07 0.16831811 0.98573273
vn 0.40702742 -0.5807869 0.7049932
vn 0.49286604 0.16831805 0.85366976
vn 0.7049927 -0.5807869 0.4070281
vn 0.85366935 0.16831812 0.49286687
vn 0.8140556 -0.5807868 1.505807E-07
vn 0.98573273 0.16831812 1.7148513E-07
vn 0.7049929 -0.5807869 -0.40702778
vn 0.85366946 0.16831811 -0.4928664
vn 0.40702787 -0.58078676 -0.70499295
vn 0.49286625 0.16831811 -0.8536696
vn -0 -0.5807868 -0.8140556
vn -2.6756547E-07 0.16831811 -0.98573273
vn 0.81650054 -0.20637782 -0.53919864
vn 0.965675 -0.2525665 0.060680274
vn 0.49372447 -0.15793777 -0.85515594
vn 0.060680132 -0.25256664 -0.9656749
vn 0.8551557 -0.15793762 0.49372494
vn 0.83903944 0.51871747 0.16414961
vn 0.5211084 0.61699796 -0.58971137
vn 0.5608579 0.54395264 -0.6241426
vn 0.1641498 0.51871735 -0.8390393
vn 0.62414247 0.54395276 0.560858
vn 0.5897111 0.61699796 0.52110875
vn 0.53919804 -0.20637773 0.81650084
vn -0.060680557 -0.25256664 0.9656749
vn -0.49372482 -0.15793766 0.8551559
vn -0.81650066 -0.20637769 0.5391984
vn -0.9656749 -0.25256658 -0.06068029
vn -0.85515594 -0.15793775 -0.49372455
vn -0.53919864 -0.20637773 -0.81650054
vn 0.060680132 -0.25256664 -0.9656749
vn 0.1641498 0.51871735 -0.8390393
vn -0.58971137 0.61699796 -0.52110845
vn -0.62414265 0.5439526 -0.5608579
vn -0.83903944 0.51871735 -0.16414985
vn -0.5211087 0.6169979 0.58971137
vn -0.5608581 0.5439525 0.62414247
vn -0.16414997 0.5187174 0.8390393
vn 0.4543015 -0.034418438 -0.89018285
vn 0.45430148 -0.034418434 -0.89018285
vn 0.45430148 -0.034418438 -0.89018285
vn 0.7035864 0.0996623 -0.7035862
vn 0.7035864 0.099662304 -0.7035862
vn 0.7035864 0.0996623 -0.7035862
vn 0.7035865 0.099662356 -0.70358616
vn 0.79614204 0.09494459 -0.5976148
vn 0.79614204 0.09494459 -0.5976148
vn 0.79614204 0.09494459 -0.5976148
vn -0.8901828 -0.03441837 -0.45430166
vn -0.8901828 -0.03441837 -0.45430166
vn -0.8901828 -0.03441837 -0.4543017
vn -0.7035863 0.09966232 -0.70358634
vn -0.7035863 0.09966232 -0.70358634
vn -0.7035863 0.09966232 -0.70358634
vn -0.70358634 0.09966233 -0.70358634
vn -0.5976148 0.09494466 -0.79614204
vn -0.5976148 0.09494466 -0.79614204
vn -0.5976148 0.09494468 -0.79614204
vn -0.4543019 -0.034418415 0.8901827
vn -0.4543019 -0.034418415 0.8901827
vn -0.45430195 -0.03441842 0.8901827
vn -0.70358646 0.09966231 0.70358616
vn -0.70358646 0.09966231 0.70358616
vn -0.70358646 0.09966233 0.70358616
vn -0.7035864 0.09966225 0.7035862
vn -0.7961422 0.09494463 0.5976145
vn -0.7961422 0.09494463 0.5976145
vn -0.7961422 0.09494462 0.59761447
vn 0.8901827 -0.03441841 0.4543019
vn 0.8901827 -0.034418408 0.4543019
vn 0.8901827 -0.034418408 0.4543019
vn 0.70358574 0.09966239 0.7035869
vn 0.70358574 0.09966239 0.7035869
vn 0.70358574 0.099662386 0.7035869
vn 0.7035859 0.099662334 0.70358676
vn 0.597615 0.09494475 0.7961418
vn 0.597615 0.094944745 0.7961418
vn 0.59761506 0.09494476 0.7961418
vn 0.5976146 0.09494466 -0.7961421
vn 0.59761465 0.09494466 -0.7961421
vn 0.59761465 0.09494466 -0.79614204
vn 0.89018285 -0.034418408 -0.45430163
vn 0.89018285 -0.034418408 -0.45430163
vn 0.8901828 -0.034418408 -0.45430166
vn -0.7961419 0.09494465 -0.5976149
vn -0.7961419 0.09494465 -0.5976149
vn -0.7961419 0.09494465 -0.5976149
vn -0.45430148 -0.034418408 -0.89018285
vn -0.4543015 -0.034418408 -0.89018285
vn -0.45430157 -0.034418408 -0.89018285
vn -0.59761506 0.094944574 0.7961418
vn -0.59761506 0.094944574 0.7961418
vn -0.59761506 0.09494457 0.7961419
vn -0.890183 -0.0344184 0.45430127
vn -0.890183 -0.0344184 0.45430133
vn -0.890183 -0.0344184 0.45430127
vn 0.7961419 0.09494463 0.59761506
vn 0.7961418 0.094944626 0.597615
vn 0.7961419 0.09494463 0.59761506
vn 0.4543019 -0.034418423 0.8901827
vn 0.4543019 -0.034418423 0.8901827
vn 0.4543019 -0.034418423 0.8901827
vn -0.27131543 0.8023453 0.5316297
vn -0.27131546 0.8023453 0.5316297
vn -0.27131543 0.8023453 0.5316297
vn -0.38376197 0.8399129 0.38376176
vn -0.38376203 0.8399129 0.38376176
vn -0.38376197 0.8399129 0.38376176
vn -0.53162944 0.8023453 0.27131546
vn -0.5316295 0.80234534 0.27131543
vn -0.53162944 0.80234534 0.27131546
vn 0.53162956 0.8023453 0.27131554
vn 0.53162956 0.8023453 0.27131554
vn 0.53162956 0.8023453 0.27131554
vn 0.38376194 0.8399128 0.38376197
vn 0.3837619 0.8399128 0.38376194
vn 0.3837619 0.8399128 0.38376197
vn 0.2713155 0.8023452 0.53162974
vn 0.27131546 0.8023452 0.53162974
vn 0.2713155 0.8023452 0.53162974
vn 0.2713157 0.8023453 -0.53162944
vn 0.2713157 0.8023453 -0.53162944
vn 0.2713157 0.8023453 -0.53162944
vn 0.38376197 0.8399129 -0.3837619
vn 0.38376197 0.8399128 -0.38376185
vn 0.38376197 0.8399128 -0.38376185
vn 0.5316297 0.8023453 -0.27131537
vn 0.5316297 0.8023453 -0.27131537
vn 0.5316297 0.8023453 -0.27131537
vn -0.5316295 0.8023453 -0.2713157
vn -0.5316295 0.8023453 -0.2713157
vn -0.5316295 0.8023453 -0.2713157
vn -0.3837617 0.8399128 -0.38376215
vn -0.3837617 0.8399128 -0.38376215
vn -0.3837617 0.8399128 -0.38376215
vn -0.27131557 0.8023455 -0.53162926
vn -0.27131554 0.8023454 -0.5316292
vn -0.27131552 0.8023454 -0.5316292
g Stages_Gear_Teleport01_Col_0
f 3/3/3 2/2/2 1/1/1
f 4/4/4 3/3/3 1/1/1
f 5/5/5 4/4/4 1/1/1
f 2/2/2 6/6/6 1/1/1
f 2/2/2 3/3/3 7/7/7
f 8/8/8 7/7/7 3/3/3
f 3/3/3 4/4/4 8/8/8
f 9/9/9 8/8/8 4/4/4
f 4/4/4 5/5/5 9/9/9
f 10/10/10 9/9/9 5/5/5
f 7/7/7 11/11/11 2/2/2
f 6/6/6 2/2/2 11/11/11
f 11/11/11 12/12/12 6/6/6
f 13/13/13 6/6/6 12/12/12
f 6/6/6 13/13/13 14/14/14
f 13/13/13 15/15/15 14/14/14
f 15/15/15 16/16/16 14/14/14
f 16/16/16 17/17/17 14/14/14
f 17/17/17 18/18/18 14/14/14
f 18/18/18 19/19/19 14/14/14
f 19/19/19 20/20/20 14/14/14
f 20/20/20 21/21/21 14/14/14
f 21/21/21 20/20/20 22/22/22
f 23/23/23 22/22/22 20/20/20
f 20/20/20 19/19/19 23/23/23
f 24/24/24 23/23/23 19/19/19
f 19/19/19 18/18/18 24/24/24
f 25/25/25 24/24/24 18/18/18
f 18/18/18 17/17/17 25/25/25
f 26/26/26 25/25/25 17/17/17
f 17/17/17 16/16/16 26/26/26
f 27/27/27 26/26/26 16/16/16
f 16/16/16 15/15/15 27/27/27
f 28/28/28 27/27/27 15/15/15
f 15/15/15 13/13/13 28/28/28
f 12/12/12 28/28/28 13/13/13
f 23/23/23 29/29/29 22/22/22
f 30/30/30 22/22/22 29/29/29
f 29/29/29 31/31/31 30/30/30
f 32/32/32 30/30/30 31/31/31
f 31/31/31 29/29/29 33/33/33
f 34/34/34 33/33/33 29/29/29
f 29/29/29 23/23/23 34/34/34
f 24/24/24 34/34/34 23/23/23
f 33/33/33 34/34/34 35/35/35
f 36/36/36 35/35/35 34/34/34
f 34/34/34 24/24/24 36/36/36
f 25/25/25 36/36/36 24/24/24
f 35/35/35 36/36/36 37/37/37
f 38/38/38 37/37/37 36/36/36
f 36/36/36 25/25/25 38/38/38
f 26/26/26 38/38/38 25/25/25
f 37/37/37 38/38/38 39/39/39
f 40/40/40 39/39/39 38/38/38
f 38/38/38 26/26/26 40/40/40
f 27/27/27 40/40/40 26/26/26
f 39/39/39 40/40/40 41/41/41
f 42/42/42 41/41/41 40/40/40
f 41/41/41 42/42/42 43/43/43
f 44/44/44 43/43/43 42/42/42
f 43/43/43 44/44/44 45/45/45
f 46/46/46 45/45/45 44/44/44
f 45/45/45 46/46/46 47/47/47
f 48/48/48 47/47/47 46/46/46
f 47/47/47 48/48/48 49/49/49
f 50/50/50 49/49/49 48/48/48
f 49/49/49 50/50/50 51/51/51
f 52/52/52 51/51/51 50/50/50
f 51/51/51 52/52/52 53/53/53
f 54/54/54 53/53/53 52/52/52
f 49/49/49 55/55/55 47/47/47
f 56/56/56 47/47/47 55/55/55
f 47/47/47 56/56/56 45/45/45
f 51/51/51 57/57/57 49/49/49
f 55/55/55 49/49/49 57/57/57
f 53/53/53 58/58/58 51/51/51
f 57/57/57 51/51/51 58/58/58
f 45/45/45 59/59/59 43/43/43
f 59/59/59 45/45/45 56/56/56
f 56/56/56 55/55/55 60/60/60
f 61/61/61 60/60/60 55/55/55
f 55/55/55 57/57/57 61/61/61
f 62/62/62 61/61/61 57/57/57
f 57/57/57 58/58/58 62/62/62
f 63/63/63 62/62/62 58/58/58
f 60/60/60 64/64/64 56/56/56
f 59/59/59 56/56/56 64/64/64
f 64/64/64 65/65/65 59/59/59
f 66/66/66 59/59/59 65/65/65
f 66/66/66 43/43/43 59/59/59
f 43/43/43 66/66/66 41/41/41
f 67/67/67 41/41/41 66/66/66
f 41/41/41 67/67/67 39/39/39
f 68/68/68 39/39/39 67/67/67
f 39/39/39 68/68/68 37/37/37
f 69/69/69 37/37/37 68/68/68
f 37/37/37 69/69/69 35/35/35
f 70/70/70 35/35/35 69/69/69
f 35/35/35 70/70/70 33/33/33
f 71/71/71 33/33/33 70/70/70
f 33/33/33 71/71/71 31/31/31
f 72/72/72 31/31/31 71/71/71
f 31/31/31 72/72/72 32/32/32
f 73/73/73 32/32/32 72/72/72
f 73/73/73 72/72/72 74/74/74
f 75/75/75 74/74/74 72/72/72
f 72/72/72 71/71/71 75/75/75
f 76/76/76 75/75/75 71/71/71
f 71/71/71 70/70/70 76/76/76
f 77/77/77 76/76/76 70/70/70
f 70/70/70 69/69/69 77/77/77
f 78/78/78 77/77/77 69/69/69
f 69/69/69 68/68/68 78/78/78
f 79/79/79 78/78/78 68/68/68
f 80/80/80 79/79/79 67/67/67
f 68/68/68 67/67/67 79/79/79
f 67/67/67 66/66/66 80/80/80
f 65/65/65 80/80/80 66/66/66
f 48/48/48 7/7/7 50/50/50
f 8/8/8 50/50/50 7/7/7
f 50/50/50 8/8/8 52/52/52
f 9/9/9 52/52/52 8/8/8
f 52/52/52 9/9/9 54/54/54
f 10/10/10 54/54/54 9/9/9
f 7/7/7 48/48/48 11/11/11
f 46/46/46 11/11/11 48/48/48
f 11/11/11 46/46/46 12/12/12
f 44/44/44 12/12/12 46/46/46
f 12/12/12 44/44/44 28/28/28
f 42/42/42 28/28/28 44/44/44
f 28/28/28 42/42/42 27/27/27
f 40/40/40 27/27/27 42/42/42
f 83/83/83 82/82/82 81/81/81
f 86/86/86 85/85/85 84/84/84
f 87/87/87 84/84/84 85/85/85
f 90/90/90 89/89/89 88/88/88
f 93/93/93 92/92/92 91/91/91
f 96/96/96 95/95/95 94/94/94
f 97/97/97 94/94/94 95/95/95
f 100/100/100 99/99/99 98/98/98
f 103/103/103 102/102/102 101/101/101
f 106/106/106 105/105/105 104/104/104
f 107/107/107 104/104/104 105/105/105
f 110/110/110 109/109/109 108/108/108
f 113/113/113 112/112/112 111/111/111
f 116/116/116 115/115/115 114/114/114
f 117/117/117 114/114/114 115/115/115
f 120/120/120 119/119/119 118/118/118
f 123/123/123 122/122/122 121/121/121
f 126/126/126 125/125/125 124/124/124
f 129/129/129 128/128/128 127/127/127
f 132/132/132 131/131/131 130/130/130
f 135/135/135 134/134/134 133/133/133
f 138/138/138 137/137/137 136/136/136
f 141/141/141 140/140/140 139/139/139
f 144/144/144 143/143/143 142/142/142
f 147/147/147 146/146/146 145/145/145
f 150/150/150 149/149/149 148/148/148
f 153/153/153 152/152/152 151/151/151
f 156/156/156 155/155/155 154/154/154
f 159/159/159 158/158/158 157/157/157
f 162/162/162 161/161/161 160/160/160
f 165/165/165 164/164/164 163/163/163
f 168/168/168 167/167/167 166/166/166
f 171/171/171 170/170/170 169/169/169
f 174/174/174 173/173/173 172/172/172
f 177/177/177 176/176/176 175/175/175
f 180/180/180 179/179/179 178/178/178
