g Stages_Gear_Teleport_Col
v -0.14503196 -5.380494E-18 0.08939063
v 0.1489754 5.380494E-18 -0.086349644
v -0.14503196 5.380494E-18 -0.086349644
v 0.1489754 -5.380494E-18 0.08939063
v 0.0019717216 1.6799974 0.11896809
v -0.3503709 1.4251993 -0.11592701
v 0.0019717216 1.6799974 -0.115927
v -0.3503709 1.4251993 0.118968084
v 0.35431436 1.4251993 0.118968084
v 0.35431436 1.4251993 -0.11592701
v 0.1489754 -5.380494E-18 0.08939063
v -0.3503709 1.4251993 0.118968084
v 0.35431436 1.4251993 0.118968084
v -0.14503196 -5.380494E-18 0.08939063
v 0.0019717216 1.6799974 0.11896809
v 0.1489754 -5.380494E-18 0.08939063
v 0.35431436 1.4251993 -0.11592701
v 0.1489754 5.380494E-18 -0.086349644
v 0.35431436 1.4251993 0.118968084
v -0.14503196 5.380494E-18 -0.086349644
v 0.35431436 1.4251993 -0.11592701
v -0.3503709 1.4251993 -0.11592701
v 0.1489754 5.380494E-18 -0.086349644
v 0.0019717216 1.6799974 -0.115927
v -0.14503196 5.380494E-18 -0.086349644
v -0.3503709 1.4251993 0.118968084
v -0.14503196 -5.380494E-18 0.08939063
v -0.3503709 1.4251993 -0.11592701
vt 1 0
vt 0 1
vt 1 1
vt 0 0
vt 0.5 0
vt 0 1
vt 0.5 1
vt 0 0
vt 1 0
vt 1 1
vt 1 0
vt 0 1
vt 1 1
vt 0 0
vt 0.5 1
vt 0 0
vt 1 1
vt 1 0
vt 0 1
vt 1 0
vt 0 1
vt 1 1
vt 0 0
vt 0.5 1
vt 0 0
vt 1 1
vt 1 0
vt 0 1
vn -0 -1 0
vn -0 -1 0
vn -0 -1 0
vn -0 -1 0
vn -0 1 0
vn -0.585987 0.8103205 0
vn -0 1 0
vn -0.585987 0.8103205 0
vn 0.585987 0.8103205 0
vn 0.585987 0.8103205 0
vn -0 -0.020748742 0.99978477
vn -0 -0.014424285 0.99989593
vn -0 -0.014424284 0.99989593
vn -0 -0.020748742 0.99978477
vn -0 0 1
vn 0.9897798 -0.14260486 0
vn 0.9897798 -0.14260484 0
vn 0.9897798 -0.14260486 0
vn 0.9897798 -0.14260487 0
vn -0 -0.02074868 -0.99978477
vn -0 -0.0144242225 -0.99989593
vn -0 -0.0144242225 -0.99989593
vn -0 -0.02074868 -0.99978477
vn -0 0 -1
vn -0.9897798 -0.14260486 0
vn -0.9897798 -0.14260486 0
vn -0.9897798 -0.14260486 0
vn -0.9897798 -0.14260487 0
g Stages_Gear_Teleport_Col_0
f 3/3/3 2/2/2 1/1/1
f 4/4/4 1/1/1 2/2/2
f 7/7/7 6/6/6 5/5/5
f 8/8/8 5/5/5 6/6/6
f 5/5/5 9/9/9 7/7/7
f 10/10/10 7/7/7 9/9/9
f 13/13/13 12/12/12 11/11/11
f 14/14/14 11/11/11 12/12/12
f 15/15/15 12/12/12 13/13/13
f 18/18/18 17/17/17 16/16/16
f 19/19/19 16/16/16 17/17/17
f 22/22/22 21/21/21 20/20/20
f 23/23/23 20/20/20 21/21/21
f 24/24/24 21/21/21 22/22/22
f 27/27/27 26/26/26 25/25/25
f 28/28/28 25/25/25 26/26/26
