g Eff_Model_Emitter_Temple_01
v -2.4018266 2.0268972 -2.0891173
v -2.0543268 0.7761558 -2.6910045
v -2.0543268 2.0268972 -2.691005
v -2.4018266 0.776156 -2.089117
v -2.7493267 2.0268972 -1.4872296
v -2.7493267 0.77615607 -1.4872295
v -3.0968268 2.0268974 -0.88534194
v -3.0968268 0.7761561 -0.88534176
v -3.4443266 2.0268974 -0.2834543
v -3.4443266 0.77615625 -0.28345412
v -2.401827 3.2776384 -2.0891175
v -2.054327 3.2776384 -2.6910052
v -2.749327 3.2776384 -1.48723
v -3.096827 3.2776387 -0.8853423
v -3.444327 3.2776387 -0.28345466
v -2.4018273 4.52838 -2.089118
v -2.0543272 4.52838 -2.6910055
v -2.7493274 4.52838 -1.4872303
v -3.0968273 4.52838 -0.8853427
v -3.4443274 4.52838 -0.283455
v -2.4018273 5.7791204 -2.0891182
v -2.0543272 5.7791204 -2.6910057
v -2.7493274 5.779121 -1.4872305
v -3.0968273 5.779121 -0.88534284
v -3.4443274 5.779121 -0.28345522
v -0.6083151 2.0268972 3.1246016
v -1.3033148 0.7761558 3.1246014
v -1.303315 2.0268972 3.1246016
v -0.60831493 0.776156 3.1246016
v 0.086684875 2.0268972 3.1246016
v 0.086685024 0.77615607 3.1246014
v 0.78168494 2.0268974 3.1246014
v 0.7816851 0.7761561 3.1246014
v 1.4766848 2.0268974 3.1246016
v 1.476685 0.77615625 3.1246014
v -0.6083151 3.2776384 3.124602
v -1.303315 3.2776384 3.124602
v 0.086684875 3.2776384 3.124602
v 0.7816847 3.2776387 3.124602
v 1.4766847 3.2776387 3.124602
v -0.6083154 4.52838 3.1246026
v -1.3033153 4.52838 3.1246026
v 0.08668457 4.52838 3.1246026
v 0.7816846 4.52838 3.1246026
v 1.4766846 4.52838 3.1246026
v -0.6083156 5.7791204 3.1246026
v -1.3033155 5.7791204 3.1246026
v 0.08668441 5.779121 3.1246026
v 0.7816844 5.779121 3.1246026
v 1.4766843 5.779121 3.1246026
v 3.0101418 2.0268972 -1.0354847
v 3.3576415 0.7761558 -0.43359724
v 3.3576422 2.0268972 -0.4335971
v 3.0101418 0.776156 -1.0354848
v 2.6626415 2.0268972 -1.6373723
v 2.6626415 0.77615607 -1.6373724
v 2.3151417 2.0268974 -2.23926
v 2.3151414 0.7761561 -2.23926
v 1.9676417 2.0268974 -2.8411477
v 1.9676416 0.77615625 -2.8411477
v 3.010142 3.2776384 -1.0354847
v 3.3576422 3.2776384 -0.43359724
v 2.6626422 3.2776384 -1.6373724
v 2.3151422 3.2776387 -2.23926
v 1.9676422 3.2776387 -2.8411474
v 3.0101428 4.52838 -1.0354848
v 3.3576427 4.52838 -0.43359724
v 2.6626427 4.52838 -1.6373724
v 2.3151429 4.52838 -2.2392602
v 1.9676427 4.52838 -2.8411474
v 3.010143 5.7791204 -1.0354847
v 3.3576431 5.7791204 -0.4335971
v 2.6626427 5.779121 -1.6373724
v 2.3151429 5.779121 -2.23926
v 1.9676428 5.779121 -2.8411474
vt 0.25085002 0.25
vt 0.0035290448 0
vt 0.0035290448 0.25
vt 0.25085002 -0
vt 0.50085 0.25
vt 0.50085 -0
vt 0.25085002 0.25
vt 0.25085002 -0
vt 0.0035290448 0.25
vt 0.0035290448 0
vt 0.25085002 0.5
vt 0.0035290448 0.5
vt 0.50085 0.5
vt 0.25085002 0.5
vt 0.0035290448 0.5
vt 0.25085002 0.75
vt 0.0035290448 0.75
vt 0.50085 0.75
vt 0.25085002 0.75
vt 0.0035290448 0.75
vt 0.25085002 1
vt 0.0035290448 1
vt 0.50085 1
vt 0.25085002 1
vt 0.0035290448 1
vt 0.25085002 0.25
vt 0.0035290448 0
vt 0.0035290448 0.25
vt 0.25085002 -0
vt 0.50085 0.25
vt 0.50085 -0
vt 0.25085002 0.25
vt 0.25085002 -0
vt 0.0035290448 0.25
vt 0.0035290448 0
vt 0.25085002 0.5
vt 0.0035290448 0.5
vt 0.50085 0.5
vt 0.25085002 0.5
vt 0.0035290448 0.5
vt 0.25085002 0.75
vt 0.0035290448 0.75
vt 0.50085 0.75
vt 0.25085002 0.75
vt 0.0035290448 0.75
vt 0.25085002 1
vt 0.0035290448 1
vt 0.50085 1
vt 0.25085002 1
vt 0.0035290448 1
vt 0.25085002 0.25
vt 0.0035290448 0
vt 0.0035290448 0.25
vt 0.25085002 -0
vt 0.50085 0.25
vt 0.50085 -0
vt 0.25085002 0.25
vt 0.25085002 -0
vt 0.0035290448 0.25
vt 0.0035290448 0
vt 0.25085002 0.5
vt 0.0035290448 0.5
vt 0.50085 0.5
vt 0.25085002 0.5
vt 0.0035290448 0.5
vt 0.25085002 0.75
vt 0.0035290448 0.75
vt 0.50085 0.75
vt 0.25085002 0.75
vt 0.0035290448 0.75
vt 0.25085002 1
vt 0.0035290448 1
vt 0.50085 1
vt 0.25085002 1
vt 0.0035290448 1
vn -0.86602545 -1.02302316E-07 -0.49999997
vn -0.86602545 0 -0.5
vn -0.86602545 -1.2199797E-07 -0.49999997
vn -0.8660253 0 -0.50000006
vn -0.86602545 0 -0.49999997
vn -0.86602545 0 -0.49999997
vn -0.86602545 0 -0.49999997
vn -0.86602545 0 -0.49999997
vn -0.86602545 0 -0.49999997
vn -0.86602545 0 -0.49999997
vn -0.86602545 -3.3330463E-07 -0.49999997
vn -0.86602545 -3.3330457E-07 -0.5
vn -0.86602545 -3.3330468E-07 -0.49999997
vn -0.86602545 -3.431525E-07 -0.5
vn -0.86602545 -3.6134216E-07 -0.5
vn -0.8660253 -3.5300027E-07 -0.50000006
vn -0.8660253 -3.3330465E-07 -0.50000006
vn -0.86602545 -3.9430364E-07 -0.49999997
vn -0.86602545 -3.844558E-07 -0.49999997
vn -0.86602545 -3.6134216E-07 -0.49999997
vn -0.86602545 -1.0230237E-07 -0.5
vn -0.86602545 -1.2199803E-07 -0.49999997
vn -0.86602545 0 -0.5
vn -0.86602545 0 -0.49999997
vn -0.86602545 0 -0.49999997
vn -1.417793E-07 -1.652134E-07 1
vn -2.9732257E-07 0 1
vn -0 -2.4399594E-07 1
vn -4.3910194E-07 0 1
vn 1.4177935E-07 0 1
vn 4.3910188E-07 -2.4399588E-07 1
vn 2.973225E-07 -1.652133E-07 1
vn -0 0 1
vn -2.9732257E-07 0 1
vn -0 -2.439959E-07 1
vn -0 -2.4399588E-07 1
vn -0 -2.4399588E-07 1
vn -0 -2.4399594E-07 1
vn 1.4177942E-07 -3.2277842E-07 1
vn -1.4177928E-07 -4.092092E-07 1
vn -0 -4.879919E-07 1
vn -0 -4.879918E-07 1
vn -0 -4.8799194E-07 1
vn -0 -4.8799194E-07 1
vn -0 -4.8799194E-07 1
vn -0 0 1
vn -0 0 1
vn -0 0 1
vn -0 0 1
vn -0 0 1
vn 0.8660253 -2.350067E-07 -0.5000001
vn 0.86602545 0 -0.49999997
vn 0.86602527 -3.6161424E-07 -0.50000036
vn 0.8660255 0 -0.49999973
vn 0.86602527 0 -0.5000003
vn 0.86602527 0 -0.5000003
vn 0.8660255 0 -0.4999999
vn 0.8660253 -1.05653335E-07 -0.50000006
vn 0.8660255 -1.0565334E-07 -0.4999999
vn 0.86602545 -1.0565335E-07 -0.4999999
vn 0.86602527 -1.0953103E-07 -0.5000002
vn 0.8660253 0 -0.5000002
vn 0.8660253 -2.9923E-07 -0.50000006
vn 0.86602545 -4.494985E-07 -0.4999999
vn 0.8660253 -3.1887203E-07 -0.50000006
vn 0.8660253 -4.3246112E-07 -0.50000006
vn 0.8660253 -4.2261334E-07 -0.50000006
vn 0.86602545 -4.43265E-07 -0.4999999
vn 0.86602545 -4.4230902E-07 -0.4999999
vn 0.86602527 -4.2980278E-07 -0.5000004
vn 0.86602545 -1.601556E-07 -0.5
vn 0.8660253 -1.5030774E-07 -0.50000006
vn 0.86602527 -1.2242728E-07 -0.5000002
vn 0.86602545 0 -0.4999999
vn 0.86602527 0 -0.5000003
g Eff_Model_Emitter_Temple_01_0
f 3/3/3 2/2/2 1/1/1
f 4/4/4 1/1/1 2/2/2
f 1/1/1 4/4/4 5/5/5
f 6/6/6 5/5/5 4/4/4
f 5/5/5 6/6/6 7/7/7
f 8/8/8 7/7/7 6/6/6
f 7/7/7 8/8/8 9/9/9
f 10/10/10 9/9/9 8/8/8
f 1/1/1 11/11/11 3/3/3
f 12/12/12 3/3/3 11/11/11
f 11/11/11 1/1/1 13/13/13
f 5/5/5 13/13/13 1/1/1
f 13/13/13 5/5/5 14/14/14
f 7/7/7 14/14/14 5/5/5
f 14/14/14 7/7/7 15/15/15
f 9/9/9 15/15/15 7/7/7
f 11/11/11 16/16/16 12/12/12
f 17/17/17 12/12/12 16/16/16
f 16/16/16 11/11/11 18/18/18
f 13/13/13 18/18/18 11/11/11
f 18/18/18 13/13/13 19/19/19
f 14/14/14 19/19/19 13/13/13
f 19/19/19 14/14/14 20/20/20
f 15/15/15 20/20/20 14/14/14
f 16/16/16 21/21/21 17/17/17
f 22/22/22 17/17/17 21/21/21
f 21/21/21 16/16/16 23/23/23
f 18/18/18 23/23/23 16/16/16
f 23/23/23 18/18/18 24/24/24
f 19/19/19 24/24/24 18/18/18
f 24/24/24 19/19/19 25/25/25
f 20/20/20 25/25/25 19/19/19
f 28/28/28 27/27/27 26/26/26
f 29/29/29 26/26/26 27/27/27
f 26/26/26 29/29/29 30/30/30
f 31/31/31 30/30/30 29/29/29
f 30/30/30 31/31/31 32/32/32
f 33/33/33 32/32/32 31/31/31
f 32/32/32 33/33/33 34/34/34
f 35/35/35 34/34/34 33/33/33
f 26/26/26 36/36/36 28/28/28
f 37/37/37 28/28/28 36/36/36
f 36/36/36 26/26/26 38/38/38
f 30/30/30 38/38/38 26/26/26
f 38/38/38 30/30/30 39/39/39
f 32/32/32 39/39/39 30/30/30
f 39/39/39 32/32/32 40/40/40
f 34/34/34 40/40/40 32/32/32
f 36/36/36 41/41/41 37/37/37
f 42/42/42 37/37/37 41/41/41
f 41/41/41 36/36/36 43/43/43
f 38/38/38 43/43/43 36/36/36
f 43/43/43 38/38/38 44/44/44
f 39/39/39 44/44/44 38/38/38
f 44/44/44 39/39/39 45/45/45
f 40/40/40 45/45/45 39/39/39
f 41/41/41 46/46/46 42/42/42
f 47/47/47 42/42/42 46/46/46
f 46/46/46 41/41/41 48/48/48
f 43/43/43 48/48/48 41/41/41
f 48/48/48 43/43/43 49/49/49
f 44/44/44 49/49/49 43/43/43
f 49/49/49 44/44/44 50/50/50
f 45/45/45 50/50/50 44/44/44
f 53/53/53 52/52/52 51/51/51
f 54/54/54 51/51/51 52/52/52
f 51/51/51 54/54/54 55/55/55
f 56/56/56 55/55/55 54/54/54
f 55/55/55 56/56/56 57/57/57
f 58/58/58 57/57/57 56/56/56
f 57/57/57 58/58/58 59/59/59
f 60/60/60 59/59/59 58/58/58
f 51/51/51 61/61/61 53/53/53
f 62/62/62 53/53/53 61/61/61
f 61/61/61 51/51/51 63/63/63
f 55/55/55 63/63/63 51/51/51
f 63/63/63 55/55/55 64/64/64
f 57/57/57 64/64/64 55/55/55
f 64/64/64 57/57/57 65/65/65
f 59/59/59 65/65/65 57/57/57
f 61/61/61 66/66/66 62/62/62
f 67/67/67 62/62/62 66/66/66
f 66/66/66 61/61/61 68/68/68
f 63/63/63 68/68/68 61/61/61
f 68/68/68 63/63/63 69/69/69
f 64/64/64 69/69/69 63/63/63
f 69/69/69 64/64/64 70/70/70
f 65/65/65 70/70/70 64/64/64
f 66/66/66 71/71/71 67/67/67
f 72/72/72 67/67/67 71/71/71
f 71/71/71 66/66/66 73/73/73
f 68/68/68 73/73/73 66/66/66
f 73/73/73 68/68/68 74/74/74
f 69/69/69 74/74/74 68/68/68
f 74/74/74 69/69/69 75/75/75
f 70/70/70 75/75/75 69/69/69
