g Eff_Model_Sc_TempleLadderPlane_01
v 1.7289652 0.26999143 5.7831564
v 1.2930559 0.5004591 5.191329
v 1.7279325 0.5484679 5.2140393
v 1.2947837 0.2151023 5.7666755
v 1.3262411 0.7444099 4.522011
v 1.7588028 0.5930039 4.45025
v 1.3419026 0.8177129 3.7751799
v 1.7739582 0.63291764 3.714615
v 1.2794654 0.63258976 2.987622
v 1.7135491 0.76151854 3.0531096
v 1.2886548 0.7790695 2.3253407
v 1.7199667 1.074787 2.451969
v 0.85982466 0.45256263 5.173142
v 0.86043686 0.17637226 5.7542315
v 0.8807643 0.8369809 4.5739417
v 0.9082544 1.01135 3.871494
v 0.90376216 0.90501654 3.0907445
v 0.86948943 0.8448199 2.3441482
v 0.4285504 0.52592635 5.201184
v 0.42602158 0.14229712 5.7431517
v 0.43198913 0.85023296 4.5762553
v 0.43306106 1.013707 3.8816557
v 0.44284597 1.018382 3.146051
v 0.43371427 0.9638457 2.3949687
v -0.0076530455 0.4581061 5.1711
v -0.0066322326 -0.08785075 5.6803207
v -0.012087096 0.67262155 4.505269
v -0.0066452026 0.9605755 3.871062
v -0.008313141 0.9318608 3.1202068
v -0.0038295744 0.9319231 2.3846157
v -0.44269988 0.5072224 5.1894627
v -0.44172332 -0.044861898 5.6898875
v -0.43958694 0.67734754 4.506326
v -0.440334 0.86833936 3.8382733
v -0.44057778 1.0206907 3.1626637
v -0.43917426 1.0009688 2.4116702
v -0.87766737 0.53380597 5.1988587
v -0.8771887 0.04275781 5.711005
v -0.8744632 0.6835433 4.507698
v -0.87408125 0.8699154 3.8384535
v -0.8753731 0.96087766 3.1379573
v -0.8745788 1.0714285 2.4388921
v -1.3120708 0.5036957 5.1852226
v -1.3115953 0.01273372 5.700897
v -1.3080308 0.56956697 4.4599915
v -1.3069248 0.69693166 3.7663853
v -1.3086349 0.826911 3.0818248
v -1.309639 1.1072916 2.4520578
v -1.7446138 0.2868621 5.0957303
v -1.7450564 -0.12725103 5.6621385
v -1.7405741 0.35273334 4.370498
v -1.742488 0.7698924 3.7950048
v -1.7435006 0.83209693 3.0828464
v -1.7432085 0.99353856 2.4044418
v -5.872843 0.26999027 -1.3942498
v -5.1423516 0.500458 -1.4758451
v -5.379456 0.5484668 -1.1105852
v -5.6414795 0.21510108 -1.7620212
v -4.5792966 0.744409 -1.1124465
v -4.7334313 0.5930031 -0.70195687
v -3.9403527 0.8177121 -0.7254681
v -4.10393 0.632917 -0.32101434
v -3.2270892 0.6325892 -0.38576105
v -3.5008452 0.761518 -0.042577334
v -2.6581316 0.7790691 -0.0466625
v -2.983451 1.0747867 0.2635504
v -4.9099846 0.4525615 -1.8419405
v -5.413529 0.17637098 -2.1319551
v -4.4015317 0.83697987 -1.5242062
v -3.8069398 1.0113492 -1.1491756
v -3.1285446 0.9050158 -0.76269084
v -2.4648366 0.8448195 -0.41907424
v -4.7186327 0.5259251 -2.229456
v -5.1867266 0.14229576 -2.5026298
v -4.1791477 0.8502319 -1.914014
v -3.5781436 1.0137062 -1.5657862
v -2.9459834 1.0183811 -1.1895094
v -2.290961 0.96384513 -0.8218769
v -4.4744782 0.45810485 -2.5921776
v -4.9159865 -0.08785214 -2.8459039
v -3.8956342 0.67262036 -2.263102
v -3.3491156 0.9605746 -1.9412855
v -2.6980221 0.93186 -1.5673027
v -2.0632231 0.9319225 -1.1956245
v -4.272857 0.5072211 -2.9781203
v -4.706726 -0.044863347 -3.227487
v -3.6828003 0.67734635 -2.633856
v -3.1038756 0.86833835 -2.3004768
v -2.5186586 1.0206898 -1.9628837
v -1.868981 1.0009681 -1.5861714
v -4.06351 0.5338046 -3.3595116
v -4.5072813 0.04275629 -3.61517
v -3.4665499 0.6835421 -3.0111558
v -2.8871582 0.86991435 -2.676203
v -2.2798645 0.96087676 -2.327074
v -1.6748534 1.0714278 -1.9768536
v -3.8345 0.5036943 -3.7288978
v -4.281324 0.012732142 -3.9863226
v -3.2084508 0.5695657 -3.3627834
v -2.6083233 0.6969306 -3.0150223
v -2.0146215 0.82691 -2.6742232
v -1.4687252 1.1072907 -2.3602095
v -3.5407248 0.2868606 -4.058744
v -4.0310283 -0.12725267 -4.342332
v -2.914676 0.352732 -3.6926298
v -2.4153268 0.76989126 -3.406541
v -1.7980733 0.83209586 -3.0513387
v -1.210704 0.9935377 -2.7118845
v 4.143878 0.2699898 -4.388906
v 3.849295 0.5004576 -3.715484
v 3.6515236 0.5484663 -4.1034527
v 4.3466954 0.21510072 -4.0046535
v 3.253056 0.7444086 -3.409564
v 2.9746284 0.5930026 -3.7482927
v 2.5984507 0.8177118 -3.0497115
v 2.3299718 0.63291645 -3.3936005
v 1.9476238 0.63258886 -2.6018605
v 1.7872958 0.7615175 -3.010532
v 1.3694769 0.77906877 -2.2786784
v 1.2634841 1.0747861 -2.7155197
v 4.05016 0.45256126 -3.331201
v 4.5530925 0.17637073 -3.6222758
v 3.5207675 0.83697957 -3.049735
v 2.8986852 1.011349 -2.722319
v 2.224782 0.90501565 -2.3280535
v 1.5953473 0.84481925 -1.9250742
v 4.2900815 0.52592504 -2.9717271
v 4.7607045 0.14229566 -3.2405214
v 3.7471585 0.85023177 -2.6622412
v 3.145082 1.0137061 -2.31587
v 2.5031374 1.0183811 -1.9565417
v 1.8572466 0.963845 -1.5730921
v 4.4821305 0.45810485 -2.5789223
v 4.9226184 -0.087852135 -2.8344166
v 3.9077208 0.67262036 -2.2421668
v 3.3557608 0.9605746 -1.9297764
v 2.706335 0.93186 -1.5529041
v 2.0670526 0.9319225 -1.1889915
v 4.7155566 0.5072212 -2.2113423
v 5.148449 -0.044863224 -2.4624002
v 4.1223865 0.67734647 -1.8724699
v 3.5442092 0.8683385 -1.5377965
v 2.9592364 1.0206898 -1.1997807
v 2.308155 1.0009682 -0.8254994
v 4.9411774 0.53380483 -1.8393474
v 5.38447 0.04275654 -2.095835
v 4.3410125 0.6835423 -1.496542
v 3.7612386 0.8699147 -1.1622503
v 3.1552377 0.960877 -0.8108837
v 2.549432 1.0714281 -0.4620389
v 5.14657 0.50369465 -1.4563249
v 5.5929193 0.012732512 -1.7145735
v 4.5164814 0.5695661 -1.097208
v 3.9152477 0.6969309 -0.7513625
v 3.3232563 0.8269104 -0.40760168
v 2.778364 1.1072911 -0.09184871
v 5.2853384 0.2868611 -1.0369854
v 5.7760844 -0.12725218 -1.3198062
v 4.655249 0.3527325 -0.67786777
v 4.1578145 0.76989174 -0.38846356
v 3.5415735 0.8320964 -0.0315074
v 2.9539123 0.99353826 0.30744177
vt 1 0.37499994
vt 0.87500006 0.49999994
vt 1 0.49999994
vt 0.875 0.37499994
vt 0.87500006 0.62499994
vt 1 0.62499994
vt 0.87500006 0.74999994
vt 1 0.74999994
vt 0.87500006 0.87499994
vt 1.0000001 0.87499994
vt 0.87500006 0.99999994
vt 1.0000001 0.99999994
vt 0.75000006 0.49999994
vt 0.75 0.37499997
vt 0.75000006 0.62499994
vt 0.75000006 0.74999994
vt 0.75000006 0.87499994
vt 0.75000006 0.99999994
vt 0.625 0.49999994
vt 0.625 0.37499997
vt 0.62500006 0.62499994
vt 0.62500006 0.74999994
vt 0.62500006 0.87499994
vt 0.6250001 0.99999994
vt 0.5 0.5
vt 0.5 0.37499997
vt 0.50000006 0.625
vt 0.50000006 0.75
vt 0.50000006 0.875
vt 0.5000001 0.99999994
vt 0.37500006 0.5
vt 0.375 0.375
vt 0.37500006 0.625
vt 0.37500006 0.75
vt 0.37500006 0.875
vt 0.37500006 0.99999994
vt 0.25000006 0.5
vt 0.25 0.375
vt 0.25000006 0.625
vt 0.25000006 0.75
vt 0.25000006 0.875
vt 0.25000006 0.99999994
vt 0.12500006 0.5
vt 0.125 0.375
vt 0.12500006 0.625
vt 0.12500006 0.75
vt 0.12500006 0.875
vt 0.12500006 1
vt 5.9604645E-08 0.5
vt 0 0.37500003
vt 5.9604645E-08 0.625
vt 5.9604645E-08 0.75
vt 5.9604645E-08 0.875
vt 5.9604645E-08 1
vt 1 0.37499994
vt 0.87500006 0.49999994
vt 1 0.49999994
vt 0.875 0.37499994
vt 0.87500006 0.62499994
vt 1 0.62499994
vt 0.87500006 0.74999994
vt 1 0.74999994
vt 0.87500006 0.87499994
vt 1.0000001 0.87499994
vt 0.87500006 0.99999994
vt 1.0000001 0.99999994
vt 0.75000006 0.49999994
vt 0.75 0.37499997
vt 0.75000006 0.62499994
vt 0.75000006 0.74999994
vt 0.75000006 0.87499994
vt 0.75000006 0.99999994
vt 0.625 0.49999994
vt 0.625 0.37499997
vt 0.62500006 0.62499994
vt 0.62500006 0.74999994
vt 0.62500006 0.87499994
vt 0.6250001 0.99999994
vt 0.5 0.5
vt 0.5 0.37499997
vt 0.50000006 0.625
vt 0.50000006 0.75
vt 0.50000006 0.875
vt 0.5000001 0.99999994
vt 0.37500006 0.5
vt 0.375 0.375
vt 0.37500006 0.625
vt 0.37500006 0.75
vt 0.37500006 0.875
vt 0.37500006 0.99999994
vt 0.25000006 0.5
vt 0.25 0.375
vt 0.25000006 0.625
vt 0.25000006 0.75
vt 0.25000006 0.875
vt 0.25000006 0.99999994
vt 0.12500006 0.5
vt 0.125 0.375
vt 0.12500006 0.625
vt 0.12500006 0.75
vt 0.12500006 0.875
vt 0.12500006 1
vt 5.9604645E-08 0.5
vt 0 0.37500003
vt 5.9604645E-08 0.625
vt 5.9604645E-08 0.75
vt 5.9604645E-08 0.875
vt 5.9604645E-08 1
vt 1 0.37499994
vt 0.87500006 0.49999994
vt 1 0.49999994
vt 0.875 0.37499994
vt 0.87500006 0.62499994
vt 1 0.62499994
vt 0.87500006 0.74999994
vt 1 0.74999994
vt 0.87500006 0.87499994
vt 1.0000001 0.87499994
vt 0.87500006 0.99999994
vt 1.0000001 0.99999994
vt 0.75000006 0.49999994
vt 0.75 0.37499997
vt 0.75000006 0.62499994
vt 0.75000006 0.74999994
vt 0.75000006 0.87499994
vt 0.75000006 0.99999994
vt 0.625 0.49999994
vt 0.625 0.37499997
vt 0.62500006 0.62499994
vt 0.62500006 0.74999994
vt 0.62500006 0.87499994
vt 0.6250001 0.99999994
vt 0.5 0.5
vt 0.5 0.37499997
vt 0.50000006 0.625
vt 0.50000006 0.75
vt 0.50000006 0.875
vt 0.5000001 0.99999994
vt 0.37500006 0.5
vt 0.375 0.375
vt 0.37500006 0.625
vt 0.37500006 0.75
vt 0.37500006 0.875
vt 0.37500006 0.99999994
vt 0.25000006 0.5
vt 0.25 0.375
vt 0.25000006 0.625
vt 0.25000006 0.75
vt 0.25000006 0.875
vt 0.25000006 0.99999994
vt 0.12500006 0.5
vt 0.125 0.375
vt 0.12500006 0.625
vt 0.12500006 0.75
vt 0.12500006 0.875
vt 0.12500006 1
vt 5.9604645E-08 0.5
vt 0 0.37500003
vt 5.9604645E-08 0.625
vt 5.9604645E-08 0.75
vt 5.9604645E-08 0.875
vt 5.9604645E-08 1
vn -0.1260558 0.889488 0.43922794
vn -0.08747904 0.9012582 0.42435962
vn -0.03741949 0.9380397 0.3445014
vn -0.115246825 0.8920911 0.43691146
vn 0.26680252 0.94294 0.19920006
vn 0.3527432 0.93251824 0.07734296
vn 0.4025337 0.9133857 -0.060771856
vn 0.27471223 0.96114135 -0.02721293
vn 0.15925464 0.98710877 0.015944354
vn -0.3713256 0.8964187 0.2419729
vn -0.16998342 0.94553185 0.2776242
vn -0.5969529 0.7140597 0.36574027
vn 0.02149807 0.8803614 0.47381607
vn -0.037458863 0.8775824 0.4779602
vn 0.09558526 0.9264949 0.36396512
vn 0.21108034 0.9754041 0.063496426
vn 0.3823306 0.9146064 -0.13160005
vn 0.29206207 0.956344 0.010292314
vn -0.041141402 0.87982273 0.47351813
vn -0.22025843 0.7561965 0.61616
vn -0.14719677 0.9117861 0.38337862
vn -0.061426133 0.99156743 0.11410837
vn 0.010172653 0.9988752 -0.046310887
vn 0.09178365 0.9926692 -0.07863562
vn -0.06605193 0.86314523 0.50061715
vn -0.15419075 0.6699654 0.72620356
vn -0.1943381 0.91533715 0.35269073
vn -0.16291356 0.9667027 0.19734542
vn 0.0075866543 0.9998362 -0.016429229
vn 0.020223802 0.99951816 -0.023544554
vn 0.083609186 0.85909474 0.5049413
vn 0.10669395 0.6832169 0.7223787
vn 0.021592462 0.96323794 0.2677807
vn -0.10208051 0.96179634 0.25402254
vn 0.01661241 0.9961583 0.08598046
vn 0.16491331 0.9861714 -0.016414762
vn -0.01390324 0.88726896 0.4610428
vn 0.057187635 0.72144336 0.69010806
vn -0.13669495 0.9638017 0.22891214
vn -0.18848705 0.96022785 0.2059978
vn -0.1832592 0.9640003 0.1926643
vn 0.07193433 0.9929345 0.094374016
vn -0.27112007 0.87713915 0.39638475
vn -0.22318345 0.73364973 0.64183116
vn -0.30579054 0.9289068 0.20886412
vn -0.11759725 0.97691476 0.17834921
vn -0.18569802 0.94828546 0.25743172
vn -0.16917822 0.93166435 0.3215281
vn -0.4470024 0.8227578 0.3510818
vn -0.29914203 0.7704017 0.5630232
vn -0.47654694 0.82270896 0.30992433
vn 0.046443094 0.97577465 0.21379182
vn 0.040739253 0.98067266 0.19136737
vn -0.17324777 0.9248278 0.33864263
vn -0.31735522 0.88948786 -0.32878116
vn -0.32376692 0.90125805 -0.28793895
vn -0.2796376 0.93803984 -0.20465593
vn -0.3207534 0.8920908 -0.31826276
vn -0.30591366 0.94294 0.13145776
vn -0.24335253 0.93251836 0.26681277
vn -0.14863694 0.9133857 0.3789902
vn -0.11378906 0.96114147 0.25151387
vn -0.09343572 0.98710877 0.12994613
vn -0.02389205 0.8964186 -0.44256407
vn -0.15543815 0.9455317 -0.28602234
vn -0.018264242 0.7140593 -0.6998469
vn -0.42108595 0.8803612 -0.21829067
vn -0.39519647 0.87758225 -0.27142045
vn -0.36299586 0.9264948 -0.0992035
vn -0.16052999 0.9754041 0.15105255
vn -0.07719641 0.9146064 0.39690793
vn -0.15494448 0.956344 0.24778683
vn -0.38950816 0.8798226 -0.2723885
vn -0.42348126 0.75619656 -0.4988291
vn -0.25841746 0.9117859 -0.31916586
vn -0.06810789 0.99156743 -0.110251166
vn 0.035019968 0.9988753 0.031965114
vn 0.022208517 0.9926692 0.11880444
vn -0.4005214 0.8631451 -0.30751127
vn -0.55181533 0.6699654 -0.49663487
vn -0.20827024 0.915337 -0.3446472
vn -0.08944942 0.9667026 -0.23976013
vn 0.010434695 0.9998362 0.014784636
vn 0.010278122 0.99951816 0.029286383
vn -0.4790966 0.85909474 -0.18006308
vn -0.67894524 0.68321687 -0.26879004
vn -0.24270129 0.9632378 -0.11519094
vn -0.16894996 0.9617962 -0.21541591
vn -0.08276762 0.9961583 -0.028603926
vn -0.068241216 0.9861714 0.15102626
vn -0.39232332 0.88726896 -0.24256204
vn -0.62624514 0.7214428 -0.2955288
vn -0.12989637 0.96380156 -0.23283745
vn -0.084155954 0.9602277 -0.26623374
vn -0.07522269 0.96400017 -0.25503978
vn -0.11769766 0.9929345 0.015109648
vn -0.20771968 0.8771386 -0.43299
vn -0.44425055 0.73364925 -0.5141986
vn -0.027986433 0.9289067 -0.3692547
vn -0.095656395 0.97691464 -0.19101708
vn -0.13009357 0.9482852 -0.2895354
vn -0.19386275 0.9316642 -0.30727667
vn -0.08054418 0.82275754 -0.5626568
vn -0.33802158 0.77040225 -0.5405755
vn -0.030128837 0.82270855 -0.56766427
vn -0.20837073 0.9757746 -0.0666752
vn -0.18609887 0.98067266 -0.060402773
vn -0.20664969 0.9248277 -0.31935826
vn 0.44341022 0.889488 -0.110446595
vn 0.41124576 0.9012582 -0.13642116
vn 0.31705642 0.93803984 -0.13984498
vn 0.43599987 0.8920911 -0.11864924
vn 0.03911119 0.9429399 -0.3306581
vn -0.10939062 0.9325182 -0.34415635
vn -0.25389677 0.91338557 -0.31821877
vn -0.16092288 0.96114135 -0.22430141
vn -0.065819 0.98710877 -0.1458911
vn 0.3952176 0.8964187 0.20059071
vn 0.32542142 0.94553185 0.008397615
vn 0.615217 0.71405965 0.3341061
vn 0.399588 0.8803613 -0.25552595
vn 0.4326552 0.87758225 -0.20653975
vn 0.26741064 0.9264948 -0.26476195
vn -0.050550535 0.975404 -0.21454963
vn -0.3051342 0.9146063 -0.26530835
vn -0.13711755 0.95634395 -0.25807965
vn 0.43064946 0.8798226 -0.20112956
vn 0.643739 0.7561968 -0.117330715
vn 0.40561426 0.911786 -0.06421338
vn 0.12953398 0.99156743 -0.0038578927
vn -0.045192588 0.9988753 0.014345433
vn -0.11399203 0.9926692 -0.040169373
vn 0.46657285 0.86314523 -0.19310638
vn 0.7060059 0.6699656 -0.22956882
vn 0.40260822 0.915337 -0.008044055
vn 0.2523631 0.9667026 0.04241429
vn -0.018021338 0.9998362 0.0016441453
vn -0.030501902 0.99951816 -0.00574222
vn 0.3954873 0.85909474 -0.3248786
vn 0.5722514 0.68321675 -0.45358917
vn 0.2211088 0.9632378 -0.15259023
vn 0.2710305 0.9617962 -0.03860716
vn 0.06615523 0.9961583 -0.057377215
vn -0.09667211 0.9861714 -0.13461204
vn 0.40622628 0.88726896 -0.21848118
vn 0.5690575 0.72144306 -0.39458007
vn 0.26659134 0.9638017 0.0039250385
vn 0.27264306 0.96022785 0.06023553
vn 0.25848195 0.9640003 0.062374827
vn 0.04576327 0.99293447 -0.10948428
vn 0.4788396 0.877139 0.036604315
vn 0.66743404 0.73364943 -0.12763306
vn 0.33377692 0.9289069 0.1603901
vn 0.21325362 0.97691476 0.012667279
vn 0.31579164 0.94828534 0.032103185
vn 0.36304066 0.93166435 -0.014251775
vn 0.5275471 0.8227577 0.2115745
vn 0.6371629 0.7704021 -0.02244773
vn 0.5066759 0.8227088 0.25773948
vn 0.16192766 0.9757746 -0.14711706
vn 0.14535968 0.98067254 -0.13096519
vn 0.3798971 0.9248277 -0.019284712
g Eff_Model_Sc_TempleLadderPlane_01_0
f 3/3/3 2/2/2 1/1/1
f 4/4/4 1/1/1 2/2/2
f 2/2/2 3/3/3 5/5/5
f 6/6/6 5/5/5 3/3/3
f 5/5/5 6/6/6 7/7/7
f 8/8/8 7/7/7 6/6/6
f 7/7/7 8/8/8 9/9/9
f 10/10/10 9/9/9 8/8/8
f 9/9/9 10/10/10 11/11/11
f 12/12/12 11/11/11 10/10/10
f 2/2/2 13/13/13 4/4/4
f 14/14/14 4/4/4 13/13/13
f 5/5/5 15/15/15 2/2/2
f 13/13/13 2/2/2 15/15/15
f 7/7/7 16/16/16 5/5/5
f 15/15/15 5/5/5 16/16/16
f 9/9/9 17/17/17 7/7/7
f 16/16/16 7/7/7 17/17/17
f 11/11/11 18/18/18 9/9/9
f 17/17/17 9/9/9 18/18/18
f 13/13/13 19/19/19 14/14/14
f 20/20/20 14/14/14 19/19/19
f 15/15/15 21/21/21 13/13/13
f 19/19/19 13/13/13 21/21/21
f 16/16/16 22/22/22 15/15/15
f 21/21/21 15/15/15 22/22/22
f 17/17/17 23/23/23 16/16/16
f 22/22/22 16/16/16 23/23/23
f 18/18/18 24/24/24 17/17/17
f 23/23/23 17/17/17 24/24/24
f 19/19/19 25/25/25 20/20/20
f 26/26/26 20/20/20 25/25/25
f 21/21/21 27/27/27 19/19/19
f 25/25/25 19/19/19 27/27/27
f 22/22/22 28/28/28 21/21/21
f 27/27/27 21/21/21 28/28/28
f 23/23/23 29/29/29 22/22/22
f 28/28/28 22/22/22 29/29/29
f 24/24/24 30/30/30 23/23/23
f 29/29/29 23/23/23 30/30/30
f 25/25/25 31/31/31 26/26/26
f 32/32/32 26/26/26 31/31/31
f 27/27/27 33/33/33 25/25/25
f 31/31/31 25/25/25 33/33/33
f 28/28/28 34/34/34 27/27/27
f 33/33/33 27/27/27 34/34/34
f 29/29/29 35/35/35 28/28/28
f 34/34/34 28/28/28 35/35/35
f 30/30/30 36/36/36 29/29/29
f 35/35/35 29/29/29 36/36/36
f 31/31/31 37/37/37 32/32/32
f 38/38/38 32/32/32 37/37/37
f 33/33/33 39/39/39 31/31/31
f 37/37/37 31/31/31 39/39/39
f 34/34/34 40/40/40 33/33/33
f 39/39/39 33/33/33 40/40/40
f 35/35/35 41/41/41 34/34/34
f 40/40/40 34/34/34 41/41/41
f 36/36/36 42/42/42 35/35/35
f 41/41/41 35/35/35 42/42/42
f 37/37/37 43/43/43 38/38/38
f 44/44/44 38/38/38 43/43/43
f 39/39/39 45/45/45 37/37/37
f 43/43/43 37/37/37 45/45/45
f 40/40/40 46/46/46 39/39/39
f 45/45/45 39/39/39 46/46/46
f 41/41/41 47/47/47 40/40/40
f 46/46/46 40/40/40 47/47/47
f 42/42/42 48/48/48 41/41/41
f 47/47/47 41/41/41 48/48/48
f 43/43/43 49/49/49 44/44/44
f 50/50/50 44/44/44 49/49/49
f 45/45/45 51/51/51 43/43/43
f 49/49/49 43/43/43 51/51/51
f 46/46/46 52/52/52 45/45/45
f 51/51/51 45/45/45 52/52/52
f 47/47/47 53/53/53 46/46/46
f 52/52/52 46/46/46 53/53/53
f 48/48/48 54/54/54 47/47/47
f 53/53/53 47/47/47 54/54/54
f 57/57/57 56/56/56 55/55/55
f 58/58/58 55/55/55 56/56/56
f 56/56/56 57/57/57 59/59/59
f 60/60/60 59/59/59 57/57/57
f 59/59/59 60/60/60 61/61/61
f 62/62/62 61/61/61 60/60/60
f 61/61/61 62/62/62 63/63/63
f 64/64/64 63/63/63 62/62/62
f 63/63/63 64/64/64 65/65/65
f 66/66/66 65/65/65 64/64/64
f 56/56/56 67/67/67 58/58/58
f 68/68/68 58/58/58 67/67/67
f 59/59/59 69/69/69 56/56/56
f 67/67/67 56/56/56 69/69/69
f 61/61/61 70/70/70 59/59/59
f 69/69/69 59/59/59 70/70/70
f 63/63/63 71/71/71 61/61/61
f 70/70/70 61/61/61 71/71/71
f 65/65/65 72/72/72 63/63/63
f 71/71/71 63/63/63 72/72/72
f 67/67/67 73/73/73 68/68/68
f 74/74/74 68/68/68 73/73/73
f 69/69/69 75/75/75 67/67/67
f 73/73/73 67/67/67 75/75/75
f 70/70/70 76/76/76 69/69/69
f 75/75/75 69/69/69 76/76/76
f 71/71/71 77/77/77 70/70/70
f 76/76/76 70/70/70 77/77/77
f 72/72/72 78/78/78 71/71/71
f 77/77/77 71/71/71 78/78/78
f 73/73/73 79/79/79 74/74/74
f 80/80/80 74/74/74 79/79/79
f 75/75/75 81/81/81 73/73/73
f 79/79/79 73/73/73 81/81/81
f 76/76/76 82/82/82 75/75/75
f 81/81/81 75/75/75 82/82/82
f 77/77/77 83/83/83 76/76/76
f 82/82/82 76/76/76 83/83/83
f 78/78/78 84/84/84 77/77/77
f 83/83/83 77/77/77 84/84/84
f 79/79/79 85/85/85 80/80/80
f 86/86/86 80/80/80 85/85/85
f 81/81/81 87/87/87 79/79/79
f 85/85/85 79/79/79 87/87/87
f 82/82/82 88/88/88 81/81/81
f 87/87/87 81/81/81 88/88/88
f 83/83/83 89/89/89 82/82/82
f 88/88/88 82/82/82 89/89/89
f 84/84/84 90/90/90 83/83/83
f 89/89/89 83/83/83 90/90/90
f 85/85/85 91/91/91 86/86/86
f 92/92/92 86/86/86 91/91/91
f 87/87/87 93/93/93 85/85/85
f 91/91/91 85/85/85 93/93/93
f 88/88/88 94/94/94 87/87/87
f 93/93/93 87/87/87 94/94/94
f 89/89/89 95/95/95 88/88/88
f 94/94/94 88/88/88 95/95/95
f 90/90/90 96/96/96 89/89/89
f 95/95/95 89/89/89 96/96/96
f 91/91/91 97/97/97 92/92/92
f 98/98/98 92/92/92 97/97/97
f 93/93/93 99/99/99 91/91/91
f 97/97/97 91/91/91 99/99/99
f 94/94/94 100/100/100 93/93/93
f 99/99/99 93/93/93 100/100/100
f 95/95/95 101/101/101 94/94/94
f 100/100/100 94/94/94 101/101/101
f 96/96/96 102/102/102 95/95/95
f 101/101/101 95/95/95 102/102/102
f 97/97/97 103/103/103 98/98/98
f 104/104/104 98/98/98 103/103/103
f 99/99/99 105/105/105 97/97/97
f 103/103/103 97/97/97 105/105/105
f 100/100/100 106/106/106 99/99/99
f 105/105/105 99/99/99 106/106/106
f 101/101/101 107/107/107 100/100/100
f 106/106/106 100/100/100 107/107/107
f 102/102/102 108/108/108 101/101/101
f 107/107/107 101/101/101 108/108/108
f 111/111/111 110/110/110 109/109/109
f 112/112/112 109/109/109 110/110/110
f 110/110/110 111/111/111 113/113/113
f 114/114/114 113/113/113 111/111/111
f 113/113/113 114/114/114 115/115/115
f 116/116/116 115/115/115 114/114/114
f 115/115/115 116/116/116 117/117/117
f 118/118/118 117/117/117 116/116/116
f 117/117/117 118/118/118 119/119/119
f 120/120/120 119/119/119 118/118/118
f 110/110/110 121/121/121 112/112/112
f 122/122/122 112/112/112 121/121/121
f 113/113/113 123/123/123 110/110/110
f 121/121/121 110/110/110 123/123/123
f 115/115/115 124/124/124 113/113/113
f 123/123/123 113/113/113 124/124/124
f 117/117/117 125/125/125 115/115/115
f 124/124/124 115/115/115 125/125/125
f 119/119/119 126/126/126 117/117/117
f 125/125/125 117/117/117 126/126/126
f 121/121/121 127/127/127 122/122/122
f 128/128/128 122/122/122 127/127/127
f 123/123/123 129/129/129 121/121/121
f 127/127/127 121/121/121 129/129/129
f 124/124/124 130/130/130 123/123/123
f 129/129/129 123/123/123 130/130/130
f 125/125/125 131/131/131 124/124/124
f 130/130/130 124/124/124 131/131/131
f 126/126/126 132/132/132 125/125/125
f 131/131/131 125/125/125 132/132/132
f 127/127/127 133/133/133 128/128/128
f 134/134/134 128/128/128 133/133/133
f 129/129/129 135/135/135 127/127/127
f 133/133/133 127/127/127 135/135/135
f 130/130/130 136/136/136 129/129/129
f 135/135/135 129/129/129 136/136/136
f 131/131/131 137/137/137 130/130/130
f 136/136/136 130/130/130 137/137/137
f 132/132/132 138/138/138 131/131/131
f 137/137/137 131/131/131 138/138/138
f 133/133/133 139/139/139 134/134/134
f 140/140/140 134/134/134 139/139/139
f 135/135/135 141/141/141 133/133/133
f 139/139/139 133/133/133 141/141/141
f 136/136/136 142/142/142 135/135/135
f 141/141/141 135/135/135 142/142/142
f 137/137/137 143/143/143 136/136/136
f 142/142/142 136/136/136 143/143/143
f 138/138/138 144/144/144 137/137/137
f 143/143/143 137/137/137 144/144/144
f 139/139/139 145/145/145 140/140/140
f 146/146/146 140/140/140 145/145/145
f 141/141/141 147/147/147 139/139/139
f 145/145/145 139/139/139 147/147/147
f 142/142/142 148/148/148 141/141/141
f 147/147/147 141/141/141 148/148/148
f 143/143/143 149/149/149 142/142/142
f 148/148/148 142/142/142 149/149/149
f 144/144/144 150/150/150 143/143/143
f 149/149/149 143/143/143 150/150/150
f 145/145/145 151/151/151 146/146/146
f 152/152/152 146/146/146 151/151/151
f 147/147/147 153/153/153 145/145/145
f 151/151/151 145/145/145 153/153/153
f 148/148/148 154/154/154 147/147/147
f 153/153/153 147/147/147 154/154/154
f 149/149/149 155/155/155 148/148/148
f 154/154/154 148/148/148 155/155/155
f 150/150/150 156/156/156 149/149/149
f 155/155/155 149/149/149 156/156/156
f 151/151/151 157/157/157 152/152/152
f 158/158/158 152/152/152 157/157/157
f 153/153/153 159/159/159 151/151/151
f 157/157/157 151/151/151 159/159/159
f 154/154/154 160/160/160 153/153/153
f 159/159/159 153/153/153 160/160/160
f 155/155/155 161/161/161 154/154/154
f 160/160/160 154/154/154 161/161/161
f 156/156/156 162/162/162 155/155/155
f 161/161/161 155/155/155 162/162/162
