g Property_Ani_Prop_TempleDeshretObelisk_01_01_Col
v 0.7415011 0.5660629 0.41662043
v 0.00012861252 3.7212996 -0.4411157
v 0.00024283498 0.5660632 -0.85400486
v 0.38125503 3.7213 0.22318964
v -0.741642 0.56606305 0.43116993
v -0.38664398 3.7212994 0.22006048
v -7.442236E-06 4.3959503 -0.0004260254
v -0.002676563 0.48053688 0.39996445
v 0.2927247 0.48053688 0.17296953
v 0.3497747 0.48053688 -0.20024827
v 0.000110865534 0.48053688 -0.39092764
v -0.3347789 0.48053688 -0.23832344
v -0.2980778 0.48053688 0.16990365
vn 0.78302133 -0.43517286 0.44441205
vn 0.0026996965 0.31252277 -0.94990635
vn -0.0008304755 -0.4297951 -0.902926
vn 0.8202116 0.31209353 0.47942737
vn -0.77760106 -0.43498486 0.45400962
vn -0.8249951 0.31168935 0.4714157
vn 0.0021503 0.9999968 -0.0013429833
vn 0.0051846807 -0.79948765 0.6006602
vn 0.08793304 -0.99468815 0.05350981
vn 0.5076941 -0.81044513 -0.29227614
vn 0.006236392 -0.9930293 -0.11770239
vn -0.5434894 -0.7777482 -0.3157958
vn -0.09154258 -0.9946248 0.048388094
g Property_Ani_Prop_TempleDeshretObelisk_01_01_Col_0
f 3/3/3 2/2/2 1/1/1
f 4/4/4 1/1/1 2/2/2
f 3/3/3 5/5/5 2/2/2
f 6/6/6 2/2/2 5/5/5
f 4/4/4 6/6/6 1/1/1
f 5/5/5 1/1/1 6/6/6
f 2/2/2 7/7/7 4/4/4
f 6/6/6 7/7/7 2/2/2
f 4/4/4 7/7/7 6/6/6
f 5/5/5 8/8/8 1/1/1
f 8/8/8 9/9/9 1/1/1
f 9/9/9 8/8/8 10/10/10
f 9/9/9 10/10/10 1/1/1
f 1/1/1 10/10/10 3/3/3
f 10/10/10 11/11/11 3/3/3
f 12/12/12 10/10/10 8/8/8
f 11/11/11 10/10/10 12/12/12
f 11/11/11 12/12/12 3/3/3
f 3/3/3 12/12/12 5/5/5
f 12/12/12 13/13/13 5/5/5
f 13/13/13 12/12/12 8/8/8
f 13/13/13 8/8/8 5/5/5
