g Property_Ani_Prop_TempleDeshretObelisk_01_02_Col
v 0.7480808 4.8595687E-09 0.7554881
v 0.9576728 0.3311018 0.2622742
v 1.0227677 2.1374966E-09 0.27971634
v 0.700428 0.33110183 0.70783544
v 0.95767266 0.3311018 -0.2522156
v 1.0227677 -5.2993516E-09 -0.26965788
v 0.70042753 0.3311018 -0.6977767
v 0.7480805 -1.5458266E-08 -0.7454297
v 0.25486636 0.3311018 -0.9550215
v 0.2723084 -2.5617185E-08 -1.0201164
v -0.25962332 0.3311018 -0.9550213
v -0.27706546 -3.305402E-08 -1.0201163
v -0.7051845 0.33110175 -0.6977765
v -0.7528371 -3.5776093E-08 -0.74542934
v -0.96242917 0.3311018 -0.2522153
v -1.027524 -3.305402E-08 -0.26965737
v -0.96242934 0.3311018 0.26227438
v -1.027524 -2.5617181E-08 0.27971652
v -0.70518446 0.3311018 0.70783544
v -0.7528371 -1.5458276E-08 0.7554881
v -0.2596234 0.3311018 0.96508056
v -0.27706546 -5.2993596E-09 1.0301751
v 0.25486624 0.3311018 0.9650807
v 0.2723084 2.1374922E-09 1.0301756
v -0.0023782211 -1.5458264E-08 0.0050295517
v -0.7871086 0.33110183 0.21529737
v -0.7871084 0.33110186 -0.20523822
v -0.5768409 0.33110186 -0.56943274
v -0.21264619 0.33110186 -0.7797007
v 0.20788938 0.33110186 -0.7797008
v 0.57208407 0.33110186 -0.5694329
v 0.78235215 0.33110186 -0.20523842
v 0.78235227 0.33110183 0.21529718
v 0.57208437 0.33110186 0.579492
v 0.20788926 0.33110172 0.78976005
v -0.21264629 0.33110183 0.7897598
v -0.5768408 0.33110186 0.5794919
v 0.5475734 0.50471455 0.554981
v 0.7488695 0.50471455 0.20632556
v -0.0023781974 0.5047144 0.0050295703
v 0.74886936 0.50471455 -0.19626671
v 0.54757303 0.50471455 -0.5449218
v 0.19891779 0.50471455 -0.746218
v -0.20367455 0.50471455 -0.746218
v -0.55232984 0.50471455 -0.5449217
v -0.7536257 0.50471455 -0.19626665
v -0.7536259 0.50471455 0.20632575
v -0.55232966 0.50471455 0.5549808
v -0.2036746 0.50471455 0.7562771
v 0.19891761 0.50471437 0.7562773
vn 0.5777608 -0.57652867 0.5777605
vn 0.664563 0.72570485 0.1780689
vn 0.7892358 -0.57652855 0.21147493
vn 0.48649392 0.72570485 0.48649383
vn 0.6645629 0.72570485 -0.17806923
vn 0.78923583 -0.5765284 -0.21147534
vn 0.48649365 0.725705 -0.48649377
vn 0.57776064 -0.5765283 -0.577761
vn 0.17806889 0.7257047 -0.6645631
vn 0.21147472 -0.57652855 -0.7892358
vn -0.17806916 0.72570485 -0.6645629
vn -0.21147513 -0.5765285 -0.7892358
vn -0.48649418 0.7257046 -0.48649392
vn -0.5777607 -0.57652867 -0.57776064
vn -0.66456306 0.7257047 -0.17806911
vn -0.78923565 -0.5765288 -0.21147498
vn -0.6645633 0.72570455 0.17806916
vn -0.78923553 -0.5765287 0.21147507
vn -0.48649418 0.7257046 0.48649392
vn -0.57776064 -0.57652885 0.57776046
vn -0.1780694 0.72570455 0.6645633
vn -0.21147533 -0.57652897 0.7892354
vn 0.17806886 0.72570497 0.6645629
vn 0.21147482 -0.57652843 0.78923583
vn -0 -1 0
vn -0.5431049 0.8269581 0.1455244
vn -0.54310507 0.826958 -0.1455245
vn -0.3975805 0.82695806 -0.3975803
vn -0.14552465 0.8269579 -0.5431051
vn 0.14552435 0.82695824 -0.5431048
vn 0.3975803 0.82695806 -0.39758047
vn 0.5431049 0.82695806 -0.14552471
vn 0.54310477 0.82695824 0.14552417
vn 0.39758036 0.82695806 0.3975805
vn 0.14552417 0.8269585 0.5431045
vn -0.14552464 0.8269581 0.5431048
vn -0.3975804 0.82695806 0.39758033
vn 0.4874604 0.7244062 0.48746067
vn 0.6658833 0.72440654 0.17842264
vn -0 1 0
vn 0.6658833 0.7244065 -0.17842312
vn 0.48746026 0.7244066 -0.48746043
vn 0.17842288 0.7244065 -0.6658833
vn -0.17842303 0.7244063 -0.66588354
vn -0.4874606 0.7244065 -0.48746023
vn -0.6658833 0.7244065 -0.17842297
vn -0.6658836 0.7244062 0.17842278
vn -0.48746026 0.7244066 0.48746035
vn -0.17842303 0.7244066 0.6658832
vn 0.17842273 0.7244063 0.66588366
g Property_Ani_Prop_TempleDeshretObelisk_01_02_Col_0
f 3/3/3 2/2/2 1/1/1
f 4/4/4 1/1/1 2/2/2
f 2/2/2 3/3/3 5/5/5
f 6/6/6 5/5/5 3/3/3
f 5/5/5 6/6/6 7/7/7
f 8/8/8 7/7/7 6/6/6
f 7/7/7 8/8/8 9/9/9
f 10/10/10 9/9/9 8/8/8
f 9/9/9 10/10/10 11/11/11
f 12/12/12 11/11/11 10/10/10
f 11/11/11 12/12/12 13/13/13
f 14/14/14 13/13/13 12/12/12
f 13/13/13 14/14/14 15/15/15
f 16/16/16 15/15/15 14/14/14
f 15/15/15 16/16/16 17/17/17
f 18/18/18 17/17/17 16/16/16
f 17/17/17 18/18/18 19/19/19
f 20/20/20 19/19/19 18/18/18
f 19/19/19 20/20/20 21/21/21
f 22/22/22 21/21/21 20/20/20
f 21/21/21 22/22/22 23/23/23
f 24/24/24 23/23/23 22/22/22
f 23/23/23 24/24/24 4/4/4
f 1/1/1 4/4/4 24/24/24
f 12/12/12 25/25/25 14/14/14
f 14/14/14 25/25/25 16/16/16
f 16/16/16 25/25/25 18/18/18
f 18/18/18 25/25/25 20/20/20
f 20/20/20 25/25/25 22/22/22
f 22/22/22 25/25/25 24/24/24
f 24/24/24 25/25/25 1/1/1
f 1/1/1 25/25/25 3/3/3
f 3/3/3 25/25/25 6/6/6
f 6/6/6 25/25/25 8/8/8
f 8/8/8 25/25/25 10/10/10
f 10/10/10 25/25/25 12/12/12
f 17/17/17 19/19/19 26/26/26
f 26/26/26 27/27/27 17/17/17
f 15/15/15 17/17/17 27/27/27
f 27/27/27 28/28/28 15/15/15
f 13/13/13 15/15/15 28/28/28
f 28/28/28 29/29/29 13/13/13
f 11/11/11 13/13/13 29/29/29
f 29/29/29 30/30/30 11/11/11
f 9/9/9 11/11/11 30/30/30
f 30/30/30 31/31/31 9/9/9
f 7/7/7 9/9/9 31/31/31
f 31/31/31 32/32/32 7/7/7
f 5/5/5 7/7/7 32/32/32
f 32/32/32 33/33/33 5/5/5
f 2/2/2 5/5/5 33/33/33
f 2/2/2 33/33/33 4/4/4
f 34/34/34 4/4/4 33/33/33
f 4/4/4 34/34/34 23/23/23
f 35/35/35 23/23/23 34/34/34
f 35/35/35 36/36/36 23/23/23
f 21/21/21 23/23/23 36/36/36
f 36/36/36 37/37/37 21/21/21
f 19/19/19 21/21/21 37/37/37
f 37/37/37 26/26/26 19/19/19
f 34/34/34 33/33/33 38/38/38
f 39/39/39 38/38/38 33/33/33
f 33/33/33 32/32/32 39/39/39
f 40/40/40 38/38/38 39/39/39
f 40/40/40 39/39/39 41/41/41
f 40/40/40 41/41/41 42/42/42
f 40/40/40 42/42/42 43/43/43
f 40/40/40 43/43/43 44/44/44
f 40/40/40 44/44/44 45/45/45
f 40/40/40 45/45/45 46/46/46
f 40/40/40 46/46/46 47/47/47
f 47/47/47 46/46/46 26/26/26
f 26/26/26 37/37/37 47/47/47
f 40/40/40 47/47/47 48/48/48
f 48/48/48 47/47/47 37/37/37
f 37/37/37 36/36/36 48/48/48
f 40/40/40 48/48/48 49/49/49
f 40/40/40 49/49/49 50/50/50
f 40/40/40 50/50/50 38/38/38
f 41/41/41 39/39/39 32/32/32
f 42/42/42 41/41/41 31/31/31
f 32/32/32 31/31/31 41/41/41
f 43/43/43 42/42/42 30/30/30
f 31/31/31 30/30/30 42/42/42
f 44/44/44 43/43/43 29/29/29
f 30/30/30 29/29/29 43/43/43
f 45/45/45 44/44/44 28/28/28
f 29/29/29 28/28/28 44/44/44
f 46/46/46 45/45/45 27/27/27
f 28/28/28 27/27/27 45/45/45
f 27/27/27 26/26/26 46/46/46
f 49/49/49 48/48/48 36/36/36
f 50/50/50 49/49/49 35/35/35
f 36/36/36 35/35/35 49/49/49
f 35/35/35 34/34/34 50/50/50
f 38/38/38 50/50/50 34/34/34
